<svg width="64" height="64" viewBox="0 0 64 64" fill="none" xmlns="http://www.w3.org/2000/svg">
<path d="M0 10C0 4.47715 4.47715 0 10 0H54C59.5228 0 64 4.47715 64 10V54C64 59.5228 59.5228 64 54 64H10C4.47715 64 0 59.5228 0 54V10Z" fill="white"/>
<path d="M0.5 10C0.5 4.7533 4.7533 0.5 10 0.5H54C59.2467 0.5 63.5 4.7533 63.5 10V54C63.5 59.2467 59.2467 63.5 54 63.5H10C4.7533 63.5 0.5 59.2467 0.5 54V10Z" stroke="#1946DA" stroke-opacity="0.3"/>
<path opacity="0.12" d="M46.1666 31.9999C46.1666 24.1759 39.8239 17.8333 31.9999 17.8333C24.1759 17.8333 17.8333 24.1759 17.8333 31.9999C17.8333 39.8239 24.1759 46.1666 31.9999 46.1666C39.8239 46.1666 46.1666 39.8239 46.1666 31.9999Z" fill="#1946DA"/>
<path fill-rule="evenodd" clip-rule="evenodd" d="M31.9999 17.0833C23.7617 17.0833 17.0833 23.7617 17.0833 31.9999C17.0833 40.2382 23.7617 46.9166 31.9999 46.9166C40.2381 46.9166 46.9165 40.2382 46.9165 31.9999C46.9165 23.7617 40.2381 17.0833 31.9999 17.0833ZM45.4165 31.9999C45.4165 39.4098 39.4097 45.4166 31.9999 45.4166C24.5901 45.4166 18.5833 39.4098 18.5833 31.9999C18.5833 24.5901 24.5901 18.5833 31.9999 18.5833C39.4097 18.5833 45.4165 24.5901 45.4165 31.9999ZM26.9322 35.7995C26.6834 35.4683 26.2133 35.4015 25.8821 35.6503C25.5509 35.899 25.4841 36.3692 25.7328 36.7004C27.1607 38.6013 29.4364 39.8333 31.9997 39.8333C34.563 39.8333 36.8387 38.6013 38.2666 36.7004C38.5153 36.3692 38.4485 35.899 38.1173 35.6503C37.7861 35.4015 37.316 35.4683 37.0672 35.7995C35.9105 37.3395 34.0713 38.3333 31.9997 38.3333C29.9282 38.3333 28.0889 37.3395 26.9322 35.7995ZM29.1665 29.1666C29.1665 29.949 28.5323 30.5833 27.7499 30.5833C26.9675 30.5833 26.3332 29.949 26.3332 29.1666C26.3332 28.3842 26.9675 27.7499 27.7499 27.7499C28.5323 27.7499 29.1665 28.3842 29.1665 29.1666ZM36.2499 30.5833C37.0323 30.5833 37.6665 29.949 37.6665 29.1666C37.6665 28.3842 37.0323 27.7499 36.2499 27.7499C35.4675 27.7499 34.8332 28.3842 34.8332 29.1666C34.8332 29.949 35.4675 30.5833 36.2499 30.5833Z" fill="#1946DA"/>
</svg>
