<svg width="64" height="64" viewBox="0 0 64 64" fill="none" xmlns="http://www.w3.org/2000/svg">
<path d="M0 10C0 4.47715 4.47715 0 10 0H54C59.5228 0 64 4.47715 64 10V54C64 59.5228 59.5228 64 54 64H10C4.47715 64 0 59.5228 0 54V10Z" fill="white"/>
<path d="M0.5 10C0.5 4.7533 4.7533 0.5 10 0.5H54C59.2467 0.5 63.5 4.7533 63.5 10V54C63.5 59.2467 59.2467 63.5 54 63.5H10C4.7533 63.5 0.5 59.2467 0.5 54V10Z" stroke="#1946DA" stroke-opacity="0.3"/>
<g clip-path="url(#clip0_1014_4)">
<path opacity="0.12" fill-rule="evenodd" clip-rule="evenodd" d="M26.3335 29.1663C29.4631 29.1663 32.0001 26.6293 32.0001 23.4997C32.0001 20.3701 29.4631 17.833 26.3335 17.833C23.2038 17.833 20.6667 20.3701 20.6667 23.4997C20.6667 26.6293 23.2038 29.1663 26.3335 29.1663ZM16.4496 40.2058C16.4167 40.5185 16.4167 40.89 16.4167 41.633C16.4167 42.1283 16.4167 42.3759 16.4387 42.5844C16.6361 44.4627 18.1203 45.947 19.9986 46.1444C20.2071 46.1663 20.4548 46.1663 20.9501 46.1663H31.7168C32.2121 46.1663 32.4598 46.1663 32.6682 46.1444C34.5465 45.947 36.0308 44.4627 36.2282 42.5844C36.2501 42.3759 36.2501 42.1283 36.2501 41.633C36.2501 40.89 36.2501 40.5185 36.2173 40.2058C35.9211 37.3884 33.6947 35.162 30.8773 34.8658C30.5646 34.833 30.1931 34.833 29.4501 34.833H23.2167C22.4738 34.833 22.1023 34.833 21.7896 34.8658C18.9721 35.162 16.7457 37.3884 16.4496 40.2058Z" fill="#1946DA"/>
<path fill-rule="evenodd" clip-rule="evenodd" d="M21.4168 23.4997C21.4168 20.7843 23.618 18.583 26.3335 18.583C29.0489 18.583 31.2501 20.7843 31.2501 23.4997C31.2501 26.215 29.0489 28.4163 26.3335 28.4163C23.618 28.4163 21.4168 26.215 21.4168 23.4997ZM26.3335 17.083C22.7896 17.083 19.9168 19.9558 19.9168 23.4997C19.9168 27.0435 22.7896 29.9163 26.3335 29.9163C29.8773 29.9163 32.7501 27.0435 32.7501 23.4997C32.7501 19.9558 29.8773 17.083 26.3335 17.083ZM36.2501 17.083C35.8359 17.083 35.5001 17.4188 35.5001 17.833C35.5001 18.2472 35.8359 18.583 36.2501 18.583C38.9655 18.583 41.1668 20.7843 41.1668 23.4997C41.1668 26.215 38.9655 28.4163 36.2501 28.4163C35.8359 28.4163 35.5001 28.7521 35.5001 29.1663C35.5001 29.5805 35.8359 29.9163 36.2501 29.9163C39.794 29.9163 42.6668 27.0435 42.6668 23.4997C42.6668 19.9558 39.794 17.083 36.2501 17.083ZM23.1607 34.083H23.2168H29.4501H29.5062C30.1959 34.0829 30.6035 34.0829 30.9557 34.12C34.1253 34.4531 36.63 36.9578 36.9631 40.1274C37.0002 40.4796 37.0002 40.8872 37.0001 41.5769V41.633V41.6838C37.0002 42.1306 37.0002 42.4147 36.9741 42.6628C36.7397 44.8933 34.9771 46.6559 32.7466 46.8903C32.4985 46.9164 32.2144 46.9163 31.7676 46.9163H31.7168H20.9501H20.8993C20.4525 46.9163 20.1684 46.9164 19.9202 46.8903C17.6898 46.6559 15.9272 44.8933 15.6928 42.6628C15.6667 42.4147 15.6667 42.1305 15.6668 41.6838L15.6668 41.633L15.6668 41.5769C15.6667 40.8872 15.6667 40.4796 15.7037 40.1274C16.0369 36.9578 18.5416 34.4531 21.7112 34.12C22.0634 34.0829 22.471 34.0829 23.1607 34.083ZM17.1668 41.633C17.1668 42.1473 17.1678 42.3465 17.1846 42.506C17.345 44.0321 18.5509 45.2381 20.077 45.3985C20.2366 45.4153 20.4357 45.4163 20.9501 45.4163H31.7168C32.2311 45.4163 32.4303 45.4153 32.5898 45.3985C34.116 45.2381 35.3219 44.0321 35.4823 42.506C35.4991 42.3465 35.5001 42.1473 35.5001 41.633C35.5001 40.871 35.4991 40.548 35.4714 40.2842C35.2123 37.8189 33.2641 35.8708 30.7989 35.6117C30.5351 35.584 30.2121 35.583 29.4501 35.583H23.2168C22.4548 35.583 22.1318 35.584 21.868 35.6117C19.4027 35.8708 17.4546 37.8189 17.1955 40.2842C17.1678 40.548 17.1668 40.871 17.1668 41.633ZM40.7835 35.583C41.5455 35.583 41.8685 35.584 42.1322 35.6117C44.5975 35.8708 46.5456 37.8189 46.8047 40.2842C46.8324 40.548 46.8335 40.871 46.8335 41.633C46.8335 42.1473 46.8324 42.3465 46.8157 42.506C46.6553 44.0321 45.4493 45.2381 43.9232 45.3985C43.7636 45.4153 43.5645 45.4163 43.0501 45.4163H39.0835C38.6692 45.4163 38.3335 45.7521 38.3335 46.1663C38.3335 46.5805 38.6692 46.9163 39.0835 46.9163H43.0501H43.1009C43.5477 46.9163 43.8318 46.9164 44.08 46.8903C46.3104 46.6559 48.073 44.8933 48.3074 42.6628C48.3335 42.4147 48.3335 42.1306 48.3335 41.6838V41.633V41.5769C48.3335 40.8872 48.3335 40.4796 48.2965 40.1274C47.9633 36.9578 45.4586 34.4531 42.289 34.12C41.9368 34.0829 41.5293 34.0829 40.8396 34.083H40.7835H39.0835C38.6692 34.083 38.3335 34.4188 38.3335 34.833C38.3335 35.2472 38.6692 35.583 39.0835 35.583H40.7835Z" fill="#1946DA"/>
</g>
<defs>
<clipPath id="clip0_1014_4">
<rect width="34" height="34" fill="white" transform="translate(15 15)"/>
</clipPath>
</defs>
</svg>
