<svg width="168" height="26" viewBox="0 0 168 26" fill="none" xmlns="http://www.w3.org/2000/svg">
<path fill-rule="evenodd" clip-rule="evenodd" d="M2.84383 18.7578H23.1563C20.3855 16.0933 19.0001 12.3986 19.0001 7.67366C19.0001 7.22072 18.875 6.75441 18.625 6.27473C18.375 5.7952 18.0157 5.33776 17.5469 4.90255C17.0782 4.46733 16.4454 4.10994 15.6484 3.83022C14.8516 3.55034 13.9688 3.41048 12.9999 3.41048C12.0314 3.41048 11.1484 3.55034 10.3516 3.83022C9.55475 4.10994 8.92197 4.46748 8.45306 4.90255C7.98433 5.33776 7.62496 5.7952 7.37514 6.27473C7.12496 6.75441 7.00005 7.22072 7.00005 7.67366C7.00005 12.3986 5.61464 16.0933 2.84383 18.7578ZM26 18.7578C26 19.2196 25.8022 19.6194 25.4064 19.9568C25.0105 20.2943 24.5417 20.463 24 20.463H17.0001C17.0001 21.4045 16.6095 22.2082 15.8282 22.8745C15.0469 23.5406 14.1042 23.8737 13.0001 23.8737C11.896 23.8737 10.9531 23.5406 10.172 22.8745C9.3907 22.2082 9.00006 21.4045 9.00006 20.463H2.00001C1.45843 20.463 0.989525 20.2943 0.593645 19.9568C0.19794 19.6194 0 19.2196 0 18.7578C0.506158 18.3969 0.981365 18.0051 1.42192 17.5854C1.84889 17.1769 2.29177 16.6462 2.75002 15.9934C3.20827 15.3407 3.59646 14.6367 3.91407 13.8818C4.23186 13.1269 4.49234 12.212 4.69535 11.1375C4.89853 10.0627 5.00003 8.90808 5.00003 7.67366C5.00003 6.32371 5.6094 5.06915 6.82814 3.91014C8.04687 2.75113 9.64594 2.04731 11.625 1.79853C11.5428 1.6344 11.5003 1.4576 11.5001 1.27889C11.5001 0.923602 11.646 0.621644 11.9375 0.373016C12.2293 0.124389 12.5834 0 13.0001 0C13.4168 0 13.7709 0.124389 14.0625 0.373016C14.3542 0.621644 14.5001 0.923602 14.5001 1.27889C14.4998 1.45761 14.4573 1.63441 14.375 1.79853C16.3542 2.04716 17.9531 2.75098 19.1719 3.91014C20.3908 5.06915 21.0001 6.32371 21.0001 7.67366C21.0001 8.90823 21.1016 10.0627 21.3048 11.1375C21.5078 12.212 21.7683 13.1269 22.0859 13.8818C22.4037 14.6367 22.7917 15.3407 23.2502 15.9934C23.7084 16.6462 24.1511 17.1769 24.5783 17.5854C25.0187 18.0051 25.4939 18.3969 26 18.7578ZM10.5001 20.2499C10.6667 20.2499 10.7499 20.3209 10.7499 20.463C10.7499 20.987 10.9714 21.4379 11.4141 21.8152C11.8568 22.1928 12.3855 22.3814 13.0001 22.3814C13.1668 22.3814 13.2499 22.4525 13.2499 22.5946C13.2499 22.7367 13.1668 22.8078 13.0001 22.8078C12.2396 22.8078 11.5911 22.5791 11.0548 22.1217C10.5184 21.6643 10.2501 21.1114 10.2501 20.463C10.2501 20.3209 10.3336 20.2499 10.5001 20.2499ZM14.9335 4.88873C15.694 4.88873 16.3425 5.11737 16.8789 5.57482C17.4154 6.03226 17.6836 6.5851 17.6836 7.23334C17.6836 7.3756 17.6002 7.44666 17.4336 7.44666C17.2669 7.44666 17.1836 7.3756 17.1836 7.23334C17.1836 6.70949 16.9622 6.25866 16.5195 5.88128C16.0768 5.50376 15.5481 5.31492 14.9335 5.31492C14.7669 5.31492 14.6835 5.24402 14.6835 5.1019C14.6835 4.95978 14.7669 4.88873 14.9335 4.88873Z" fill="#473700"/>
<path d="M46.7683 4.69593L40.5662 14.8458V19.8559H36.2019V14.8458L30 4.69593H34.9513L38.4223 11.0449L41.868 4.69593H46.7683ZM55.012 20.0287C53.6167 20.0287 52.3619 19.7768 51.2475 19.2728C50.1329 18.7689 49.2567 18.0491 48.6186 17.1133C47.9806 16.1775 47.6616 15.0833 47.6616 13.8308C47.6616 12.5926 47.9848 11.5021 48.6313 10.559C49.278 9.6161 50.1626 8.89261 51.2856 8.38869C52.4086 7.88476 53.6679 7.63279 55.063 7.63279C56.4583 7.63279 57.7173 7.88476 58.8403 8.38883C59.9633 8.89261 60.8482 9.6161 61.4946 10.559C62.1413 11.5021 62.4646 12.5926 62.4646 13.8308C62.4646 15.0689 62.1371 16.1595 61.482 17.1025C60.8269 18.0454 59.9336 18.7689 58.802 19.2728C57.6706 19.7768 56.4073 20.0287 55.012 20.0287ZM55.012 16.8325C55.8457 16.8325 56.5562 16.5734 57.1431 16.0552C57.7301 15.5367 58.0237 14.7953 58.0237 13.8308C58.0237 12.8662 57.7386 12.1248 57.1686 11.6064C56.5987 11.0881 55.8968 10.829 55.063 10.829C54.2122 10.829 53.5062 11.0845 52.9446 11.5956C52.3832 12.1067 52.1024 12.8518 52.1024 13.8308C52.1024 14.7953 52.3789 15.5367 52.9319 16.0552C53.4849 16.5734 54.1783 16.8325 55.012 16.8325ZM78.85 7.8056V19.8559H74.4856V18.2147C74.0432 18.7473 73.4435 19.1756 72.6862 19.4997C71.9292 19.8235 71.0911 19.9855 70.1723 19.9855C69.0834 19.9855 68.122 19.7803 67.2883 19.37C66.4546 18.9596 65.8079 18.3659 65.3486 17.5884C64.8892 16.8109 64.6594 15.8967 64.6594 14.8458V7.8056H68.9984V14.3491C68.9984 15.1553 69.245 15.7816 69.7385 16.2278C70.2319 16.6742 70.8955 16.8973 71.7291 16.8973C72.5799 16.8973 73.252 16.6742 73.7454 16.2278C74.239 15.7816 74.4856 15.1553 74.4856 14.3491V7.8056H78.85ZM86.3535 9.81406C86.864 9.15168 87.502 8.62985 88.2677 8.24828C89.0334 7.86686 89.8841 7.676 90.8201 7.676V11.5848H89.6204C88.5315 11.5848 87.7147 11.7827 87.1704 12.1786C86.6258 12.5746 86.3535 13.2692 86.3535 14.2627V19.8559H81.9893V7.8056H86.3535V9.81406ZM101.591 7.67615C103.258 7.67615 104.589 8.13317 105.585 9.04737C106.58 9.96157 107.078 11.2177 107.078 12.8157V19.8559H102.739V13.3124C102.739 12.5062 102.492 11.8799 101.999 11.4337C101.505 10.9873 100.842 10.7642 100.008 10.7642C99.1744 10.7642 98.5108 10.9873 98.0174 11.4337C97.5239 11.8799 97.2773 12.5062 97.2773 13.3124V19.8559H92.9128V7.8056H97.2773V9.40364C97.7197 8.87101 98.3152 8.44994 99.0638 8.14027C99.8124 7.83076 100.655 7.676 101.591 7.676V7.67615ZM116.598 20.0287C115.202 20.0287 113.948 19.7768 112.833 19.2728C111.719 18.7689 110.842 18.0491 110.204 17.1133C109.566 16.1775 109.247 15.0833 109.247 13.8308C109.247 12.5926 109.571 11.5021 110.217 10.559C110.864 9.6161 111.748 8.89261 112.871 8.38869C113.994 7.88476 115.253 7.63279 116.649 7.63279C118.044 7.63279 119.303 7.88476 120.426 8.38883C121.549 8.89261 122.434 9.6161 123.08 10.559C123.727 11.5021 124.05 12.5926 124.05 13.8308C124.05 15.0689 123.723 16.1595 123.068 17.1025C122.413 18.0454 121.519 18.7689 120.388 19.2728C119.256 19.7768 117.993 20.0287 116.598 20.0287ZM116.598 16.8325C117.431 16.8325 118.142 16.5734 118.729 16.0552C119.316 15.5367 119.609 14.7953 119.609 13.8308C119.609 12.8662 119.324 12.1248 118.754 11.6064C118.184 11.0881 117.483 10.829 116.649 10.829C115.798 10.829 115.092 11.0845 114.53 11.5956C113.969 12.1067 113.688 12.8518 113.688 13.8308C113.688 14.7953 113.965 15.5367 114.518 16.0552C115.071 16.5734 115.764 16.8325 116.598 16.8325ZM134.31 16.7245V19.8559H132.09C130.507 19.8559 129.274 19.5284 128.389 18.8734C127.504 18.2182 127.062 17.1493 127.062 15.6663V10.8722H125.326V7.8056H127.062V4.86874H131.426V7.8056H134.285V10.8722H131.426V15.7095C131.426 16.0695 131.528 16.3286 131.733 16.487C131.937 16.6453 132.277 16.7245 132.753 16.7245H134.31ZM138.93 6.55303C138.164 6.55303 137.539 6.36232 137.054 5.98075C136.569 5.59933 136.327 5.1278 136.327 4.56632C136.327 3.99049 136.569 3.51171 137.054 3.13014C137.539 2.74872 138.164 2.55786 138.93 2.55786C139.679 2.55786 140.295 2.74872 140.78 3.13014C141.265 3.51171 141.508 3.99049 141.508 4.56632C141.508 5.1278 141.265 5.59933 140.78 5.98075C140.295 6.36232 139.679 6.55303 138.93 6.55303ZM141.099 7.8056V19.8559H136.735V7.8056H141.099ZM151.41 10.8722H149.062V19.8559H144.698V10.8722H143.116V7.8056H144.698V7.46013C144.698 5.9772 145.2 4.85069 146.204 4.08045C147.198 3.3179 148.65 2.93277 150.561 2.92493H150.619C150.943 2.92493 151.181 2.93233 151.334 2.94668V6.07796C150.5 6.03476 149.913 6.13566 149.573 6.38037C149.232 6.62509 149.062 7.06421 149.062 7.6976V7.8056H151.41V10.8722ZM168 7.8056L159.067 25.5789H154.371L157.638 19.4458L151.844 7.80575H156.719L160.012 15.3426L163.278 7.8059H168V7.8056Z" fill="#473700"/>
</svg>
