<svg width="166" height="34" viewBox="0 0 166 34" fill="none" xmlns="http://www.w3.org/2000/svg">
<path d="M-7.62939e-06 3.32922V27.2205H8.24689C17.2435 27.2205 23.0226 22.7459 23.0226 15.2882C23.0226 7.80385 17.2435 3.32922 8.24689 3.32922H-7.62939e-06ZM8.24689 8.38981C12.8389 8.38981 15.9003 10.707 15.9003 15.2882C15.9003 19.8427 12.8389 22.1866 8.24689 22.1866H6.84117V8.38981H8.24689ZM44.1084 19.7628C44.1396 19.3367 44.1396 18.9638 44.1396 18.6175C44.1396 12.5182 40.516 8.86924 33.831 8.86924C27.6458 8.86924 23.4911 13.0509 23.4911 18.3246C23.4911 23.5982 27.7395 27.6733 34.6744 27.6733C40.1099 27.6733 42.9838 24.7701 43.6086 23.7048L39.204 20.8016C38.7979 21.3343 37.2985 22.7193 34.7994 22.7193C32.3003 22.7193 30.4885 21.3609 30.3323 19.7628H44.1084ZM33.956 13.477C36.0177 13.477 37.2672 14.7022 37.3609 16.1405H30.551C30.7072 14.862 31.738 13.477 33.956 13.477ZM56.1039 22.666C53.0425 22.666 50.9496 20.8815 50.9496 18.2446C50.9496 15.8742 52.6989 13.9831 55.8852 13.9831C57.4471 13.9831 58.9153 14.4892 60.0711 15.3148L61.8829 10.494C60.4147 9.61501 58.353 8.86924 55.6353 8.86924C49.1377 8.86924 44.2646 12.7845 44.2646 18.2979C44.2646 23.7847 48.9816 27.6733 55.6665 27.6733C58.3218 27.6733 60.446 26.9009 61.8517 26.0752L60.0711 21.3875C59.1652 22.0534 57.6658 22.666 56.1039 22.666ZM61.9142 21.6539C61.9142 25.5692 65.6003 27.6733 69.7237 27.6733C71.8792 27.6733 73.4099 27.1673 74.472 26.2351L74.8468 27.2205H80.8133V16.1405C80.8133 12.0388 78.9703 8.86924 71.723 8.86924C68.2243 8.86924 65.3816 9.82809 63.1637 11.0799L65.6315 14.9153C67.2872 14.2228 69.0677 13.77 70.9108 13.77C73.0975 13.77 74.1283 14.6223 74.1283 15.7144V16.3802C73.3786 16.0872 71.9104 15.7144 70.0674 15.7144C65.1005 15.7144 61.9142 18.0848 61.9142 21.6539ZM68.5992 21.4674C68.5992 20.2955 69.7862 19.5497 71.4106 19.5497C73.0038 19.5497 74.2533 20.2422 74.2533 21.4674C74.2533 22.666 73.035 23.3052 71.4418 23.3052C69.8799 23.3052 68.5992 22.666 68.5992 21.4674ZM97.3696 26.315C97.3696 28.499 94.9018 28.9784 92.4027 28.9784C89.56 28.9784 87.2172 28.1261 86.5924 27.8864L84.6556 32.2545C86.5299 33.0802 89.4351 33.7727 92.4027 33.7727C98.6504 33.7727 104.055 31.6952 104.055 25.0898V9.29539H97.8069V10.707C97.2134 10.1211 95.2141 8.86924 92.1216 8.86924C86.0926 8.86924 81.8442 12.7579 81.8442 18.2446C81.8442 23.8113 85.6865 27.6733 91.7779 27.6733C94.9642 27.6733 96.9323 26.315 97.3696 25.8622V26.315ZM97.5882 18.218C97.5882 21.0413 95.6827 22.666 93.0587 22.666C90.341 22.666 88.5292 20.8548 88.5292 18.218C88.5292 15.5545 90.341 13.8766 93.0275 13.8766C95.9014 13.8766 97.5882 15.8209 97.5882 18.218ZM159.315 27.2205H166V17.2858C166 13.6368 165.375 8.86924 158.784 8.86924C156.16 8.86924 154.317 10.0944 153.505 11.1598V9.29539H146.976V27.2205H153.661V16.54C153.661 15.1018 154.723 13.9831 156.566 13.9831C158.159 13.9831 159.315 14.862 159.315 16.54V27.2205Z" fill="#2D2F48"/>
<path fill-rule="evenodd" clip-rule="evenodd" d="M120.111 7.96365C121.017 7.96365 121.923 8.04355 122.829 8.20336L121.735 10.7603C121.236 10.707 120.705 10.6804 120.173 10.6804C118.83 10.6804 117.549 10.8668 116.331 11.2397L115.831 8.52298C117.175 8.15009 118.612 7.96365 120.111 7.96365ZM118.424 24.9566C117.956 24.2641 117.581 23.5449 117.3 22.8258L120.455 22.3464C120.642 22.7459 120.861 23.1454 121.142 23.5183C121.798 24.5304 122.641 25.3827 123.61 26.0752L121.142 27.8065C120.08 27.0075 119.174 26.0486 118.424 24.9566ZM144.133 20.4553C144.04 21.0413 143.915 21.6006 143.758 22.1599L142.384 21.6539C142.54 21.1745 142.696 20.695 142.79 20.2156L144.133 20.4553ZM142.259 25.1164C141.853 25.729 141.353 26.2883 140.791 26.821L139.479 25.6224C139.979 25.2229 140.416 24.7701 140.822 24.2907L142.259 25.1164ZM138.385 28.6588C138.042 28.8719 137.698 29.085 137.323 29.2714C136.667 29.591 135.98 29.8574 135.293 30.0704L134.668 28.0728C135.48 27.8598 136.324 27.5668 137.105 27.1673C137.23 27.114 137.323 27.0607 137.448 27.0075L138.385 28.6588ZM132.794 30.6564C131.357 30.8695 129.889 30.8961 128.452 30.7097L129.358 28.3658C130.513 28.5523 131.732 28.5523 132.95 28.4191L132.794 30.6564ZM126.89 30.4433L128.077 28.1261C126.734 27.8065 125.453 27.2738 124.328 26.5547L122.173 28.5256C123.578 29.4312 125.203 30.0704 126.89 30.4433ZM111.802 29.1915C111.271 28.8452 110.74 28.4724 110.271 28.0462L111.458 27.3004C111.864 27.6733 112.27 28.0196 112.739 28.3392L111.802 29.1915ZM107.991 25.4893C107.616 24.8767 107.272 24.2108 106.991 23.5449L108.865 23.1721C109.053 23.7314 109.271 24.2907 109.552 24.8234L107.991 25.4893ZM106.335 20.8548C106.272 20.482 106.272 20.1357 106.272 19.7628C106.272 19.0969 106.335 18.4844 106.46 17.8451L108.803 18.3778C108.584 19.0969 108.49 19.8694 108.49 20.6418V20.9614L106.335 20.8548ZM107.116 15.7143C107.616 14.5424 108.334 13.4504 109.209 12.4915L111.146 14.3027C110.396 15.1017 109.771 15.9807 109.303 16.9662L107.116 15.7143ZM110.271 11.4528L112.02 13.5037C113.02 12.678 114.207 11.9855 115.488 11.5061L114.582 8.94913C112.957 9.5351 111.489 10.3874 110.271 11.4528ZM136.511 17.6853C136.043 18.3778 135.511 19.017 134.918 19.5764L132.856 17.4989C133.169 17.1526 133.45 16.7797 133.7 16.4068C134.387 15.3947 134.824 14.356 135.074 13.2906L138.073 14.2494C137.761 15.448 137.261 16.5933 136.511 17.6853ZM119.111 0.958727C119.736 0.719014 120.361 0.532572 121.017 0.399398L121.173 1.65123C120.611 1.75777 120.049 1.89094 119.517 2.07738L119.111 0.958727ZM124.766 -0.00012207C125.578 -0.00012207 126.421 0.079782 127.233 0.212955L126.671 1.7844C126.015 1.62459 125.328 1.54469 124.641 1.49142L124.766 -0.00012207ZM130.295 1.06527C130.701 1.22507 131.076 1.38488 131.45 1.57132C132.106 1.89094 132.731 2.26383 133.294 2.66335L131.575 4.12825C130.951 3.6222 130.232 3.16941 129.42 2.76989C129.326 2.71662 129.201 2.66335 129.108 2.61008L130.295 1.06527ZM135.137 4.20816C136.074 5.16701 136.823 6.25903 137.355 7.37769L134.543 7.91038C134.106 6.95153 133.512 6.04595 132.763 5.22028L135.137 4.20816ZM137.886 8.68279C138.323 10.1211 138.479 11.6392 138.26 13.1308L135.199 12.5182C135.355 11.3196 135.262 10.1211 134.918 8.97577L137.886 8.68279Z" fill="#B8D344"/>
<path fill-rule="evenodd" clip-rule="evenodd" d="M113.52 16.0339C113.988 15.3681 114.519 14.7288 115.113 14.1429L117.175 16.2204C116.862 16.5666 116.581 16.9395 116.3 17.339C115.644 18.3245 115.175 19.3899 114.957 20.4553L111.958 19.4698C112.27 18.2979 112.77 17.126 113.52 16.0339ZM131.607 8.78929C132.075 9.4818 132.419 10.1743 132.731 10.9201L129.576 11.3995C129.389 11 129.139 10.6005 128.889 10.2009C128.202 9.21545 127.358 8.36314 126.39 7.644L128.889 5.93938C129.92 6.73842 130.857 7.69727 131.607 8.78929ZM105.898 13.2639C105.96 12.7046 106.085 12.1453 106.272 11.5859L107.647 12.092C107.46 12.5448 107.335 13.0242 107.241 13.5303L105.898 13.2639ZM107.772 8.60285C108.178 8.01689 108.678 7.43093 109.209 6.89823L110.521 8.09679C110.052 8.52295 109.584 8.97574 109.209 9.42853L107.772 8.60285ZM111.614 5.06044C111.958 4.84736 112.333 4.66092 112.708 4.47448C113.364 4.15486 114.02 3.86188 114.707 3.6488L115.363 5.6464C114.519 5.85948 113.707 6.15246 112.895 6.55198C112.801 6.60525 112.676 6.65852 112.583 6.71179L111.614 5.06044ZM117.237 3.06284C118.674 2.84976 120.142 2.82313 121.579 3.00957L120.673 5.35342C119.486 5.19361 118.268 5.16698 117.081 5.32679L117.237 3.06284ZM123.141 3.27591L121.954 5.59313C123.297 5.91275 124.547 6.44544 125.703 7.16458L127.858 5.19361C126.421 4.31467 124.828 3.6488 123.141 3.27591ZM129.92 25.7556C128.983 25.7556 128.077 25.6757 127.202 25.5425L128.295 22.9589C128.795 23.0122 129.326 23.0655 129.826 23.0655C131.201 23.0655 132.481 22.8524 133.7 22.5062L134.168 25.1963C132.825 25.5691 131.419 25.7556 129.92 25.7556ZM138.229 4.55438C138.76 4.90063 139.26 5.27352 139.729 5.67304L138.542 6.44544C138.167 6.07256 137.729 5.72631 137.292 5.40669L138.229 4.55438ZM142.009 8.2566C142.415 8.8692 142.759 9.50843 143.04 10.1743L141.166 10.5472C140.978 9.98786 140.728 9.42853 140.447 8.89583L142.009 8.2566ZM143.696 12.891C143.727 13.2373 143.758 13.6102 143.758 13.9831C143.758 14.6223 143.696 15.2615 143.571 15.8741L141.228 15.3414C141.415 14.6223 141.54 13.8765 141.54 13.0775C141.54 12.9709 141.54 12.8644 141.509 12.7579L143.696 12.891ZM142.915 18.0315C142.415 19.2035 141.697 20.2955 140.822 21.2543L138.854 19.4165C139.635 18.6175 140.26 17.7386 140.697 16.7797L142.915 18.0315ZM139.729 22.2664L137.979 20.2422C136.98 21.0679 135.824 21.7338 134.512 22.2132L135.449 24.7967C137.073 24.1841 138.51 23.3318 139.729 22.2664ZM130.919 32.7871C130.295 33.0002 129.67 33.1867 129.014 33.3465L128.826 32.068C129.389 31.9881 129.951 31.8283 130.513 31.6685L130.919 32.7871ZM125.265 33.7194C124.422 33.7194 123.61 33.6395 122.798 33.5063L123.36 31.9348C124.016 32.0946 124.703 32.2012 125.359 32.2545L125.265 33.7194ZM119.705 32.654C119.33 32.4942 118.955 32.3344 118.58 32.1479C117.924 31.8283 117.3 31.4554 116.737 31.0559L118.424 29.591C119.08 30.097 119.799 30.5765 120.58 30.9494C120.705 31.0026 120.798 31.0559 120.923 31.1092L119.705 32.654ZM114.894 29.5111C113.926 28.5522 113.207 27.4868 112.645 26.3416L115.488 25.8089C115.894 26.7677 116.487 27.6733 117.268 28.499L114.894 29.5111ZM112.145 25.0365C111.677 23.5982 111.552 22.1066 111.739 20.5885L114.801 21.2011C114.644 22.3996 114.769 23.5982 115.113 24.7701L112.145 25.0365Z" fill="#34A853"/>
</svg>
