<svg width="145" height="135" viewBox="0 0 145 135" fill="none" xmlns="http://www.w3.org/2000/svg">
<path id="Union" opacity="1" d="M139.178 0.5C144.425 0.5 148.678 4.7533 148.678 10V60.8219C148.678 66.6209 153.379 71.3219 159.178 71.3219H210C215.247 71.3219 219.5 75.5752 219.5 80.8219V139.178C219.5 144.425 215.247 148.678 210 148.678H159.178C153.379 148.678 148.678 153.379 148.678 159.178V210C148.678 215.247 144.425 219.5 139.178 219.5H80.8219C75.5752 219.5 71.3219 215.247 71.3219 210V159.178C71.3219 153.379 66.6209 148.678 60.8219 148.678H9.99999C4.75329 148.678 0.500003 144.425 0.500003 139.178L0.5 80.8219C0.5 75.5752 4.75329 71.3219 10 71.3219H60.8219C66.6209 71.3219 71.3219 66.6209 71.3219 60.8219V9.99999C71.3219 4.75329 75.5752 0.5 80.8219 0.5H139.178Z" stroke="#1946DA"/>
</svg>
