<svg width="64" height="64" viewBox="0 0 64 64" fill="none" xmlns="http://www.w3.org/2000/svg">
<path d="M0 10C0 4.47715 4.47715 0 10 0H54C59.5228 0 64 4.47715 64 10V54C64 59.5228 59.5228 64 54 64H10C4.47715 64 0 59.5228 0 54V10Z" fill="white"/>
<path d="M0.5 10C0.5 4.7533 4.7533 0.5 10 0.5H54C59.2467 0.5 63.5 4.7533 63.5 10V54C63.5 59.2467 59.2467 63.5 54 63.5H10C4.7533 63.5 0.5 59.2467 0.5 54V10Z" stroke="#1946DA" stroke-opacity="0.3"/>
<path opacity="0.12" d="M29.1378 19.3076C30.059 17.4652 30.5196 16.544 31.1429 16.2484C31.6853 15.9911 32.3146 15.9911 32.857 16.2484C33.4803 16.544 33.9409 17.4652 34.8622 19.3076L36.8881 23.3595C37.1725 23.9284 37.3148 24.2128 37.5228 24.4306C37.707 24.6234 37.9279 24.7774 38.1724 24.8836C38.4487 25.0035 38.7648 25.0386 39.3969 25.1089L43.473 25.5618C45.6813 25.8071 46.7854 25.9298 47.2844 26.4389C47.718 26.8813 47.9221 27.4997 47.8371 28.1133C47.7393 28.8194 46.9252 29.5753 45.2971 31.0871L42.0361 34.1152C41.4803 34.6313 41.2025 34.8893 41.0419 35.202C40.8999 35.4784 40.8243 35.784 40.8211 36.0947C40.8174 36.4462 40.9429 36.804 41.194 37.5196L42.6065 41.5451C43.4245 43.8764 43.8334 45.042 43.5618 45.7338C43.3263 46.3338 42.8159 46.7835 42.191 46.9417C41.4705 47.1241 40.3656 46.5716 38.1559 45.4668L33.4311 43.1044C32.9063 42.842 32.644 42.7108 32.3688 42.6592C32.125 42.6135 31.8749 42.6135 31.6312 42.6592C31.356 42.7108 31.0936 42.842 30.5689 43.1044L25.8441 45.4668C23.6344 46.5717 22.5295 47.1241 21.809 46.9417C21.1841 46.7835 20.6737 46.3338 20.4381 45.7338C20.1665 45.042 20.5755 43.8764 21.3935 41.5451L22.806 37.5196C23.0571 36.804 23.1826 36.4462 23.1789 36.0947C23.1756 35.784 23.1 35.4784 22.9581 35.202C22.7975 34.8893 22.5196 34.6313 21.9639 34.1152L18.7029 31.0871C17.0747 29.5753 16.2607 28.8194 16.1629 28.1133C16.0779 27.4997 16.282 26.8813 16.7156 26.4389C17.2146 25.9298 18.3187 25.8071 20.5269 25.5618L24.6031 25.1089C25.2352 25.0386 25.5513 25.0035 25.8275 24.8836C26.0721 24.7774 26.293 24.6234 26.4771 24.4306C26.6852 24.2128 26.8274 23.9284 27.1119 23.3595L29.1378 19.3076Z" fill="#1946DA"/>
<path fill-rule="evenodd" clip-rule="evenodd" d="M30.8216 15.5707C31.5674 15.217 32.4326 15.217 33.1785 15.5707C33.6948 15.8156 34.061 16.2791 34.3855 16.803C34.7118 17.3297 35.0698 18.0457 35.5155 18.9373L35.533 18.9722L37.5589 23.0241C37.8646 23.6355 37.9535 23.7957 38.0651 23.9125C38.1802 24.033 38.3183 24.1292 38.4711 24.1956C38.6193 24.2599 38.8004 24.288 39.4797 24.3635L43.5559 24.8164L43.5949 24.8207C44.6659 24.9397 45.5215 25.0347 46.1692 25.1665C46.808 25.2964 47.4033 25.4887 47.82 25.9139C48.4162 26.5222 48.6969 27.3725 48.58 28.2162C48.4984 28.8059 48.1346 29.3149 47.6987 29.7996C47.2567 30.291 46.6259 30.8767 45.8363 31.61L45.8075 31.6367L42.5465 34.6648C41.9483 35.2202 41.795 35.3773 41.7091 35.5446C41.6203 35.7174 41.5731 35.9084 41.571 36.1026C41.5691 36.2906 41.6315 36.5011 41.9017 37.2713L43.3142 41.2968L43.3273 41.3341C43.7252 42.4682 44.0408 43.3676 44.2195 44.069C44.3937 44.7523 44.4895 45.4232 44.26 46.0079C43.9361 46.8329 43.2343 47.4513 42.375 47.6688C41.7661 47.8229 41.1126 47.6434 40.4567 47.3847C39.7834 47.1191 38.9308 46.6928 37.8559 46.1553L37.8205 46.1376L33.0957 43.7752C32.5321 43.4934 32.3783 43.4241 32.2305 43.3963C32.0782 43.3678 31.9218 43.3678 31.7695 43.3963C31.6218 43.4241 31.4679 43.4934 30.9043 43.7752L26.1795 46.1376L26.1442 46.1553C25.0692 46.6928 24.2166 47.1191 23.5433 47.3847C22.8874 47.6434 22.2339 47.8229 21.625 47.6688C20.7657 47.4513 20.0639 46.8329 19.74 46.0079C19.5105 45.4232 19.6063 44.7523 19.7804 44.069C19.9592 43.3676 20.2748 42.4682 20.6727 41.3341L20.6858 41.2968L22.0983 37.2713C22.3685 36.5011 22.4309 36.2906 22.4289 36.1026C22.4269 35.9084 22.3797 35.7174 22.2909 35.5446C22.205 35.3773 22.0517 35.2202 21.4535 34.6648L18.1925 31.6367L18.1637 31.61C17.3741 30.8768 16.7433 30.291 16.3013 29.7996C15.8654 29.3149 15.5016 28.8059 15.42 28.2162C15.3031 27.3725 15.5838 26.5222 16.18 25.9139C16.5967 25.4887 17.192 25.2964 17.8308 25.1665C18.4785 25.0347 19.3341 24.9397 20.4051 24.8207L20.4441 24.8164L24.5203 24.3635C25.1996 24.288 25.3807 24.2599 25.5289 24.1956C25.6817 24.1292 25.8198 24.033 25.9349 23.9125C26.0465 23.7957 26.1354 23.6355 26.4411 23.0241L28.467 18.9722L28.4845 18.9373C28.9303 18.0457 29.2882 17.3297 29.6145 16.803C29.9391 16.2791 30.3053 15.8156 30.8216 15.5707ZM32.5357 16.926C32.1967 16.7652 31.8034 16.7652 31.4644 16.926C31.3574 16.9768 31.1816 17.1216 30.8897 17.5929C30.6038 18.0544 30.276 18.7084 29.8087 19.643L27.7827 23.6949C27.7683 23.7237 27.7541 23.7521 27.7401 23.7802C27.4978 24.2657 27.3073 24.6474 27.0194 24.9487C26.7662 25.2138 26.4625 25.4255 26.1263 25.5715C25.744 25.7375 25.32 25.7843 24.7807 25.8438C24.7495 25.8472 24.7179 25.8507 24.6859 25.8543L20.6098 26.3072C19.4908 26.4315 18.7031 26.5198 18.1298 26.6364C17.5397 26.7564 17.3335 26.88 17.2512 26.9639C16.9802 27.2404 16.8526 27.6269 16.9058 28.0104C16.9219 28.1268 17.014 28.3488 17.4167 28.7966C17.8079 29.2316 18.3882 29.7715 19.2132 30.5375L22.4742 33.5656C22.5026 33.592 22.5307 33.6181 22.5585 33.6438C23.0317 34.0824 23.403 34.4266 23.6253 34.8594C23.8204 35.2394 23.9244 35.6596 23.9289 36.0868C23.934 36.5732 23.7659 37.0509 23.5518 37.6595C23.5392 37.6952 23.5265 37.7313 23.5137 37.768L22.1012 41.7935C21.6873 42.973 21.3944 43.81 21.234 44.4394C21.067 45.0947 21.0942 45.3526 21.1363 45.4597C21.2835 45.8347 21.6025 46.1158 21.9931 46.2147C22.1046 46.2429 22.3638 46.2374 22.9929 45.9893C23.5972 45.7509 24.3906 45.355 25.5087 44.796L30.2335 42.4336C30.26 42.4203 30.2861 42.4073 30.3118 42.3944C30.7598 42.17 31.1122 41.9935 31.4929 41.9221C31.8281 41.8592 32.172 41.8592 32.5071 41.9221C32.8878 41.9935 33.2402 42.17 33.6882 42.3944C33.714 42.4073 33.7401 42.4203 33.7665 42.4336L38.4913 44.796C39.6094 45.355 40.4028 45.7509 41.0071 45.9893C41.6362 46.2374 41.8954 46.2429 42.0069 46.2147C42.3975 46.1158 42.7165 45.8347 42.8637 45.4597C42.9058 45.3526 42.933 45.0947 42.766 44.4394C42.6056 43.8099 42.3127 42.973 41.8988 41.7935L40.4863 37.768C40.4735 37.7313 40.4608 37.6952 40.4482 37.6595C40.2341 37.0509 40.066 36.5732 40.0711 36.0868C40.0756 35.6596 40.1796 35.2394 40.3747 34.8594C40.597 34.4266 40.9683 34.0824 41.4415 33.6438C41.4693 33.6181 41.4973 33.592 41.5258 33.5656L44.7868 30.5375C45.6118 29.7715 46.1921 29.2316 46.5833 28.7966C46.986 28.3488 47.0781 28.1268 47.0942 28.0104C47.1474 27.6269 47.0198 27.2404 46.7488 26.9639C46.6665 26.88 46.4603 26.7564 45.8702 26.6364C45.2969 26.5198 44.5092 26.4315 43.3902 26.3072L39.3141 25.8543C39.2821 25.8507 39.2505 25.8472 39.2193 25.8438C38.68 25.7843 38.256 25.7375 37.8738 25.5715C37.5375 25.4255 37.2338 25.2138 36.9806 24.9487C36.6927 24.6474 36.5022 24.2657 36.2599 23.7802C36.2459 23.7521 36.2317 23.7237 36.2173 23.6949L34.1914 19.643C33.7241 18.7084 33.3962 18.0544 33.1103 17.5929C32.8184 17.1216 32.6427 16.9768 32.5357 16.926Z" fill="#1946DA"/>
</svg>
