<svg width="64" height="64" viewBox="0 0 64 64" fill="none" xmlns="http://www.w3.org/2000/svg">
<g clip-path="url(#clip0_1599_142)">
<path d="M0 10C0 4.48 4.48 0 10 0H54C59.52 0 64 4.48 64 10V54C64 59.52 59.52 64 54 64H10C4.48 64 0 59.52 0 54V10Z" fill="white"/>
<path d="M0.5 10C0.5 4.75 4.75 0.5 10 0.5H54C59.25 0.5 63.5 4.75 63.5 10V54C63.5 59.25 59.25 63.5 54 63.5H10C4.75 63.5 0.5 59.25 0.5 54V10Z" stroke="#BAC8F4"/>
<path d="M21.7 29.1899V26.1899L23.7 23.1899L25.7 21.1899L27.7 20.1899L30.7 19.1899L35.7 21.1899L38.7 24.1899V26.1899L39.7 27.1899H40.7L42.7 28.1899V31.1899L45.32 31.9999L47.7 34.1899L48.7 37.1899V39.1699L46.7 42.1899L44.99 43.7199L40.7 44.1899H29.7H22.7L18.9 43.7199L16.7 41.1899L15.7 39.1899V37.1899V35.1899L16.7 33.1899L17.7 31.1899L20.7 30.1899L21.7 29.1899Z" fill="#E3E8FA"/>
<path d="M43.7199 30.6801C43.7199 30.6801 43.7199 30.5801 43.7199 30.5301C43.7199 28.2701 41.9999 26.3901 39.7999 26.1601C38.7999 21.8601 34.9999 18.8101 30.5299 18.8101C25.2799 18.8101 20.9999 23.0801 20.9999 28.3401C20.9999 28.6201 21.0099 28.9101 21.0399 29.2001C17.2599 29.8801 14.3999 33.2201 14.3999 37.1301C14.3999 41.5701 18.0199 45.1901 22.4599 45.1901H42.2499C46.2899 45.1901 49.5799 41.9001 49.5799 37.8601C49.5799 34.3201 47.1099 31.3601 43.7099 30.6801H43.7199ZM42.2599 43.7201H22.4699C18.8299 43.7201 15.8699 40.7601 15.8699 37.1201C15.8699 33.7101 18.5299 30.8301 21.9299 30.5501L22.7299 30.4901L22.5899 29.7001C22.5099 29.2101 22.4599 28.7601 22.4599 28.3301C22.4599 23.8901 26.0799 20.2701 30.5199 20.2701C34.4699 20.2701 37.8099 23.1001 38.4599 27.0001L38.5699 27.6401L39.2199 27.6101C39.2199 27.6101 39.3099 27.6101 39.3199 27.6001C40.9399 27.6001 42.2499 28.9101 42.2499 30.5301C42.2499 30.7301 42.2299 30.9401 42.1799 31.1401L42.0099 31.9401L42.8299 32.0201C45.8399 32.3101 48.1099 34.8201 48.1099 37.8501C48.1099 41.0801 45.4799 43.7101 42.2499 43.7101L42.2599 43.7201Z" fill="#1946DA"/>
</g>
<defs>
<clipPath id="clip0_1599_142">
<rect width="64" height="64" fill="white"/>
</clipPath>
</defs>
</svg>
