<svg width="64" height="64" viewBox="0 0 64 64" fill="none" xmlns="http://www.w3.org/2000/svg">
<g clip-path="url(#clip0_1599_152)">
<path d="M0 10C0 4.48 4.48 0 10 0H54C59.52 0 64 4.48 64 10V54C64 59.52 59.52 64 54 64H10C4.48 64 0 59.52 0 54V10Z" fill="white"/>
<path d="M0.5 10C0.5 4.75 4.75 0.5 10 0.5H54C59.25 0.5 63.5 4.75 63.5 10V54C63.5 59.25 59.25 63.5 54 63.5H10C4.75 63.5 0.5 59.25 0.5 54V10Z" stroke="#BAC8F4"/>
<path d="M22.5215 30.9892L23.4603 26.9174L24.5009 25.3L26.763 23.0378L29.0251 21.9067H34.6805L38.0737 23.0378L40.2001 26.2614L41.4669 28.6932C41.4669 28.6932 41.4669 31.0232 41.4669 30.9892C41.4669 30.9553 41.4669 33.2175 41.4669 33.2175L40.2001 35.7284L39.2048 37.7418L36.9653 39.2235L36.3093 41.2255L35.8116 42.266L34.6805 44.5282H33.5494V46.7903L32.9387 48.8602H31.423L29.9639 48.1363L30.1562 45.6593L29.0251 44.5282H27.8941V42.266L26.763 40.0039L25.6319 37.7418L23.743 36.1696L23.3698 34.3485L22.5215 32.5501V30.9892Z" fill="#E3E8FA"/>
<path d="M31.9999 18.9089C32.2487 18.9089 32.4976 18.8071 32.6672 18.6261C32.8482 18.4451 32.95 18.2076 32.95 17.9588V14.9501C32.95 14.7013 32.8482 14.4524 32.6672 14.2828C32.4863 14.1131 32.2487 14 31.9999 14C31.7511 14 31.5022 14.1018 31.3326 14.2828C31.1629 14.4637 31.0498 14.7013 31.0498 14.9501V17.9588C31.0498 18.2076 31.1516 18.4564 31.3326 18.6261C31.5135 18.8071 31.7511 18.9089 31.9999 18.9089Z" fill="#1946DA"/>
<path d="M41.2183 22.7204C41.4672 22.7204 41.716 22.6186 41.8857 22.4376L44.0121 20.3112C44.1026 20.2207 44.1704 20.1189 44.2157 20.0058C44.2609 19.8927 44.2835 19.7683 44.2835 19.6439C44.2835 19.5194 44.2609 19.395 44.2157 19.2819C44.1704 19.1688 44.1026 19.067 44.0121 18.9765C43.8311 18.7956 43.5936 18.7051 43.3448 18.7051C43.0959 18.7051 42.8584 18.8069 42.6774 18.9765L40.551 21.1029C40.4605 21.1934 40.3926 21.2952 40.3474 21.4083C40.3022 21.5214 40.2795 21.6459 40.2795 21.7703C40.2795 21.8947 40.3022 22.0191 40.3474 22.1322C40.3926 22.2453 40.4605 22.3471 40.551 22.4376C40.732 22.6186 40.9695 22.7204 41.2183 22.7204Z" fill="#1946DA"/>
<path d="M48.0498 30.0498H45.0412C44.7923 30.0498 44.5435 30.1516 44.3738 30.3326C44.2042 30.5135 44.0911 30.7511 44.0911 30.9999C44.0911 31.2487 44.1929 31.4976 44.3738 31.6672C44.5548 31.8369 44.7923 31.95 45.0412 31.95H48.0498C48.2987 31.95 48.5475 31.8482 48.7172 31.6672C48.8868 31.4863 48.9999 31.2487 48.9999 30.9999C48.9999 30.7511 48.8981 30.5022 48.7172 30.3326C48.5362 30.1629 48.2987 30.0498 48.0498 30.0498Z" fill="#1946DA"/>
<path d="M41.8857 39.5396C41.8066 39.4378 41.6935 39.3473 41.5803 39.2908C41.4672 39.2342 41.3315 39.2003 41.1958 39.189C41.0601 39.189 40.9356 39.2003 40.8112 39.2455C40.6868 39.2908 40.5737 39.3699 40.4832 39.4604C40.3927 39.5509 40.3135 39.664 40.2683 39.7884C40.2231 39.9129 40.2004 40.0486 40.2004 40.173C40.2004 40.3087 40.2457 40.4331 40.3022 40.5576C40.3588 40.6707 40.4493 40.7838 40.5511 40.863L42.6775 42.9894C42.8585 43.1703 43.096 43.2608 43.3448 43.2721C43.5258 43.2721 43.7068 43.2156 43.8651 43.1138C44.0235 43.012 44.1366 42.865 44.2044 42.6953C44.2723 42.5256 44.2949 42.3333 44.261 42.1524C44.2271 41.9714 44.1366 41.8017 44.0122 41.666L41.8857 39.5396Z" fill="#1946DA"/>
<path d="M22.1146 39.5394L19.9881 41.6658C19.8524 41.8015 19.7619 41.9712 19.728 42.1521C19.6941 42.3331 19.7054 42.5254 19.7845 42.695C19.8524 42.8647 19.9768 43.0117 20.1352 43.1249C20.2935 43.2266 20.4745 43.2832 20.6668 43.2832C20.9156 43.2832 21.1531 43.1814 21.3341 43.0004L23.4605 40.8627C23.551 40.7722 23.6302 40.6704 23.6754 40.5573C23.732 40.4442 23.7546 40.3198 23.7546 40.1841C23.7546 40.0596 23.732 39.9352 23.6867 39.8108C23.6415 39.6977 23.5736 39.5846 23.4832 39.4941C23.3927 39.4036 23.2909 39.3358 23.1665 39.2905C23.0533 39.2453 22.9176 39.2227 22.7932 39.2227C22.6688 39.2227 22.5444 39.2566 22.4199 39.3018C22.3068 39.3584 22.1937 39.4262 22.1146 39.5167V39.5394Z" fill="#1946DA"/>
<path d="M18.9588 30.0498H15.9501C15.7013 30.0498 15.4524 30.1516 15.2828 30.3326C15.1018 30.5135 15 30.7511 15 30.9999C15 31.2487 15.1018 31.4976 15.2828 31.6672C15.4637 31.8482 15.7013 31.95 15.9501 31.95H18.9588C19.2076 31.95 19.4564 31.8482 19.6261 31.6672C19.8071 31.4863 19.9089 31.2487 19.9089 30.9999C19.9089 30.7511 19.8071 30.5022 19.6261 30.3326C19.4451 30.1516 19.2076 30.0498 18.9588 30.0498Z" fill="#1946DA"/>
<path d="M22.1144 22.4488C22.2954 22.6298 22.5329 22.7316 22.7818 22.7316C23.0306 22.7316 23.2794 22.6298 23.4491 22.4488C23.5396 22.3584 23.6074 22.2566 23.6527 22.1435C23.6979 22.0303 23.7205 21.9059 23.7205 21.7815C23.7205 21.6571 23.6979 21.5327 23.6527 21.4196C23.6074 21.3065 23.5396 21.2047 23.4491 21.1142L21.3227 18.9878C21.1417 18.8068 20.9042 18.7163 20.6553 18.7163C20.4065 18.7163 20.169 18.8181 19.988 18.9878C19.8975 19.0783 19.8297 19.18 19.7844 19.2932C19.7392 19.4063 19.7166 19.5307 19.7166 19.6551C19.7166 19.7795 19.7392 19.9039 19.7844 20.017C19.8297 20.1301 19.8975 20.2319 19.988 20.3224L22.1144 22.4488Z" fill="#1946DA"/>
<path d="M42.4058 30.1178C42.2588 28.4099 41.7045 26.7586 40.7771 25.3221C39.8496 23.8856 38.5828 22.6867 37.0784 21.861C35.5854 21.024 33.9001 20.5716 32.1922 20.5377C30.473 20.5037 28.7877 20.8996 27.2607 21.6687C25.7338 22.4492 24.4217 23.5916 23.4377 24.9941C22.4537 26.3966 21.8316 28.0254 21.628 29.722C21.4244 31.4186 21.628 33.1491 22.2614 34.7439C22.8835 36.3387 23.8788 37.7639 25.1796 38.8836C25.9261 39.517 26.5255 40.3088 26.9327 41.191C27.3512 42.0733 27.5661 43.046 27.5661 44.0187V44.4598C27.5661 44.7087 27.6679 44.9575 27.8489 45.1272C28.0299 45.2968 28.2674 45.4099 28.5162 45.4099H28.9913V47.0274C28.9913 47.8191 29.308 48.5882 29.8735 49.1425C30.4391 49.6967 31.1969 50.0247 31.9886 50.0247C32.7804 50.0247 33.5495 49.708 34.1037 49.1425C34.6693 48.5769 34.986 47.8191 34.986 47.0274V45.4212H35.461C35.7098 45.4212 35.9587 45.3195 36.1283 45.1385C36.298 44.9575 36.4111 44.72 36.4111 44.4711V44.0187C36.4224 43.0234 36.6486 42.0507 37.0784 41.1571C37.4969 40.2636 38.1077 39.4718 38.8655 38.8271C40.0984 37.7526 41.0598 36.4066 41.6706 34.891C42.2814 33.3753 42.5302 31.7353 42.3945 30.1065L42.4058 30.1178ZM33.0971 47.0387C33.0971 47.3328 32.984 47.6155 32.7804 47.8191C32.5768 48.0227 32.294 48.1358 31.9999 48.1358C31.7059 48.1358 31.4231 48.0227 31.2195 47.8191C31.0159 47.6155 30.9028 47.3328 30.9028 47.0387V45.4212H33.1084V47.0387H33.0971ZM37.6327 37.4133C36.7391 38.1711 36.0039 39.1099 35.4723 40.1618C34.9407 41.2137 34.624 42.356 34.5335 43.5324H29.4776C29.3985 42.3674 29.0931 41.2363 28.5728 40.1844C28.0525 39.1438 27.3286 38.2163 26.4351 37.4585C25.1117 36.3161 24.1729 34.8118 23.7431 33.1265C23.3133 31.4412 23.3925 29.6654 24.0033 28.0254C24.6027 26.3966 25.6999 24.9828 27.125 23.9874C28.5502 22.9921 30.2468 22.4492 31.9886 22.4379C33.7305 22.4379 35.4271 22.9582 36.8635 23.9422C38.3 24.9262 39.3971 26.3287 40.0192 27.9575C40.63 29.5862 40.7431 31.362 40.3133 33.0586C39.8948 34.7439 38.9673 36.2709 37.6553 37.4133H37.644H37.6327Z" fill="#1946DA"/>
</g>
<defs>
<clipPath id="clip0_1599_152">
<rect width="64" height="64" fill="white"/>
</clipPath>
</defs>
</svg>
