<svg width="64" height="64" viewBox="0 0 64 64" fill="none" xmlns="http://www.w3.org/2000/svg">
<g clip-path="url(#clip0_1583_38)">
<path d="M0 10C0 4.48 4.48 0 10 0H54C59.52 0 64 4.48 64 10V54C64 59.52 59.52 64 54 64H10C4.48 64 0 59.52 0 54V10Z" fill="white"/>
<path d="M0.5 10C0.5 4.75 4.75 0.5 10 0.5H54C59.25 0.5 63.5 4.75 63.5 10V54C63.5 59.25 59.25 63.5 54 63.5H10C4.75 63.5 0.5 59.25 0.5 54V10Z" stroke="#BAC8F4"/>
<path d="M20.4501 18.1701L23.1901 17.5801L27.3801 18.1701L31.9901 22.1501L34.1801 19.5801L37.1801 17.5801H42.1201L44.1801 18.5801L46.1801 20.5801L47.1801 21.5801L48.1801 23.5801V27.5801L47.8301 29.0301L47.1801 30.5801L45.1801 33.5801L42.1801 36.5801L32.1801 46.5801L23.1801 37.5801L17.7701 31.7001L16.1801 29.5801L15.1801 26.5801L16.1801 22.5801L17.1801 20.5801L20.4401 18.1701H20.4501Z" fill="#E3E8FA"/>
<path d="M46.61 32.51C50.17 28.91 50.17 23.04 46.61 19.44C44.88 17.69 42.58 16.73 40.14 16.73C37.69 16.73 35.39 17.69 33.67 19.44L32.01 21.11L30.35 19.44C28.62 17.69 26.32 16.73 23.88 16.73C21.44 16.73 19.13 17.69 17.41 19.44C13.85 23.04 13.85 28.91 17.41 32.51L32.02 47.28L46.63 32.51H46.61ZM18.42 20.45C19.88 18.98 21.81 18.17 23.87 18.17C25.93 18.17 27.86 18.98 29.32 20.45L32 23.16L34.68 20.45C36.14 18.98 38.07 18.17 40.13 18.17C42.19 18.17 44.12 18.98 45.58 20.45C48.59 23.5 48.59 28.45 45.58 31.5L32 45.23L18.42 31.5C15.41 28.45 15.41 23.5 18.42 20.45Z" fill="#1946DA"/>
</g>
<defs>
<clipPath id="clip0_1583_38">
<rect width="64" height="64" fill="white"/>
</clipPath>
</defs>
</svg>
