<svg width="64" height="64" viewBox="0 0 64 64" fill="none" xmlns="http://www.w3.org/2000/svg">
<g clip-path="url(#clip0_1599_65)">
<path d="M0.5 10C0.5 4.75 4.75 0.5 10 0.5H54C59.25 0.5 63.5 4.75 63.5 10V54C63.5 59.25 59.25 63.5 54 63.5H10C4.75 63.5 0.5 59.25 0.5 54V10Z" stroke="#BAC8F4"/>
<path d="M19.14 39.9199L30.14 28.9199V26.9199V22.9199L32.14 20.9199L35.37 19.0799L37.14 17.9199H39.14L45.14 21.9199L46.14 26.9199L44.07 31.9999L41.14 33.9199H37.14H36.14L34.14 34.9199V35.9199H30.14L29.98 39.9199H26.14V42.9199H23.14V46.9199H19.41L17.14 45.9199V41.5899L19.14 39.9199Z" fill="#E3E8FA"/>
<path d="M37.94 17.4199C33.09 17.4199 29.14 21.3699 29.14 26.2199C29.14 26.9199 29.22 27.6199 29.39 28.2999L16.75 40.9699V47.4199H23.73V43.8799H27.27V40.3399H30.81V36.7999H33.87L35.88 34.7799C36.55 34.9399 37.25 35.0199 37.95 35.0199C42.8 35.0199 46.75 31.0699 46.75 26.2199C46.75 21.3699 42.8 17.4199 37.95 17.4199H37.94ZM37.94 33.3599C37.24 33.3599 36.54 33.2599 35.87 33.0499L35.39 32.9099L33.17 35.1299H29.14V38.6699H25.6V42.2099H22.06V45.7499H18.41V41.6599L31.26 28.7799L31.11 28.2999C30.91 27.6299 30.8 26.9199 30.8 26.2099C30.8 22.2799 34 19.0699 37.94 19.0699C41.88 19.0699 45.08 22.2699 45.08 26.2099C45.08 30.1499 41.88 33.3499 37.94 33.3499V33.3599Z" fill="#1946DA"/>
<path d="M39.42 26.4401C40.3423 26.4401 41.09 25.6924 41.09 24.7701C41.09 23.8478 40.3423 23.1001 39.42 23.1001C38.4977 23.1001 37.75 23.8478 37.75 24.7701C37.75 25.6924 38.4977 26.4401 39.42 26.4401Z" fill="#1946DA"/>
</g>
<defs>
<clipPath id="clip0_1599_65">
<rect width="64" height="64" fill="white"/>
</clipPath>
</defs>
</svg>
