<svg width="65" height="40" viewBox="0 0 65 40" fill="none" xmlns="http://www.w3.org/2000/svg">
<g clip-path="url(#clip0_193_424)">
<path fill-rule="evenodd" clip-rule="evenodd" d="M24.1124 12.6801C24.6349 12.3057 31.0973 11.3795 31.7985 11.2205C33.6649 10.7984 37.8574 10.2622 39.842 9.97908C40.5193 9.88282 40.1979 9.85787 40.7218 9.74521C43.6518 9.11417 54.1332 7.87136 55.4202 7.2938C55.5196 1.5161 56.1069 -0.774162 51.1772 0.228362L33.9949 3.85342C31.3474 4.41529 18.6538 6.89807 16.7672 7.47277C14.6976 8.10309 13.9251 9.26106 13.9258 11.5777L13.9359 17.2606C14.9354 17.7932 16.3968 18.134 17.5166 18.5369L24.7451 21.0175C26.0091 21.4126 27.1779 21.9416 28.2768 22.3031C29.9984 22.87 42.0528 26.8288 42.6696 27.283C42.3641 27.5561 42.0405 27.5703 41.5894 27.638C41.1571 27.7022 40.7305 27.73 40.2837 27.7807L33.2894 28.801C28.3929 29.4827 5.14733 32.7134 4.92394 32.9537C4.57372 33.5462 4.74018 36.0148 4.71856 36.926C4.61407 41.2342 7.79486 40.0491 13.1786 39.0879C15.5061 38.6722 18.0571 38.3007 20.3479 37.9742C24.8229 37.336 30.0272 36.1902 34.2896 35.6126L44.959 33.8878C48.9383 32.9865 52.4851 33.8257 52.4938 29.211L52.4743 22.6147C51.8539 22.2197 49.803 21.583 48.9793 21.2828C47.8242 20.8621 46.5451 20.4186 45.4894 20.0699C42.9442 19.2278 40.6843 18.4107 38.3488 17.6242C37.2045 17.2392 35.9067 16.7322 34.7573 16.3557C33.6267 15.9857 32.3231 15.6063 31.2148 15.1571C29.5415 14.4783 25.447 13.331 24.1131 12.6801H24.1124Z" fill="#193F64"/>
<path fill-rule="evenodd" clip-rule="evenodd" d="M61.2953 21.7976C61.1678 21.1038 60.801 20.7794 60.5293 20.1833C57.5899 13.7389 57.0531 16.5254 61.6081 12.4469C62.4987 11.649 64.809 9.97338 65 9.29529L50.3571 11.4522C49.7244 11.2675 38.1478 12.9489 36.7188 13.3688L37.603 13.8095C42.2034 15.3004 60.1647 21.7791 61.2953 21.7983V21.7976Z" fill="url(#paint0_linear_193_424)"/>
<path fill-rule="evenodd" clip-rule="evenodd" d="M3.82573 17.5521C3.90284 18.2395 6.9813 23.5837 6.9568 23.9758C6.92005 24.5634 0.362468 29.1902 0 30.197L7.49798 29.1624C8.71221 28.9735 10.0374 28.7567 11.1954 28.5991C17.023 27.8062 22.708 27.1374 28.4498 26.0429C27.8567 25.6244 20.3415 23.0817 19.7707 23.0845L18.7763 22.6368C13.8985 21.1586 8.7259 19.175 3.82573 17.5528V17.5521Z" fill="url(#paint1_linear_193_424)"/>
</g>
<defs>
<linearGradient id="paint0_linear_193_424" x1="36.7188" y1="15.5464" x2="65" y2="15.5464" gradientUnits="userSpaceOnUse">
<stop stop-color="#193F64"/>
<stop offset="1" stop-color="#197DEA"/>
</linearGradient>
<linearGradient id="paint1_linear_193_424" x1="0" y1="23.8746" x2="28.4498" y2="23.8746" gradientUnits="userSpaceOnUse">
<stop stop-color="#197DEA"/>
<stop offset="1" stop-color="#193F64"/>
</linearGradient>
<clipPath id="clip0_193_424">
<rect width="65" height="40" fill="white"/>
</clipPath>
</defs>
</svg>
