<svg width="14" height="14" viewBox="0 0 14 14" fill="none" xmlns="http://www.w3.org/2000/svg">
<path d="M13.4348 2.01891C13.4455 1.46673 13.0066 1.01043 12.4544 0.99973L3.45608 0.825434C2.9039 0.814738 2.4476 1.2537 2.4369 1.80588C2.42621 2.35806 2.86517 2.81436 3.41735 2.82506L11.4159 2.97999L11.2609 10.9785C11.2502 11.5307 11.6892 11.987 12.2414 11.9977C12.7935 12.0084 13.2499 11.5694 13.2605 11.0172L13.4348 2.01891ZM1.69328 13.7207L13.1283 2.72021L11.7417 1.27887L0.30672 12.2793L1.69328 13.7207Z" fill="#1946DA"/>
<path d="M13.4348 2.01891C13.4455 1.46673 13.0066 1.01043 12.4544 0.99973L3.45608 0.825434C2.9039 0.814738 2.4476 1.2537 2.4369 1.80588C2.42621 2.35806 2.86517 2.81436 3.41735 2.82506L11.4159 2.97999L11.2609 10.9785C11.2502 11.5307 11.6892 11.987 12.2414 11.9977C12.7935 12.0084 13.2499 11.5694 13.2605 11.0172L13.4348 2.01891ZM1.69328 13.7207L13.1283 2.72021L11.7417 1.27887L0.30672 12.2793L1.69328 13.7207Z" fill="#1946DA"/>
<path d="M13.4348 2.01891C13.4455 1.46673 13.0066 1.01043 12.4544 0.99973L3.45608 0.825434C2.9039 0.814738 2.4476 1.2537 2.4369 1.80588C2.42621 2.35806 2.86517 2.81436 3.41735 2.82506L11.4159 2.97999L11.2609 10.9785C11.2502 11.5307 11.6892 11.987 12.2414 11.9977C12.7935 12.0084 13.2499 11.5694 13.2605 11.0172L13.4348 2.01891ZM1.69328 13.7207L13.1283 2.72021L11.7417 1.27887L0.30672 12.2793L1.69328 13.7207Z" fill="#1946DA"/>
<path d="M13.4348 2.01891C13.4455 1.46673 13.0066 1.01043 12.4544 0.99973L3.45608 0.825434C2.9039 0.814738 2.4476 1.2537 2.4369 1.80588C2.42621 2.35806 2.86517 2.81436 3.41735 2.82506L11.4159 2.97999L11.2609 10.9785C11.2502 11.5307 11.6892 11.987 12.2414 11.9977C12.7935 12.0084 13.2499 11.5694 13.2605 11.0172L13.4348 2.01891ZM1.69328 13.7207L13.1283 2.72021L11.7417 1.27887L0.30672 12.2793L1.69328 13.7207Z" fill="#1946DA"/>
<path d="M13.4348 2.01891C13.4455 1.46673 13.0066 1.01043 12.4544 0.99973L3.45608 0.825434C2.9039 0.814738 2.4476 1.2537 2.4369 1.80588C2.42621 2.35806 2.86517 2.81436 3.41735 2.82506L11.4159 2.97999L11.2609 10.9785C11.2502 11.5307 11.6892 11.987 12.2414 11.9977C12.7935 12.0084 13.2499 11.5694 13.2605 11.0172L13.4348 2.01891ZM1.69328 13.7207L13.1283 2.72021L11.7417 1.27887L0.30672 12.2793L1.69328 13.7207Z" fill="#1946DA"/>
</svg>
