<svg width="64" height="64" viewBox="0 0 64 64" fill="none" xmlns="http://www.w3.org/2000/svg">
<g clip-path="url(#clip0_1599_134)">
<path d="M0 10C0 4.48 4.48 0 10 0H54C59.52 0 64 4.48 64 10V54C64 59.52 59.52 64 54 64H10C4.48 64 0 59.52 0 54V10Z" fill="white"/>
<path d="M0.5 10C0.5 4.75 4.75 0.5 10 0.5H54C59.25 0.5 63.5 4.75 63.5 10V54C63.5 59.25 59.25 63.5 54 63.5H10C4.75 63.5 0.5 59.25 0.5 54V10Z" stroke="#BAC8F4"/>
<path d="M22.66 22.3801L22.05 40.7801L23.57 42.7401L29.25 45.0801L34.9701 44.8701L40.01 43.1301L41.9001 40.9501L42.05 36.5401L41.8 24.0801L41.2901 22.1701L37.7401 19.9701L31.17 19.1001L27.76 19.5701L23.9 21.1901L22.66 22.3801Z" fill="#E3E8FA"/>
<path d="M32.05 29.0801C37.5729 29.0801 42.05 26.8415 42.05 24.0801C42.05 21.3187 37.5729 19.0801 32.05 19.0801C26.5272 19.0801 22.05 21.3187 22.05 24.0801C22.05 26.8415 26.5272 29.0801 32.05 29.0801Z" stroke="#1946DA" stroke-width="2" stroke-linecap="round" stroke-linejoin="round"/>
<path d="M22.05 24.0801V32.0801C22.05 34.8801 26.55 37.0801 32.05 37.0801C37.55 37.0801 42.05 34.8801 42.05 32.0801V24.0801" stroke="#1946DA" stroke-width="2" stroke-linecap="round" stroke-linejoin="round"/>
<path d="M22.05 32.0801V40.0801C22.05 42.8801 26.55 45.0801 32.05 45.0801C37.55 45.0801 42.05 42.8801 42.05 40.0801V32.0801" stroke="#1946DA" stroke-width="2" stroke-linecap="round" stroke-linejoin="round"/>
</g>
<defs>
<clipPath id="clip0_1599_134">
<rect width="64" height="64" fill="white"/>
</clipPath>
</defs>
</svg>
