<svg width="64" height="64" viewBox="0 0 64 64" fill="none" xmlns="http://www.w3.org/2000/svg">
<g clip-path="url(#clip0_1599_148)">
<path d="M0 10C0 4.48 4.48 0 10 0H54C59.52 0 64 4.48 64 10V54C64 59.52 59.52 64 54 64H10C4.48 64 0 59.52 0 54V10Z" fill="white"/>
<path d="M0.5 10C0.5 4.75 4.75 0.5 10 0.5H54C59.25 0.5 63.5 4.75 63.5 10V54C63.5 59.25 59.25 63.5 54 63.5H10C4.75 63.5 0.5 59.25 0.5 54V10Z" stroke="#BAC8F4"/>
<path d="M42.27 25.3501C50.74 25.3501 50.74 38.6501 42.27 38.6501C33.8 38.6501 30.42 25.3501 21.1 25.3501C13.48 25.3501 13.48 38.6501 21.1 38.6501C30.42 38.6501 33.8 25.3501 42.27 25.3501Z" stroke="#1946DA" stroke-width="2" stroke-linecap="round" stroke-linejoin="round"/>
</g>
<defs>
<clipPath id="clip0_1599_148">
<rect width="64" height="64" fill="white"/>
</clipPath>
</defs>
</svg>
