<svg width="64" height="64" viewBox="0 0 64 64" fill="none" xmlns="http://www.w3.org/2000/svg">
<g clip-path="url(#clip0_1583_23)">
<path d="M0 10C0 4.48 4.48 0 10 0H54C59.52 0 64 4.48 64 10V54C64 59.52 59.52 64 54 64H10C4.48 64 0 59.52 0 54V10Z" fill="white"/>
<path d="M0.5 10C0.5 4.75 4.75 0.5 10 0.5H54C59.25 0.5 63.5 4.75 63.5 10V54C63.5 59.25 59.25 63.5 54 63.5H10C4.75 63.5 0.5 59.25 0.5 54V10Z" stroke="#BAC8F4"/>
<path d="M46.88 24.87L45.61 22.68C44.91 21.47 43.36 21.06 42.15 21.75L41.48 22.13C38.95 23.59 35.79 21.76 35.79 18.84V18.07C35.79 16.67 34.66 15.54 33.26 15.54H30.73C29.33 15.54 28.2 16.67 28.2 18.07V18.84C28.2 21.76 25.04 23.59 22.51 22.13L21.84 21.75C20.63 21.05 19.08 21.47 18.38 22.68L17.11 24.87C16.41 26.08 16.83 27.63 18.04 28.33L18.71 28.71C21.24 30.17 21.24 33.82 18.71 35.28L18.04 35.66C16.83 36.36 16.42 37.91 17.11 39.12L18.38 41.31C19.08 42.52 20.63 42.93 21.84 42.24L22.51 41.86C25.04 40.4 28.2 42.23 28.2 45.15V45.92C28.2 47.32 29.33 48.45 30.73 48.45H33.26C34.66 48.45 35.79 47.32 35.79 45.92V45.15C35.79 42.23 38.95 40.4 41.48 41.86L42.15 42.24C43.36 42.94 44.91 42.52 45.61 41.31L46.88 39.12C47.58 37.91 47.16 36.36 45.95 35.66L45.28 35.28C42.75 33.82 42.75 30.17 45.28 28.71L45.95 28.33C47.16 27.63 47.58 26.08 46.88 24.87Z" fill="#E3E8FA" stroke="#1946DA" stroke-width="2" stroke-linecap="round" stroke-linejoin="round"/>
<path d="M31.9999 37.0599C34.7945 37.0599 37.0599 34.7945 37.0599 31.9999C37.0599 29.2054 34.7945 26.9399 31.9999 26.9399C29.2054 26.9399 26.9399 29.2054 26.9399 31.9999C26.9399 34.7945 29.2054 37.0599 31.9999 37.0599Z" stroke="#1946DA" stroke-width="2" stroke-linecap="round" stroke-linejoin="round"/>
</g>
<defs>
<clipPath id="clip0_1583_23">
<rect width="64" height="64" fill="white"/>
</clipPath>
</defs>
</svg>
