<svg width="64" height="64" viewBox="0 0 64 64" fill="none" xmlns="http://www.w3.org/2000/svg">
<g clip-path="url(#clip0_1583_44)">
<path d="M0 10C0 4.48 4.48 0 10 0H54C59.52 0 64 4.48 64 10V54C64 59.52 59.52 64 54 64H10C4.48 64 0 59.52 0 54V10Z" fill="white"/>
<path d="M0.5 10C0.5 4.75 4.75 0.5 10 0.5H54C59.25 0.5 63.5 4.75 63.5 10V54C63.5 59.25 59.25 63.5 54 63.5H10C4.75 63.5 0.5 59.25 0.5 54V10Z" stroke="#BAC8F4"/>
<path d="M14.9758 30.9718L16.9698 29.8154H19.592L20.6118 30.7259V38.9205V40.7779L17.7983 40.9691L15.1488 40.7415L14.2383 38.9205L13.3278 35.2785L14.2383 31.6364L14.9758 30.9718Z" fill="#E3E8FA"/>
<path d="M43.1105 30.0708H45.5324L47.0165 30.7264C47.0165 30.7264 48.182 30.8994 48.5098 31.2727C48.8375 31.646 48.8375 33.4579 48.8375 33.4579V38.9209C48.8375 39.8314 47.927 40.7419 47.927 40.7419L45.8056 40.9696L43.3745 40.7419H42.464V30.7264L43.1013 30.0708H43.1105Z" fill="#E3E8FA"/>
<path d="M50.0576 33.2936C50.0576 31.1631 48.3277 29.4331 46.1971 29.4331H44.6492V27.1204C44.6492 19.8819 38.7582 14 31.5288 14C24.2994 14 18.4084 19.891 18.4084 27.1204V29.4331H16.8605C14.73 29.4331 13 31.1631 13 33.2936V37.9281C13 40.0587 14.73 41.7887 16.8605 41.7887H21.495V29.4331H19.9472V27.1204C19.9472 20.7377 25.1462 15.5388 31.5288 15.5388C37.9115 15.5388 43.1105 20.7377 43.1105 27.1204V29.4331H41.5626V41.7887H43.1105V45.6492C43.1105 46.9239 42.0725 47.9619 40.7978 47.9619H33.0767V49.5098H40.7978C42.9284 49.5098 44.6583 47.7798 44.6583 45.6492V41.7887H46.2062C48.3368 41.7887 50.0667 40.0587 50.0667 37.9281V33.2936H50.0576ZM19.9472 40.2408H16.8605C15.5858 40.2408 14.5479 39.2028 14.5479 37.9281V33.2936C14.5479 32.0189 15.5858 30.981 16.8605 30.981H19.9472V40.2408ZM48.5098 37.9281C48.5098 39.2028 47.4718 40.2408 46.1971 40.2408H43.1105V30.981H46.1971C47.4718 30.981 48.5098 32.0189 48.5098 33.2936V37.9281Z" fill="#1946DA"/>
</g>
<defs>
<clipPath id="clip0_1583_44">
<rect width="64" height="64" fill="white"/>
</clipPath>
</defs>
</svg>
