<svg width="64" height="64" viewBox="0 0 64 64" fill="none" xmlns="http://www.w3.org/2000/svg">
<g clip-path="url(#clip0_1582_6)">
<path d="M0 10C0 4.48 4.48 0 10 0H54C59.52 0 64 4.48 64 10V54C64 59.52 59.52 64 54 64H10C4.48 64 0 59.52 0 54V10Z" fill="white"/>
<path d="M0.5 10C0.5 4.75 4.75 0.5 10 0.5H54C59.25 0.5 63.5 4.75 63.5 10V54C63.5 59.25 59.25 63.5 54 63.5H10C4.75 63.5 0.5 59.25 0.5 54V10Z" stroke="#BAC8F4"/>
<path fill-rule="evenodd" clip-rule="evenodd" d="M17.62 25.1L19.75 20.73L22.16 18.99L25.46 17.05L31.99 16.76L35.24 17.32L38.63 18.99L39.75 19.73L30.42 30.44L30.75 44.73L24.75 43.73L19.75 39.73C19.75 39.73 17.34 35.54 17.04 35.63C16.74 35.72 15.75 29.73 15.75 29.73L17.75 24.73" fill="#E3E8FA"/>
<path fill-rule="evenodd" clip-rule="evenodd" d="M30.41 45.37C22.17 45.37 15.48 38.68 15.48 30.44C15.48 22.2 22.17 15.51 30.41 15.51C34.01 15.51 37.51 16.83 40.24 19.19C40.57 19.46 40.59 19.96 40.32 20.29L31.19 30.74V44.61C31.19 45.04 30.84 45.38 30.42 45.38L30.41 45.37ZM30.41 17.05C23.02 17.05 17.04 23.05 17.04 30.44C17.04 37.83 22.61 43.4 29.65 43.81V30.44C29.65 30.25 29.73 30.05 29.84 29.92L38.62 19.86C36.26 18.06 33.38 17.06 30.4 17.06L30.41 17.05Z" fill="#1946DA"/>
<path fill-rule="evenodd" clip-rule="evenodd" d="M33.75 33.73H47.75V36.73L46.75 38.73L44.75 42.73L41.75 44.73L39.75 46.4L37.08 46.91L34.75 47.73L33.75 47.31L33.34 34.13L33.75 33.73Z" fill="#E3E8FA"/>
<path fill-rule="evenodd" clip-rule="evenodd" d="M33.57 48.5C33.13 48.5 32.78 48.15 32.78 47.73V33.57C32.78 33.14 33.13 32.8 33.57 32.8H47.71C48.15 32.8 48.5 33.15 48.5 33.57C48.5 41.79 41.77 48.5 33.57 48.5ZM34.34 34.3601V46.91C41.11 46.54 46.53 41.09 46.93 34.32H34.34V34.3601Z" fill="#1946DA"/>
<path fill-rule="evenodd" clip-rule="evenodd" d="M33.75 29.73L42.75 19.73L44.75 21.73L47.05 25.25L47.75 28.73V30.43L34.34 30.74L33.34 30.73L33.75 29.73Z" fill="#E3E8FA"/>
<path fill-rule="evenodd" clip-rule="evenodd" d="M47.71 31.21H33.57C33.26 31.21 32.97 31.02 32.85 30.75C32.71 30.5 32.77 30.17 32.99 29.92L42.29 19.26C42.56 18.93 43.06 18.91 43.39 19.18C43.58 19.33 43.76 19.51 43.93 19.66C44.1 19.85 44.32 20.07 44.51 20.24C47.08 23.01 48.51 26.64 48.51 30.4C48.49 30.86 48.14 31.21 47.7 31.21H47.71ZM35.25 29.64H46.91C46.72 26.53 45.48 23.6 43.35 21.32C43.21 21.17 43.06 21.03 42.92 20.86L35.24 29.64H35.25Z" fill="#1946DA"/>
</g>
<defs>
<clipPath id="clip0_1582_6">
<rect width="64" height="64" fill="white"/>
</clipPath>
</defs>
</svg>
