<svg width="64" height="64" viewBox="0 0 64 64" fill="none" xmlns="http://www.w3.org/2000/svg">
<g clip-path="url(#clip0_1599_60)">
<path d="M0 10C0 4.48 4.48 0 10 0H54C59.52 0 64 4.48 64 10V54C64 59.52 59.52 64 54 64H10C4.48 64 0 59.52 0 54V10Z" fill="white"/>
<path d="M0.5 10C0.5 4.75 4.75 0.5 10 0.5H54C59.25 0.5 63.5 4.75 63.5 10V54C63.5 59.25 59.25 63.5 54 63.5H10C4.75 63.5 0.5 59.25 0.5 54V10Z" stroke="#BAC8F4"/>
<path d="M41 32H35L42 19H30L23 32H29L23 45L41 32Z" fill="#E3E8FA" stroke="#1946DA" stroke-width="1.5" stroke-linecap="round" stroke-linejoin="round"/>
</g>
<defs>
<clipPath id="clip0_1599_60">
<rect width="64" height="64" fill="white"/>
</clipPath>
</defs>
</svg>
