<svg width="64" height="64" viewBox="0 0 64 64" fill="none" xmlns="http://www.w3.org/2000/svg">
<g clip-path="url(#clip0_1599_71)">
<path d="M0 10C0 4.48 4.48 0 10 0H54C59.52 0 64 4.48 64 10V54C64 59.52 59.52 64 54 64H10C4.48 64 0 59.52 0 54V10Z" fill="white"/>
<path d="M0.5 10C0.5 4.75 4.75 0.5 10 0.5H54C59.25 0.5 63.5 4.75 63.5 10V54C63.5 59.25 59.25 63.5 54 63.5H10C4.75 63.5 0.5 59.25 0.5 54V10Z" stroke="#BAC8F4"/>
<path d="M32.92 21.627L41.92 17.627L46.92 27.627L36.92 31.627L32.95 23.727L31.92 21.627H32.92Z" fill="#E3E8FA"/>
<path d="M17.92 34.627L29.11 34.817V46.467L17.92 46.627L17.61 34.877L17.92 34.627Z" fill="#E3E8FA"/>
<path d="M43.92 34.627L32.12 34.797L32.28 46.627H43.92V34.627Z" fill="#E3E8FA"/>
<path d="M17.92 20.627H29.11V32.017L17.61 32.117V20.627H17.92Z" fill="#E3E8FA"/>
<path d="M29.24 34.4766H17.52C17.23 34.4766 17 34.7066 17 34.9966V46.7166C17 47.0066 17.23 47.2366 17.52 47.2366H29.24C29.53 47.2366 29.76 47.0066 29.76 46.7166V34.9966C29.76 34.7066 29.53 34.4766 29.24 34.4766ZM28.72 46.1966H18.04V35.5166H28.72V46.1966Z" fill="#1946DA"/>
<path d="M29.24 19.8267H17.52C17.23 19.8267 17 20.0567 17 20.3467V32.0667C17 32.3567 17.23 32.5867 17.52 32.5867H29.24C29.53 32.5867 29.76 32.3567 29.76 32.0667V20.3467C29.76 20.0567 29.53 19.8267 29.24 19.8267ZM28.72 31.5467H18.04V20.8667H28.72V31.5467Z" fill="#1946DA"/>
<path d="M43.88 34.4766H32.16C31.87 34.4766 31.64 34.7066 31.64 34.9966V46.7166C31.64 47.0066 31.87 47.2366 32.16 47.2366H43.88C44.17 47.2366 44.4 47.0066 44.4 46.7166V34.9966C44.4 34.7066 44.17 34.4766 43.88 34.4766ZM43.36 46.1966H32.68V35.5166H43.36V46.1966Z" fill="#1946DA"/>
<path d="M47.2 27.2667L42.7 17.2967C42.58 17.0467 42.29 16.9367 42.03 17.0367L32.04 21.5367C31.78 21.6567 31.66 21.9667 31.78 22.2267L36.3 32.1967C36.42 32.4567 36.73 32.5767 36.99 32.4567L46.95 27.9367C47.2 27.8167 47.32 27.5267 47.21 27.2667H47.2ZM37.01 31.2867L32.94 22.2667L41.96 18.1967L46.03 27.2167L37.01 31.2867Z" fill="#1946DA"/>
</g>
<defs>
<clipPath id="clip0_1599_71">
<rect width="64" height="64" fill="white"/>
</clipPath>
</defs>
</svg>
