<svg width="64" height="64" viewBox="0 0 64 64" fill="none" xmlns="http://www.w3.org/2000/svg">
<g clip-path="url(#clip0_1599_84)">
<path d="M0 10C0 4.48 4.48 0 10 0H54C59.52 0 64 4.48 64 10V54C64 59.52 59.52 64 54 64H10C4.48 64 0 59.52 0 54V10Z" fill="white"/>
<path d="M0.5 10C0.5 4.75 4.75 0.5 10 0.5H54C59.25 0.5 63.5 4.75 63.5 10V54C63.5 59.25 59.25 63.5 54 63.5H10C4.75 63.5 0.5 59.25 0.5 54V10Z" stroke="#BAC8F4"/>
<path d="M19.1726 21.9H23.8226H26.3826L27.4626 22.04L28.4626 21.04V20.04V19.31L26.4626 18.04V17.04L27.4626 16.04H29.4626H31.4626H33.2926L34.4626 17.04V18.04L33.4626 19.04L32.4626 20.04V21.04L33.4626 22.04H35.4626H42.4626V30.04V31.04L43.4626 32.04H44.4626L45.4626 31.04L46.4626 30.04H47.4626L48.4626 31.04V33.04V34.04V35.04V36.21L47.4626 38.04L45.4626 37.04V36.04H44.4626H43.4626L42.4626 37.04V39.04V43.04V45.04L40.4626 46.04H35.4626L33.8226 45.62L32.5226 45.07L32.4626 45.04V44.04V43.04L33.7026 42.32L34.4626 42.04V41.04L33.8226 40.25L30.4626 39.04L28.4626 40.04L26.4626 41.04V42.04L28.4626 43.04V44.04L27.9726 45.07L26.4626 46.04L19.1726 45.57L18.4626 45.04V37.04L19.4626 36.04H20.4626H21.4626L22.4626 38.04H23.4626L24.4626 36.04V34.04V32.04V31.04L23.4626 30.04H22.4626L21.6726 31.04L20.4626 32.04H19.4626L18.3126 30.62V23.63L18.4626 22.04L19.1726 21.9Z" fill="#E3E8FA"/>
<path d="M46.8526 29.11C46.4326 29.11 45.8226 29.28 45.2726 30.07C45.2526 30.1 45.2326 30.14 45.2126 30.18C44.9126 30.92 44.2926 31.37 43.8926 31.37C43.5626 31.37 43.1826 30.99 42.8926 30.37V21.91C42.8926 21.59 42.6326 21.33 42.3126 21.33H33.9126C33.2326 21.03 32.8126 20.64 32.8126 20.29C32.8126 19.96 33.1926 19.59 33.8126 19.29C33.8826 19.28 33.9426 19.25 34.0026 19.21C34.7226 18.76 35.1126 18.17 35.1126 17.53C35.1126 16.09 33.1026 15 30.4426 15C27.7826 15 25.7726 16.09 25.7726 17.53C25.7726 17.92 25.9226 18.49 26.6026 19.01C26.6626 19.11 26.7626 19.19 26.8726 19.24C27.6126 19.54 28.0826 19.96 28.0826 20.32C28.0826 20.65 27.7026 21.02 27.0726 21.32H18.5826C18.2626 21.32 18.0026 21.58 18.0026 21.9V30.47C18.0026 30.56 18.0026 30.65 18.0526 30.74C18.5626 31.9 19.3026 32.54 20.1526 32.54C21.0026 32.54 21.7526 31.89 22.2526 30.74C22.2526 30.74 22.2526 30.74 22.2526 30.73C22.4726 30.39 22.7126 30.2 22.9226 30.2C23.4826 30.2 24.3026 31.57 24.3026 33.72C24.3026 35.87 23.4826 37.24 22.9226 37.24C22.7226 37.24 22.4926 37.06 22.2826 36.76C21.7726 35.61 21.0326 34.97 20.1926 34.97C19.3526 34.97 18.5426 35.67 18.0426 36.89C18.0126 36.97 17.9926 37.06 18.0026 37.15V45.63C18.0026 45.95 18.2626 46.21 18.5826 46.21H27.2026C27.2826 46.21 27.3626 46.19 27.4326 46.16C28.5926 45.65 29.2426 44.91 29.2426 44.06C29.2426 43.21 28.6126 42.49 27.5026 41.99C27.4826 41.97 27.4626 41.95 27.4326 41.94C27.2426 41.81 26.9326 41.56 26.9326 41.29C26.9326 40.73 28.3026 39.91 30.4526 39.91C32.6026 39.91 33.9726 40.73 33.9726 41.29C33.9726 41.48 33.8126 41.7 33.5426 41.9C33.5226 41.9 33.5026 41.91 33.4726 41.92C32.3126 42.43 31.6726 43.17 31.6726 44.02C31.6726 44.87 32.3526 45.67 33.5926 46.17C33.6626 46.2 33.7326 46.21 33.8126 46.21H42.3226C42.6426 46.21 42.9026 45.95 42.9026 45.63V37.2C43.2026 36.52 43.5926 36.1 43.9426 36.1C44.2326 36.1 44.8226 36.51 45.1626 37.29C45.1826 37.33 45.2026 37.37 45.2226 37.41C45.6626 38.08 46.2426 38.45 46.8526 38.45C48.2926 38.45 49.3826 36.44 49.3826 33.78C49.3826 31.12 48.2926 29.11 46.8526 29.11ZM46.8526 37.3C46.6526 37.3 46.4226 37.13 46.2226 36.83C45.7326 35.73 44.8026 34.96 43.9426 34.96C43.0826 34.96 42.2926 35.66 41.7926 36.88C41.7626 36.95 41.7526 37.02 41.7526 37.1V45.07H33.9326C33.2526 44.77 32.8326 44.38 32.8326 44.03C32.8326 43.71 33.2026 43.34 33.8026 43.05C33.8826 43.04 33.9626 43.01 34.0326 42.97C34.7426 42.52 35.1326 41.93 35.1326 41.3C35.1326 39.86 33.1226 38.77 30.4626 38.77C27.8026 38.77 25.7926 39.86 25.7926 41.3C25.7926 41.7 25.9426 42.27 26.6426 42.8C26.7026 42.89 26.7926 42.96 26.8926 43C27.6326 43.3 28.0926 43.72 28.0926 44.08C28.0926 44.41 27.7126 44.78 27.0826 45.08H19.1626V37.26C19.4626 36.58 19.8526 36.16 20.2026 36.16C20.5526 36.16 20.9226 36.56 21.2226 37.21C21.2426 37.26 21.2626 37.31 21.2926 37.36C21.7426 38.05 22.3226 38.43 22.9426 38.43C24.3826 38.43 25.4726 36.42 25.4726 33.76C25.4726 31.1 24.3826 29.09 22.9426 29.09C22.3626 29.09 21.8126 29.42 21.3826 30.02C21.3226 30.08 21.2726 30.14 21.2426 30.22C20.9426 30.96 20.5226 31.42 20.1626 31.42C19.8326 31.42 19.4626 31.04 19.1626 30.42V22.5H27.2026C27.2826 22.5 27.3626 22.48 27.4326 22.45C28.5926 21.94 29.2426 21.2 29.2426 20.35C29.2426 19.5 28.6226 18.79 27.5426 18.29C27.5126 18.26 27.4826 18.24 27.4526 18.21C27.1226 17.99 26.9426 17.75 26.9426 17.55C26.9426 16.99 28.3126 16.17 30.4526 16.17C32.5926 16.17 33.9726 16.99 33.9726 17.55C33.9726 17.75 33.8026 17.98 33.5026 18.18C33.5026 18.18 33.4826 18.18 33.4726 18.19C32.3126 18.7 31.6726 19.44 31.6726 20.29C31.6726 21.14 32.3726 21.95 33.5926 22.44C33.6626 22.47 33.7326 22.48 33.8126 22.48H41.7426V30.48C41.7426 30.56 41.7626 30.64 41.7926 30.71C42.3026 31.87 43.0426 32.51 43.8926 32.51C44.8226 32.51 45.7826 31.75 46.2526 30.67C46.3826 30.49 46.6026 30.25 46.8526 30.25C47.4126 30.25 48.2326 31.62 48.2326 33.77C48.2326 35.92 47.4126 37.29 46.8526 37.29V37.3Z" fill="#1946DA"/>
</g>
<defs>
<clipPath id="clip0_1599_84">
<rect width="64" height="64" fill="white"/>
</clipPath>
</defs>
</svg>
