<svg width="149" height="27" viewBox="0 0 149 27" fill="none" xmlns="http://www.w3.org/2000/svg">
<g clip-path="url(#clip0_193_428)">
<path d="M21.6995 22.8463H31.4987V13.1539C28.8998 13.1539 26.4073 14.1751 24.5696 15.9928C22.7319 17.8104 21.6995 20.2756 21.6995 22.8463Z" fill="#7557D3"/>
<path d="M10.8497 13.1539V22.8463H20.6489C20.6489 21.5731 20.3954 20.3125 19.9029 19.1363C19.4105 17.9603 18.6885 16.8916 17.7786 15.9915C16.8686 15.0915 15.7883 14.3777 14.5995 13.8908C13.4105 13.4039 12.1364 13.1535 10.8497 13.1539Z" fill="#7557D3"/>
<path d="M0 13.1538C-7.25916e-08 14.427 0.253496 15.6875 0.745991 16.8637C1.23849 18.0398 1.96031 19.1084 2.87029 20.0084C3.78027 20.9085 4.86055 21.6224 6.04942 22.1093C7.2383 22.5962 8.51248 22.8466 9.79918 22.8461V13.1538H0Z" fill="#7557D3"/>
<path d="M88.0285 4.15393L83.4495 16.5825L78.9097 4.15393H74.8932L81.5099 21.4065L79.4461 27.0001H83.2892L92.0417 4.15393H88.0285Z" fill="black"/>
<path d="M147.165 4.15382C147.437 4.15422 147.704 4.21595 147.942 4.33309C148.188 4.44991 148.39 4.62703 148.525 4.84305C148.664 5.05381 148.737 5.29319 148.737 5.53691C148.737 5.78065 148.664 6.02003 148.525 6.23079C148.391 6.44595 148.19 6.62291 147.946 6.74077C147.706 6.86024 147.435 6.92304 147.16 6.92304C146.884 6.92304 146.614 6.86024 146.375 6.74077C146.131 6.62209 145.93 6.44533 145.795 6.23079C145.658 6.01988 145.587 5.7812 145.588 5.53847C145.589 5.29453 145.662 5.05495 145.798 4.84305C145.934 4.62616 146.137 4.44884 146.385 4.33309C146.623 4.21478 146.892 4.153 147.165 4.15382ZM147.165 4.42581C146.948 4.42559 146.733 4.47455 146.543 4.56799C146.345 4.66261 146.182 4.80525 146.072 4.97904C145.962 5.14942 145.903 5.34208 145.901 5.53847C145.901 5.73368 145.959 5.92547 146.069 6.09479C146.178 6.26775 146.34 6.41023 146.536 6.50587C146.729 6.60295 146.946 6.65405 147.168 6.65405C147.388 6.65405 147.606 6.60295 147.798 6.50587C147.993 6.40931 148.155 6.26705 148.265 6.09479C148.376 5.92547 148.434 5.73368 148.434 5.53847C148.432 5.34208 148.372 5.14942 148.262 4.97904C148.158 4.80353 147.999 4.65769 147.805 4.5587C147.608 4.46644 147.388 4.42064 147.165 4.42581ZM146.462 6.28025V4.81214H147.337C147.428 4.814 147.517 4.83409 147.598 4.87087C147.664 4.90399 147.718 4.95202 147.756 5.00996C147.798 5.07489 147.819 5.14847 147.819 5.22322C147.821 5.32413 147.778 5.42175 147.7 5.49521C147.611 5.57371 147.494 5.62284 147.369 5.63427C147.411 5.64621 147.451 5.66509 147.485 5.6899C147.527 5.72314 147.565 5.76049 147.598 5.80119C147.598 5.81665 147.65 5.87536 147.72 5.98043L147.917 6.28952H147.499L147.359 6.05153C147.303 5.93686 147.225 5.83209 147.127 5.74246C147.057 5.70008 146.975 5.67841 146.891 5.68064H146.804V6.2988L146.462 6.28025ZM146.814 5.44574H146.952C147.069 5.44963 147.186 5.44342 147.302 5.4272C147.347 5.41378 147.386 5.38906 147.414 5.35613C147.441 5.32216 147.453 5.28239 147.453 5.24177C147.455 5.20285 147.442 5.16456 147.414 5.13358C147.386 5.10019 147.345 5.07626 147.298 5.0656C147.184 5.04603 147.065 5.03876 146.947 5.04395H146.81L146.814 5.44574Z" fill="black"/>
<path d="M140.28 4.20514V6.5417C139.508 5.66851 138.546 4.97045 137.461 4.49758C136.377 4.02471 135.196 3.78874 134.007 3.80661C128.976 3.80661 125.29 7.80478 125.29 12.8057C125.29 17.8066 128.962 21.8048 134.007 21.8048C135.195 21.822 136.374 21.5871 137.458 21.1166C138.542 20.6461 139.505 19.9517 140.28 19.0826V21.403H144.189V4.20514H140.28ZM134.785 18.4173C131.647 18.4173 129.269 15.9297 129.269 12.7961C129.269 9.66244 131.606 7.17484 134.785 7.17484C137.963 7.17484 140.28 9.6785 140.28 12.7961C140.28 15.9136 137.919 18.4173 134.785 18.4173Z" fill="black"/>
<path d="M100.247 3.80659C101.415 3.78891 102.573 4.02535 103.637 4.4989C104.701 4.97246 105.645 5.67136 106.4 6.54539V4.20519H110.241V21.4063H106.4V19.0853C105.641 19.9532 104.696 20.6467 103.632 21.1167C102.569 21.5866 101.413 21.8215 100.247 21.8049C95.3095 21.8049 91.6921 17.822 91.6921 12.8041C91.6921 7.7862 95.3095 3.80659 100.247 3.80659ZM101.007 18.42C104.084 18.42 106.4 15.9318 106.4 12.7977C106.4 9.66348 104.107 7.17543 101.007 7.17543C97.9077 7.17543 95.5978 9.67956 95.5978 12.7977C95.5978 15.9158 97.9307 18.42 101.007 18.42Z" fill="black"/>
<path d="M74.1952 10.8188V21.4595H70.3611V11.1413C70.3611 8.81001 68.7648 7.18165 66.452 7.18165C64.0643 7.18165 61.9469 9.14536 61.9469 11.9571V21.4595H58.0964V4.2055H61.9469V6.5013C62.5507 5.66934 63.3454 4.99116 64.2656 4.52253C65.1859 4.0539 66.2055 3.80821 67.2404 3.80566C71.4263 3.80566 74.1952 6.56901 74.1952 10.8188Z" fill="black"/>
<path d="M46.8421 18.6878C49.3097 18.6878 51.0591 17.8232 52.7723 16.1646L54.8478 18.1414C52.9271 20.2949 50.5123 21.8057 46.8916 21.8057C41.0239 21.8057 37.0967 17.8232 37.0967 12.8057C37.0967 7.78816 41.1457 3.80566 46.5521 3.80566C51.8729 3.80566 55.6451 7.7046 55.6451 12.465C55.6434 12.9665 55.587 13.4665 55.4771 13.9564H41.0437C41.4193 16.6982 43.732 18.6878 46.8421 18.6878ZM41.1655 11.0892H51.6192C51.1283 8.68495 49.1549 6.94282 46.5357 6.94282C45.2946 6.95029 44.0919 7.3625 43.1188 8.11387C42.1456 8.86525 41.4582 9.91259 41.1655 11.0892Z" fill="black"/>
<path d="M21.6995 2.42139C21.6995 4.99194 22.7319 7.45724 24.5696 9.2749C26.4073 11.0925 28.8998 12.1137 31.4987 12.1137V2.42139H21.6995Z" fill="#7557D3"/>
<path d="M10.8497 12.1137C12.1364 12.1141 13.4105 11.8637 14.5995 11.3768C15.7883 10.89 16.8686 10.1761 17.7786 9.27605C18.6885 8.37599 19.4105 7.30737 19.9029 6.13124C20.3954 4.9551 20.6489 3.69447 20.6489 2.42139H10.8497V12.1137Z" fill="#7557D3"/>
<path d="M0 12.1137H9.79918V2.42139C8.51248 2.42096 7.2383 2.67135 6.04942 3.15824C4.86055 3.64514 3.78027 4.35899 2.87029 5.25904C1.96031 6.1591 1.23849 7.22774 0.745991 8.40387C0.253496 9.58001 -7.25915e-08 10.8406 0 12.1137Z" fill="#7557D3"/>
<path d="M124.24 18.9193V18.4865H122.599C120.394 18.4865 119.547 17.5689 119.547 15.653V7.4663H124.02V4.13215H119.56V0H115.701V4.13538H112.341V7.46954H115.712V15.8243C115.712 19.8563 117.742 21.8077 121.434 21.8077C121.545 21.8077 121.66 21.8077 121.763 21.8077H124.236V18.9226L124.24 18.9193Z" fill="black"/>
</g>
<defs>
<clipPath id="clip0_193_428">
<rect width="149" height="27" fill="white"/>
</clipPath>
</defs>
</svg>
