<svg width="179" height="168" viewBox="0 0 179 168" fill="none" xmlns="http://www.w3.org/2000/svg">
<path id="Union" opacity="0.1" fill-rule="evenodd" clip-rule="evenodd" d="M149.178 10C149.178 4.47715 144.701 0 139.178 0H80.8219C75.2991 0 70.8219 4.47714 70.8219 9.99999V60.8219C70.8219 66.3448 66.3448 70.8219 60.8219 70.8219H10C4.47715 70.8219 1.95702e-07 75.2991 4.37114e-07 80.8219L2.98794e-06 139.178C3.22935e-06 144.701 4.47714 149.178 9.99999 149.178H60.8219C66.3448 149.178 70.8219 153.655 70.8219 159.178V210C70.8219 215.523 75.2991 220 80.8219 220H139.178C144.701 220 149.178 215.523 149.178 210V159.178C149.178 153.655 153.655 149.178 159.178 149.178H210C215.523 149.178 220 144.701 220 139.178V80.8219C220 75.2991 215.523 70.8219 210 70.8219H159.178C153.655 70.8219 149.178 66.3448 149.178 60.8219V10Z" fill="#1946DA"/>
</svg>
