<?xml version="1.0" encoding="utf-8"?>
<!-- Generator: Adobe Illustrator 21.0.2, SVG Export Plug-In . SVG Version: 6.00 Build 0)  -->
<svg version="1.1" id="Laag_1" xmlns="http://www.w3.org/2000/svg" xmlns:xlink="http://www.w3.org/1999/xlink" x="0px" y="0px"
	 width="200px" height="25px" viewBox="0 0 200 25" style="enable-background:new 0 0 200 25;" xml:space="preserve">
<path style="fill:#C5C6C6;" d="M129,7.7c-4.4,0-5,1.3-5,3.3v8.6h-2.3v-9.1c0-2.4,1.4-4.6,5.6-4.6h5.4c4.3,0,5.6,2.1,5.6,4.6v9.1
	h-2.3V11c0-2-0.6-3.3-5-3.3H129z"/>
<path style="fill:#C5C6C6;" d="M158.7,0.4h-2.3v6.3c-1.1-0.6-2.7-0.8-4.9-0.8h-3c-5.5,0-7.2,1.5-7.2,5.9v2.4c0,4.7,2.9,5.7,7,5.7
	h3.2c4.1,0,7-1,7-5.7v-1.5v0V0.4z M156.4,14.1c0,2.6-0.8,3.9-4.5,3.9h-3.7c-3.7,0-4.5-1.2-4.5-3.9v-2.7c0-3.1,1.6-3.7,4.7-3.7h3.3
	c3.1,0,4.7,0.6,4.7,3.7V14.1z"/>
<path style="fill:#C5C6C6;" d="M111.2,5.8h-3.6c-4.1,0-5.6,1-5.6,3.5V10h2.3V9.5c0-1.1,0.6-1.8,3.4-1.8h3.3c3.5,0,5,0.3,5,2.8v0.9
	h-8.5c-4,0-6.1,0.4-6.1,3.4v0.9c0,2.5,0.9,4.1,4.3,4.1h8.3c3.4,0,4.3-1.5,4.3-4.1v-5.2C118.3,6.5,115.5,5.8,111.2,5.8 M116.1,15.3
	v0.4c0,1.5-0.5,2.1-3.7,2.1h-5.1c-3.1,0-3.7-0.6-3.7-2.1v-0.4c0-1.7,0.8-2.1,3.8-2.1h8.6V15.3z"/>
<path d="M70.7,7.7c-4.4,0-5,1.3-5,3.3v8.6h-2.3v-9.1c0-2.4,1.4-4.6,5.6-4.6h5.4c4.3,0,5.6,2.1,5.6,4.6v9.1h-2.3V11
	c0-2-0.6-3.3-5-3.3H70.7z"/>
<path d="M31.2,5.8h-3c-2.2,0-3.8,0.3-4.9,0.8V0.4h-2.3v12.2v0v1.5c0,4.7,2.9,5.7,7,5.7h3.2c4.1,0,7-1,7-5.7v-2.4
	C38.4,7.4,36.7,5.8,31.2,5.8 M36.1,14.1c0,2.6-0.8,3.9-4.5,3.9h-3.7c-3.7,0-4.5-1.2-4.5-3.9v-2.7c0-3.1,1.6-3.7,4.7-3.7h3.3
	c3.1,0,4.7,0.6,4.7,3.7V14.1z"/>
<path d="M97.3,6.1l-5.9,12l-6.5-12h-2.6l8,14.3c-1.1,2.2-1.9,2.4-5.2,2.4v1.9c4.7-0.1,5.6-0.6,7.1-3.4l7.6-15.2H97.3z"/>
<path d="M0.2,11.3c0-4.9,3.4-5.5,6.6-5.5h3.7c4.1,0,7,1,7,5.9v1.5h-15v0.8c0,3.1,1.5,3.9,5.5,3.9h3.1c2.9,0,4-0.4,4.2-2.4h2.3v0.3
	c0,3.1-2.6,4-6.8,4H6.6c-3,0-6.4-0.6-6.4-5.5V11.3z M15.2,10.5c0-1.4-1-2.8-4.7-2.8H7.2c-3.6,0-4.5,0.6-4.7,3.7h12.7V10.5z"/>
<path d="M41.8,11.3c0-4.5,3.2-5.5,7.5-5.5h3.3c4.3,0,7.5,1,7.5,5.5v3c0,4.5-3.2,5.5-7.5,5.5h-3.3c-4.3,0-7.5-1-7.5-5.5V11.3z
	 M57.7,11.5c0-3.2-1.9-3.8-4.5-3.8h-4.6c-2.6,0-4.5,0.6-4.5,3.8v2.7c0,3.2,1.9,3.8,4.5,3.8h4.6c2.7,0,4.5-0.6,4.5-3.8V11.5z"/>
<path d="M161.9,11.3c0-4.9,3.5-5.5,6.8-5.5h3.8c4.2,0,5.9,1.7,5.9,4.6v0.4h-2.1v-0.3c0-2.3-1.5-2.8-3.8-2.8h-4.2
	c-2.1,0-4.2,0.3-4.2,3.7v2.8c0,3,1.9,3.7,4.6,3.7h3.8c2.1,0,3.9-0.6,3.9-2.8v-0.4h2.1V15c0,3.4-1.7,4.7-5.9,4.7h-5.1
	c-2,0-5.7-0.6-5.7-5.5V11.3z"/>
<path d="M181.6,11.3c0-4.5,3.2-5.5,7.5-5.5h3.3c4.3,0,7.5,1,7.5,5.5v3c0,4.5-3.2,5.5-7.5,5.5h-3.3c-4.3,0-7.5-1-7.5-5.5V11.3z
	 M197.5,11.5c0-3.2-1.9-3.8-4.5-3.8h-4.6c-2.7,0-4.5,0.6-4.5,3.8v2.7c0,3.2,1.9,3.8,4.5,3.8h4.6c2.7,0,4.5-0.6,4.5-3.8V11.5z"/>
</svg>
