<svg width="176" height="29" viewBox="0 0 176 29" fill="none" xmlns="http://www.w3.org/2000/svg"><path fill-rule="evenodd" clip-rule="evenodd" d="M98.9206 16.1535C98.1587 15.1996 96.9524 14.818 95.619 14.818C94.1587 14.818 93.0794 15.1996 92.127 16.1535C91.2381 17.1075 90.7936 18.3158 90.7936 19.7785C90.7936 21.2412 91.2381 22.4496 92.127 23.3399C93.0794 24.2939 94.1587 24.6754 95.619 24.6754C97.0794 24.6754 98.2857 24.1667 99.2381 23.2127C99.619 22.8311 99.873 22.3224 100 21.75H104.698C104.254 23.0855 103.746 24.2939 102.921 25.375C101.206 27.7917 98.7937 29 95.619 29C92.8254 29 90.5397 28.1732 88.8254 26.4561C87.0476 24.6754 86.1587 22.5768 86.1587 19.9057C86.1587 17.3618 87.0476 15.0724 88.8254 13.3553C90.5397 11.6382 92.8254 10.8114 95.619 10.8114C98.6667 10.8114 101.079 11.8925 102.794 14.182C103.619 15.1996 104.127 16.2807 104.381 17.489H99.873C99.619 16.8531 99.2381 16.4079 98.9206 16.1535ZM114.921 15.3268V28.3004H110.413V15.3268H105.079V11.193H120.254V15.3268H114.921ZM136 21.8772C134.667 23.0855 132.952 23.6579 130.921 23.6579H127.238V28.3004H122.54V11.0658H130.794C132.952 11.0658 134.54 11.6382 135.873 12.8465C137.206 13.9912 137.905 15.5175 137.905 17.2346C137.905 19.2061 137.206 20.6689 136 21.8772ZM132.698 15.8991C132.254 15.5175 131.619 15.3268 130.794 15.3268H127.238V19.5241H130.794C131.619 19.5241 132.254 19.3333 132.698 18.9518C133.079 18.5702 133.333 17.9978 133.333 17.489C133.333 16.8531 133.079 16.2807 132.698 15.8991ZM155.365 26.2018C153.587 27.9189 151.365 28.8728 148.571 28.8728C145.714 28.8728 143.492 27.9189 141.714 26.2018C140 24.4211 139.048 22.3224 139.048 19.7785C139.048 17.2346 140 15.0724 141.714 13.3553C143.492 11.6382 145.714 10.6842 148.571 10.6842C151.365 10.6842 153.587 11.6382 155.365 13.3553C157.079 15.0724 158.032 17.2346 158.032 19.7785C158.032 22.1952 157.079 24.2939 155.365 26.2018ZM151.873 16.1535C150.921 15.1996 149.905 14.818 148.381 14.818C146.921 14.818 145.905 15.1996 144.952 16.1535C144 17.1075 143.619 18.3158 143.619 19.7785C143.619 21.2412 144 22.4496 144.952 23.3399C145.905 24.2939 146.921 24.6754 148.381 24.6754C149.905 24.6754 150.921 24.2939 151.873 23.3399C152.825 22.4496 153.206 21.2412 153.206 19.7785C153.206 18.3158 152.825 17.1075 151.873 16.1535ZM171.238 28.3004V19.9057L171.619 17.6162H171.365L165.079 28.3004H159.873V11.0658H164.381V19.5241L164 21.75H164.254L170.54 11.0658H175.746V28.3004H171.238ZM11.3651 28.3004V19.9057L11.746 17.6162H11.4921L5.20635 28.3004H0V11.0658H4.57143V19.5241L4.12698 21.75H4.38095L10.6667 11.0658H15.873V28.3004H11.3651ZM30.5397 28.3004V21.6228H23.873V28.3004H19.3651V11.0658H23.873V17.489H30.4127V11.0658H34.9206V28.3004H30.5397ZM46.6667 15.3268V28.3004H42.1587V15.3268H36.8254V11.193H52V15.3268H46.6667ZM67.2381 24.1667V28.3004H54.0317V11.0658H67.2381V15.1996H58.5397V17.7434H65.4603V21.4956H58.5397V24.0395H67.2381V24.1667ZM83.0476 21.8772C81.7143 23.0855 80 23.6579 78.0317 23.6579H74.2857V28.3004H69.7143V11.0658H78.0317C80.127 11.0658 81.7143 11.6382 83.0476 12.8465C84.381 13.9912 85.0794 15.5175 85.0794 17.2346C84.9524 19.2061 84.254 20.6689 83.0476 21.8772ZM79.746 15.8991C79.3651 15.5175 78.6667 15.3268 77.9048 15.3268H74.2857V19.5241H77.9048C78.6667 19.5241 79.3651 19.3333 79.746 18.9518C80.127 18.5702 80.381 17.9978 80.381 17.489C80.381 16.8531 80.127 16.2807 79.746 15.8991ZM173.46 5.4693C171.873 7.05921 170.032 7.88596 167.873 7.88596C165.714 7.88596 163.873 7.05921 162.286 5.4693C160.825 4.00658 160.127 2.28947 160 0H164C164.127 1.08114 164.381 1.97149 165.079 2.67105C165.905 3.49781 166.794 4.00658 168 4.00658C169.206 4.00658 170.159 3.625 170.921 2.67105C171.619 1.97149 171.873 1.08114 172 0H176C175.619 2.16228 174.921 4.00658 173.46 5.4693Z" fill="black"/></svg>