<svg width="193" height="27" viewBox="0 0 193 27" fill="none" xmlns="http://www.w3.org/2000/svg">
<g clip-path="url(#clip0_193_445)">
<path d="M57.7333 14.6649H52.2346C52.0475 12.4992 50.6937 11.1599 48.6718 11.1599C46.1095 11.1599 44.5687 13.4026 44.5687 17.0159C44.5687 20.6294 46.1095 22.8692 48.6718 22.8692C50.7057 22.8692 52.0595 21.3874 52.2111 19.0021H57.7452C57.3298 23.6642 53.8677 26.7732 48.7076 26.7732C42.8731 26.7732 39.07 22.9404 39.07 17.0159C39.07 11.0915 42.8615 7.25863 48.6957 7.25863C53.8558 7.25863 57.3059 10.3648 57.7333 14.6649ZM64.7016 10.2366C66.0792 8.33867 67.9678 7.404 70.0073 7.404C74.2978 7.404 77.0468 9.93163 77.0468 14.9185V26.1947H71.7769V15.4258C71.7769 12.6417 70.4943 11.3793 68.4251 11.3793C66.2428 11.3793 64.6602 13.0036 64.6602 16.3633V26.1947H59.3839V0.465064H64.6542L64.6216 10.2366H64.7016ZM91.9543 20.6236H97.3404C96.5863 23.9834 93.2727 26.7674 88.1899 26.7674C82.1659 26.7674 78.6652 22.7181 78.6652 16.8649C78.6652 11.4505 82.1659 7.25296 88.166 7.25296C92.5692 7.25296 95.8084 9.63813 97.0109 13.3598C97.4264 14.6251 97.6047 16.0328 97.6047 18.059H83.8607C84.0123 21.8518 85.9395 23.1883 88.1899 23.1883C90.2977 23.1883 91.6901 22.1111 91.9543 20.6236ZM83.9737 14.8758H92.3403C92.0021 12.0945 90.2623 10.8293 88.1632 10.8293C86.0641 10.8293 84.3864 12.1002 83.9737 14.8815V14.8758ZM115.166 13.4681H110.119C110.119 11.5901 108.988 10.7951 107.105 10.7951C105.413 10.7951 104.508 11.4448 104.508 12.5049C104.508 13.8043 105.713 14.1292 108.611 14.853C112.037 15.7079 115.802 16.5628 115.802 21.0311C115.802 24.4649 112.566 26.7789 107.37 26.7789C102.061 26.7789 98.7866 24.6815 98.7866 20.2247H104.13C104.13 22.0683 105.297 23.117 107.483 23.117C109.326 23.117 110.268 22.4303 110.268 21.3445C110.268 19.7544 108.836 19.4295 105.865 18.6715C102.664 17.8765 99.2374 17.1554 99.2374 12.8896C99.2374 9.60108 102.4 7.25296 107.144 7.25296C112.153 7.25867 115.166 9.3902 115.166 13.4738V13.4681ZM128.159 22.2137V26.0807C127.251 26.3184 126.313 26.4392 125.371 26.4397C120.968 26.4397 119.047 24.73 119.047 20.4783V11.5959H115.959V7.83715H119.062V3.06681H124.317V7.83715H127.969V11.5959H124.317V19.5748C124.317 21.5981 124.997 22.3933 126.802 22.3933C127.261 22.3988 127.718 22.3403 128.159 22.2193V22.2137ZM142.428 7.75734V12.1316C141.883 12.0216 141.329 11.9605 140.771 11.9492C137.532 11.9492 135.802 13.9012 135.802 17.5145V26.189H130.531V7.83715H135.392V10.4389H135.469C136.748 8.44413 138.438 7.54646 140.7 7.54646C141.284 7.5488 141.864 7.62154 142.428 7.76306V7.75734ZM160.124 14.5167V21.1649C160.124 23.479 160.311 24.9608 160.649 26.189H155.899C155.712 25.3819 155.624 24.5565 155.638 23.7298H155.581C154.153 25.6817 152.018 26.6222 149.37 26.6222C145.302 26.6222 142.856 24.2369 142.856 21.0568C142.856 18.0589 144.738 16.0328 150.279 15.2035C151.71 14.9869 153.841 14.7704 155.062 14.6963V14.0466C155.062 11.7326 153.782 10.7951 151.935 10.7951C149.979 10.7951 148.85 11.8409 148.773 13.5764H143.631C143.821 10.0713 146.454 7.25296 151.914 7.25296C157.375 7.25296 160.124 9.71508 160.124 14.5225V14.5167ZM155.041 17.7739C153.909 17.8451 152.33 17.9904 151.199 18.17C149.017 18.532 148.114 19.2188 148.114 20.7005C148.114 22.074 149.091 23.0144 150.938 23.0144C152.027 23.0144 153.194 22.6896 153.948 21.9658C154.839 21.1109 155.041 20.1221 155.041 18.4607V17.7739ZM172.981 22.2193V26.0864C172.071 26.324 171.135 26.4446 170.195 26.4455C165.789 26.4455 163.868 24.7357 163.868 20.4839V11.5959H160.783V7.83715H163.868V3.06681H169.141V7.83715H172.801V11.5959H169.15V19.5748C169.15 21.5981 169.826 22.3933 171.635 22.3933C172.09 22.398 172.542 22.3394 172.981 22.2193ZM187.35 20.6236H192.733C191.981 23.9834 188.668 26.7674 183.585 26.7674C177.562 26.7674 174.057 22.7181 174.057 16.8649C174.057 11.4505 177.562 7.25296 183.558 7.25296C187.965 7.25296 191.201 9.63813 192.406 13.3598C192.822 14.6251 193 16.0328 193 18.059H179.248C179.398 21.8518 181.325 23.1883 183.578 23.1883C185.688 23.1883 187.079 22.1111 187.35 20.6236ZM179.366 14.8758H187.727C187.388 12.0945 185.649 10.8293 183.547 10.8293C181.444 10.8293 179.776 12.1002 179.359 14.8815L179.366 14.8758ZM37.5468 7.54646C35.2873 7.54646 33.5951 8.44981 32.3153 10.4389H32.2381V7.83715H27.3808V12.5191C26.75 12.8895 26.0899 13.2115 25.4064 13.4823C26.0002 8.27312 25.0382 3.89605 20.8193 1.59353C13.8687 -2.20222 5.06846 0.963746 1.52044 9.16793C-1.25858 15.5996 -0.911202 25.1517 8.41456 26.7533C16.048 28.0613 21.4189 23.952 23.3727 19.5607C24.7507 19.2405 26.0924 18.79 27.3779 18.2155V26.1947H32.6627V17.5203C32.6483 16.6899 32.7624 15.8621 33.0011 15.0639C33.078 14.8093 33.1774 14.5614 33.2981 14.323C34.0701 12.7699 35.5338 11.9549 37.624 11.9549C38.18 11.966 38.7336 12.0271 39.2777 12.1373V7.76306C38.7126 7.62091 38.131 7.54813 37.5468 7.54646ZM11.1817 22.2764C7.604 22.2935 5.64742 19.8541 5.64742 15.953C5.68701 14.5707 5.91257 13.1991 6.31842 11.8723C7.03101 13.8243 8.88962 16.5173 11.2945 18.0304C12.9275 19.0562 14.7683 19.8057 16.5646 19.9711C15.2374 21.2335 13.5659 22.2679 11.1817 22.2764ZM19.3882 15.061C18.9214 15.0965 18.4523 15.0908 17.9868 15.0439C13.0403 14.6564 11.0154 10.9803 10.9679 8.48971C10.9323 6.5263 12.307 4.78515 14.3942 4.78515H14.418C17.9957 4.78515 20.0146 7.09909 19.9909 11.0744C20.0006 12.4248 19.7974 13.7689 19.3882 15.061Z" fill="#5E3EEB"/>
</g>
<defs>
<clipPath id="clip0_193_445">
<rect width="193" height="27" fill="white"/>
</clipPath>
</defs>
</svg>
