<svg width="134" height="47" viewBox="0 0 134 47" fill="none" xmlns="http://www.w3.org/2000/svg">
<g clip-path="url(#clip0_193_447)">
<path d="M23.2681 0C10.4175 0 0 10.5216 0 23.5006C0 36.4795 10.4175 47.0011 23.2681 47.0011C36.1186 47.0011 46.5361 36.4795 46.5361 23.5006C46.535 10.5216 36.1175 0 23.2681 0ZM29.7087 33.6042C27.6156 33.6042 25.6726 32.9543 24.0662 31.8439C24.9052 31.101 25.6317 30.2306 26.2161 29.2638C27.2325 29.893 28.4297 30.257 29.7098 30.257C33.4048 30.257 36.4006 27.2313 36.4006 23.4994C36.4006 19.7675 33.4048 16.7418 29.7098 16.7418C27.9453 16.7418 26.3411 17.4319 25.1451 18.5596V20.05C25.1553 20.0362 25.1644 20.0225 25.1747 20.0098V29.0697C25.1644 29.0846 25.1542 29.0984 25.1451 29.1133V29.1512H25.1201C23.3226 31.837 20.2803 33.6042 16.8275 33.6042C11.3021 33.6042 6.82375 29.08 6.82375 23.5006C6.82375 17.9211 11.3032 13.3969 16.8275 13.3969C18.9205 13.3969 20.8635 14.0468 22.47 15.1572C21.6309 15.9001 20.9044 16.7705 20.3212 17.7362C19.3048 17.107 18.1076 16.743 16.8275 16.743C13.1325 16.743 10.1367 19.7687 10.1367 23.5006C10.1367 27.2325 13.1325 30.2582 16.8275 30.2582C18.8182 30.2582 20.6066 29.3797 21.8321 27.9846V26.2633V17.2953V17.2723C23.6637 14.9126 26.5117 13.3969 29.7098 13.3969C35.2352 13.3969 39.7147 17.9211 39.7147 23.5006C39.7147 29.08 35.2341 33.6042 29.7087 33.6042Z" fill="black"/>
<path d="M53.6112 23.7669C54.1069 24.3112 54.7084 24.72 55.4167 24.9944C56.1238 25.2689 56.9174 25.4055 57.7974 25.4055C58.2464 25.4055 58.6648 25.3688 59.0514 25.2953C59.4379 25.2218 59.7824 25.1299 60.0837 25.0197C60.3838 24.9095 60.6385 24.7946 60.8466 24.6741C61.0546 24.5535 61.1956 24.4548 61.2684 24.379C61.3411 24.302 61.3934 24.2331 61.4275 24.1734C61.4605 24.1137 61.4866 24.0414 61.5071 23.9575C61.5276 23.8749 61.5424 23.7738 61.5515 23.6567C61.5617 23.5396 61.5662 23.3983 61.5662 23.2307C61.5662 22.9907 61.5594 22.7978 61.5458 22.6543C61.5321 22.5107 61.5128 22.3993 61.4866 22.319C61.4605 22.2386 61.4275 22.1858 61.3877 22.1582C61.3479 22.1318 61.2956 22.118 61.2297 22.118C61.1433 22.118 61.0228 22.172 60.8682 22.2788C60.7124 22.3856 60.5146 22.5061 60.2736 22.6393C60.0325 22.7725 59.7426 22.8942 59.405 23.0056C59.0673 23.1159 58.6682 23.171 58.2055 23.171C57.6962 23.171 57.238 23.0826 56.831 22.9057C56.4251 22.7289 56.0772 22.4602 55.7896 22.0996C55.5019 21.7391 55.2802 21.2798 55.1245 20.7217C54.9687 20.1637 54.8914 19.5045 54.8914 18.7432C54.8914 18.0485 54.9642 17.4239 55.1097 16.8704C55.2552 16.3158 55.4678 15.8438 55.7498 15.4534C56.0306 15.063 56.3717 14.7622 56.7719 14.552C57.1721 14.3419 57.6257 14.2363 58.135 14.2363C58.5978 14.2363 58.9968 14.2948 59.3299 14.4108C59.6642 14.5279 59.9518 14.6577 60.1928 14.8012C60.4339 14.9447 60.6306 15.0756 60.7829 15.1916C60.9352 15.3087 61.0603 15.3673 61.1604 15.3673C61.2195 15.3673 61.2729 15.3466 61.3184 15.3076C61.365 15.2674 61.4048 15.2043 61.4378 15.117C61.4707 15.0297 61.4935 14.9172 61.5071 14.7759C61.5196 14.6359 61.5276 14.4659 61.5276 14.265C61.5276 14.0778 61.523 13.9205 61.5128 13.7942C61.5026 13.6679 61.4878 13.5576 61.4685 13.4635C61.448 13.3705 61.4218 13.2935 61.3889 13.2338C61.3559 13.1741 61.2945 13.0983 61.2058 13.0088C61.1171 12.918 60.9591 12.8101 60.7352 12.6826C60.51 12.5563 60.2576 12.4438 59.9757 12.3473C59.6949 12.2509 59.389 12.1728 59.0582 12.112C58.7274 12.0522 58.384 12.0212 58.027 12.0212C57.1471 12.0212 56.3421 12.1717 55.6122 12.4725C54.8812 12.7734 54.2547 13.2143 53.7329 13.7953C53.2099 14.3763 52.804 15.094 52.513 15.9495C52.2219 16.8049 52.0764 17.7821 52.0764 18.8845C52.0764 19.9661 52.2083 20.9146 52.4732 21.7299C52.7358 22.544 53.1156 23.2238 53.6112 23.7669Z" fill="black"/>
<path d="M63.7183 25.145C63.8172 25.1783 63.9514 25.2047 64.1208 25.2253C64.2891 25.2449 64.4982 25.2552 64.7506 25.2552C65.0087 25.2552 65.2202 25.2449 65.385 25.2253C65.5499 25.2058 65.6829 25.1783 65.7818 25.145C65.8807 25.1117 65.9512 25.068 65.9899 25.0152C66.0297 24.9612 66.049 24.9015 66.049 24.8349V19.5953H70.8502V24.8349C70.8502 24.9015 70.8718 24.9624 70.9138 25.0152C70.957 25.0692 71.0264 25.1117 71.123 25.145C71.2185 25.1783 71.3504 25.2047 71.5198 25.2253C71.6881 25.2449 71.9018 25.2552 72.1599 25.2552C72.4112 25.2552 72.6192 25.2449 72.7852 25.2253C72.9512 25.2058 73.0831 25.1783 73.182 25.145C73.2809 25.1117 73.3514 25.068 73.3946 25.0152C73.4378 24.9612 73.4594 24.9015 73.4594 24.8349V12.5932C73.4594 12.5266 73.4378 12.4669 73.3946 12.4129C73.3514 12.3589 73.2809 12.3164 73.182 12.282C73.0831 12.2487 72.9501 12.2223 72.7852 12.2016C72.6204 12.1809 72.4123 12.1718 72.1599 12.1718C71.9018 12.1718 71.6892 12.1821 71.5198 12.2016C71.3516 12.2211 71.2185 12.2487 71.123 12.282C71.0264 12.3153 70.957 12.3589 70.9138 12.4129C70.8706 12.4669 70.8502 12.5266 70.8502 12.5932V17.3516H66.049V12.5932C66.049 12.5266 66.0285 12.4669 65.9899 12.4129C65.9501 12.3589 65.8807 12.3164 65.7818 12.282C65.6829 12.2487 65.5499 12.2223 65.385 12.2016C65.219 12.1809 65.0076 12.1718 64.7506 12.1718C64.4982 12.1718 64.2891 12.1821 64.1208 12.2016C63.9514 12.2211 63.8184 12.2487 63.7183 12.282C63.6194 12.3153 63.5478 12.3589 63.5057 12.4129C63.4625 12.4669 63.4409 12.5266 63.4409 12.5932V24.8349C63.4409 24.9015 63.4625 24.9624 63.5057 25.0152C63.5489 25.068 63.6194 25.1117 63.7183 25.145Z" fill="black"/>
<path d="M77.0294 25.1943H83.4768C83.5359 25.1943 83.5905 25.1759 83.6405 25.1392C83.6905 25.1024 83.7315 25.0439 83.7644 24.9647C83.7974 24.8843 83.8224 24.7798 83.8395 24.6489C83.8554 24.5191 83.8645 24.3572 83.8645 24.1632C83.8645 23.9691 83.8565 23.8072 83.8395 23.6774C83.8224 23.5465 83.7986 23.442 83.7644 23.3617C83.7315 23.2813 83.6905 23.2227 83.6405 23.186C83.5905 23.1492 83.5359 23.1309 83.4768 23.1309H78.8541V19.4748H82.7321C82.7912 19.4748 82.847 19.4587 82.8958 19.4242C82.9459 19.3909 82.9868 19.3358 83.0198 19.2589C83.0527 19.1819 83.0777 19.0798 83.0948 18.9534C83.1107 18.8271 83.1198 18.6664 83.1198 18.4723C83.1198 18.2851 83.1119 18.1267 83.0948 17.9958C83.0789 17.866 83.0539 17.7627 83.0198 17.6857C82.9868 17.6088 82.9459 17.5525 82.8958 17.5147C82.847 17.4779 82.7924 17.4595 82.7321 17.4595H78.8541V14.296H83.437C83.4961 14.296 83.5496 14.2777 83.5962 14.2409C83.6428 14.2042 83.6826 14.1456 83.7144 14.0652C83.7474 13.9849 83.7724 13.8804 83.7895 13.7495C83.8054 13.6186 83.8145 13.4601 83.8145 13.2741C83.8145 13.0731 83.8065 12.9078 83.7895 12.778C83.7724 12.6483 83.7485 12.5415 83.7144 12.4577C83.6814 12.3738 83.6417 12.3153 83.5962 12.282C83.5496 12.2487 83.4973 12.2314 83.437 12.2314H77.0294C76.8111 12.2314 76.628 12.2969 76.4791 12.4267C76.3302 12.5564 76.2551 12.7688 76.2551 13.0628V24.363C76.2551 24.6569 76.3302 24.8682 76.4791 24.9991C76.6269 25.13 76.8111 25.1943 77.0294 25.1943Z" fill="black"/>
<path d="M86.7885 23.7669C87.2842 24.3112 87.8856 24.72 88.5939 24.9944C89.3011 25.2689 90.0946 25.4055 90.9746 25.4055C91.4237 25.4055 91.8421 25.3688 92.2298 25.2953C92.6163 25.2218 92.9608 25.1299 93.2609 25.0197C93.5622 24.9095 93.8158 24.7946 94.0238 24.6741C94.233 24.5535 94.3728 24.4548 94.4456 24.379C94.5184 24.302 94.5707 24.2331 94.6048 24.1734C94.6377 24.1137 94.6639 24.0414 94.6844 23.9575C94.7048 23.8749 94.7196 23.7738 94.7287 23.6567C94.7389 23.5396 94.7435 23.3983 94.7435 23.2307C94.7435 22.9907 94.7367 22.7978 94.7242 22.6543C94.7116 22.5107 94.6912 22.3993 94.665 22.319C94.6389 22.2386 94.6059 22.1858 94.565 22.1582C94.5252 22.1318 94.4729 22.118 94.407 22.118C94.3205 22.118 94.2 22.172 94.0454 22.2788C93.8897 22.3856 93.6918 22.5061 93.4508 22.6393C93.2098 22.7725 92.9199 22.8942 92.5822 23.0056C92.2457 23.1159 91.8455 23.171 91.3828 23.171C90.8734 23.171 90.4153 23.0826 90.0094 22.9057C89.6024 22.7289 89.2556 22.4602 88.968 22.0996C88.6803 21.7391 88.4586 21.2798 88.304 20.7217C88.1482 20.1637 88.0709 19.5045 88.0709 18.7432C88.0709 18.0485 88.1437 17.4239 88.2892 16.8704C88.4348 16.3158 88.6474 15.8438 88.9293 15.4534C89.2101 15.063 89.5512 14.7622 89.9514 14.552C90.3516 14.3419 90.8052 14.2363 91.3145 14.2363C91.7773 14.2363 92.1763 14.2948 92.5094 14.4108C92.8426 14.5279 93.1302 14.6577 93.3724 14.8012C93.6134 14.9447 93.8101 15.0756 93.9624 15.1916C94.1148 15.3087 94.2398 15.3673 94.3387 15.3673C94.3979 15.3673 94.4513 15.3466 94.4979 15.3076C94.5445 15.2674 94.5843 15.2043 94.6173 15.117C94.6503 15.0297 94.673 14.9172 94.6866 14.7759C94.6991 14.6359 94.7071 14.4659 94.7071 14.265C94.7071 14.0778 94.7026 13.9205 94.6923 13.7942C94.6821 13.6679 94.6673 13.5576 94.648 13.4635C94.6275 13.3705 94.6014 13.2935 94.5684 13.2338C94.5354 13.1741 94.474 13.0983 94.3854 13.0088C94.2967 12.918 94.1386 12.8101 93.9147 12.6826C93.6896 12.5563 93.4372 12.4438 93.1564 12.3473C92.8755 12.2509 92.5697 12.1728 92.2389 12.112C91.908 12.0522 91.5647 12.0212 91.2077 12.0212C90.3277 12.0212 89.5228 12.1717 88.7929 12.4725C88.0618 12.7734 87.4354 13.2143 86.9136 13.7953C86.3906 14.3763 85.9847 15.094 85.6937 15.9495C85.4026 16.8049 85.2571 17.7821 85.2571 18.8845C85.2571 19.9661 85.389 20.9146 85.6539 21.7299C85.9119 22.544 86.2928 23.2238 86.7885 23.7669Z" fill="black"/>
<path d="M96.8956 25.1392C96.9945 25.176 97.1286 25.2047 97.2969 25.2242C97.4652 25.2437 97.6755 25.254 97.9268 25.254C98.1848 25.254 98.3963 25.2437 98.5612 25.2242C98.7271 25.2047 98.859 25.176 98.9579 25.1392C99.0568 25.1025 99.1273 25.0577 99.1671 25.0037C99.2069 24.9509 99.2263 24.8866 99.2263 24.8131V18.6629L103.104 24.8131C103.151 24.9073 103.215 24.9865 103.298 25.0542C103.379 25.1208 103.516 25.1714 103.705 25.2047C103.893 25.238 104.203 25.2552 104.632 25.2552C104.904 25.2552 105.128 25.2449 105.306 25.2253C105.485 25.2058 105.626 25.1771 105.728 25.1404C105.831 25.1036 105.9 25.0577 105.936 25.0003C105.973 24.944 105.991 24.8786 105.991 24.8051C105.991 24.7511 105.976 24.6799 105.947 24.5903C105.917 24.4996 105.829 24.3182 105.684 24.0438L101.846 18.1841L105.367 13.5256C105.533 13.2649 105.644 13.0743 105.704 12.9549C105.764 12.8343 105.794 12.7183 105.794 12.6047C105.794 12.5381 105.774 12.4783 105.735 12.4244C105.695 12.3716 105.625 12.3256 105.522 12.2889C105.42 12.2521 105.283 12.2234 105.111 12.2039C104.939 12.1832 104.721 12.174 104.456 12.174C104.198 12.174 103.987 12.1809 103.822 12.1936C103.656 12.2073 103.52 12.2303 103.415 12.2636C103.309 12.2969 103.223 12.3428 103.157 12.3991C103.091 12.4554 103.035 12.5277 102.988 12.6138L99.2297 18.1233V12.6035C99.2297 12.53 99.2092 12.4669 99.1705 12.4129C99.1308 12.3589 99.0614 12.3164 98.9614 12.282C98.8624 12.2487 98.7306 12.2223 98.5646 12.2016C98.3986 12.1809 98.1871 12.1718 97.9302 12.1718C97.6789 12.1718 97.4686 12.1821 97.3003 12.2016C97.1309 12.2211 96.9979 12.2487 96.899 12.282C96.8001 12.3153 96.7285 12.3589 96.6864 12.4129C96.6432 12.4669 96.6216 12.53 96.6216 12.6035V24.8143C96.6216 24.8877 96.6432 24.9509 96.6864 25.0049C96.725 25.0577 96.7967 25.1036 96.8956 25.1392Z" fill="black"/>
<path d="M113.092 25.1943H116.157C117.294 25.1943 118.274 25.0691 119.099 24.8188C119.922 24.5685 120.621 24.1757 121.196 23.6418C121.771 23.1078 122.213 22.4177 122.519 21.5726C122.828 20.7275 122.981 19.7113 122.981 18.5228C122.981 17.4939 122.839 16.5891 122.555 15.8083C122.27 15.0263 121.856 14.3706 121.31 13.8401C120.764 13.3096 120.093 12.9089 119.296 12.6379C118.499 12.368 117.53 12.2325 116.386 12.2325H113.092C112.874 12.2325 112.691 12.298 112.542 12.4278C112.393 12.5575 112.319 12.7699 112.319 13.0639V24.3641C112.319 24.658 112.393 24.8693 112.542 25.0002C112.691 25.13 112.874 25.1943 113.092 25.1943ZM114.917 14.296H116.236C117.036 14.296 117.682 14.4051 118.175 14.6221C118.668 14.8391 119.071 15.1411 119.386 15.5281C119.7 15.9151 119.928 16.3732 120.071 16.9003C120.213 17.4285 120.283 17.9992 120.283 18.6135C120.283 19.361 120.202 20.0167 120.04 20.5771C119.877 21.1386 119.633 21.6071 119.305 21.9848C118.978 22.3626 118.57 22.6451 118.081 22.8311C117.591 23.0183 116.99 23.1113 116.276 23.1113H114.917V14.296Z" fill="black"/>
<path d="M133.981 22.6555C133.968 22.5119 133.948 22.4006 133.921 22.3202C133.895 22.2398 133.862 22.187 133.823 22.1594C133.783 22.133 133.729 22.1192 133.665 22.1192C133.578 22.1192 133.458 22.1732 133.303 22.28C133.147 22.3868 132.949 22.5073 132.708 22.6405C132.467 22.7737 132.177 22.8955 131.84 23.0068C131.503 23.1171 131.103 23.1722 130.639 23.1722C130.13 23.1722 129.672 23.0838 129.266 22.9069C128.859 22.7301 128.512 22.4614 128.224 22.1009C127.937 21.7403 127.715 21.281 127.56 20.7229C127.405 20.1649 127.327 19.5058 127.327 18.7445C127.327 18.0498 127.4 17.4251 127.546 16.8716C127.691 16.317 127.904 15.8451 128.186 15.4547C128.467 15.0642 128.808 14.7634 129.208 14.5533C129.608 14.3431 130.062 14.2375 130.571 14.2375C131.034 14.2375 131.433 14.296 131.766 14.412C132.099 14.5291 132.387 14.6589 132.629 14.8024C132.87 14.946 133.066 15.0769 133.219 15.1928C133.371 15.31 133.496 15.3685 133.595 15.3685C133.654 15.3685 133.708 15.3479 133.754 15.3088C133.801 15.2686 133.841 15.2055 133.874 15.1182C133.907 15.0309 133.929 14.9184 133.943 14.7772C133.956 14.6371 133.962 14.4671 133.962 14.2662C133.962 14.079 133.958 13.9217 133.948 13.7954C133.937 13.6691 133.923 13.5589 133.903 13.4647C133.883 13.3717 133.857 13.2947 133.824 13.235C133.791 13.1753 133.729 13.0995 133.641 13.01C133.551 12.9193 133.394 12.8113 133.169 12.6839C132.944 12.5576 132.691 12.445 132.411 12.3486C132.13 12.2521 131.824 12.174 131.493 12.1132C131.162 12.0535 130.819 12.0225 130.462 12.0225C129.582 12.0225 128.777 12.1729 128.047 12.4737C127.316 12.7746 126.69 13.2155 126.168 13.7965C125.646 14.3776 125.239 15.0952 124.948 15.9507C124.657 16.8062 124.511 17.7834 124.511 18.8857C124.511 19.9674 124.643 20.9158 124.908 21.7311C125.173 22.5464 125.553 23.2262 126.049 23.7693C126.545 24.3136 127.147 24.7224 127.855 24.9968C128.562 25.2712 129.356 25.4079 130.236 25.4079C130.685 25.4079 131.103 25.3711 131.491 25.2977C131.877 25.2242 132.221 25.1323 132.522 25.0221C132.823 24.9118 133.077 24.797 133.286 24.6764C133.494 24.5559 133.635 24.4571 133.708 24.3813C133.78 24.3044 133.833 24.2355 133.867 24.1758C133.9 24.1161 133.926 24.0437 133.946 23.9599C133.966 23.8772 133.982 23.7762 133.991 23.6591C134.001 23.5419 134.006 23.4007 134.006 23.2331C134 22.9908 133.994 22.799 133.981 22.6555Z" fill="black"/>
<path d="M129.977 28.5541H51.2908V28.8997H129.977V28.5541Z" fill="black"/>
<path d="M54.4491 34.3897C54.3286 34.2726 54.1911 34.1692 54.0376 34.0831C53.8841 33.997 53.7283 33.9155 53.5692 33.8408C53.41 33.765 53.2542 33.6904 53.1008 33.6146C52.9473 33.5388 52.8108 33.455 52.6892 33.3609C52.5675 33.2667 52.4709 33.1599 52.3981 33.037C52.3254 32.9153 52.2879 32.7683 52.2879 32.5984C52.2879 32.4824 52.3083 32.371 52.3493 32.2666C52.3902 32.1609 52.4516 32.0702 52.5334 31.9921C52.6153 31.914 52.7176 31.852 52.8415 31.8072C52.9655 31.7625 53.1099 31.7395 53.2758 31.7395C53.4452 31.7395 53.5953 31.7602 53.7272 31.8015C53.8591 31.8428 53.9728 31.8888 54.0683 31.9404C54.1638 31.9921 54.2434 32.038 54.307 32.0794C54.3707 32.1207 54.4173 32.1414 54.448 32.1414C54.4651 32.1414 54.4798 32.1356 54.4923 32.1242C54.5048 32.1127 54.5162 32.0966 54.5242 32.0748C54.5333 32.053 54.539 32.0277 54.5435 31.9979C54.5481 31.968 54.5492 31.9347 54.5492 31.898C54.5492 31.8589 54.5481 31.8245 54.5446 31.7981C54.5424 31.7705 54.5378 31.7475 54.5321 31.728C54.5264 31.7085 54.5196 31.6924 54.5128 31.6786C54.506 31.666 54.4889 31.6453 54.4628 31.6189C54.4355 31.5914 54.3809 31.5569 54.2979 31.5121C54.2149 31.4685 54.1206 31.4283 54.0148 31.3927C53.9091 31.3571 53.7977 31.3284 53.6794 31.3054C53.5612 31.2825 53.4441 31.271 53.3293 31.271C53.0985 31.271 52.887 31.302 52.6949 31.3652C52.5016 31.4272 52.3368 31.5179 52.1992 31.635C52.0616 31.7533 51.9548 31.8957 51.8786 32.0656C51.8024 32.2344 51.7649 32.425 51.7649 32.6386C51.7649 32.8579 51.8013 33.0462 51.8752 33.2047C51.9479 33.3643 52.0446 33.5021 52.1639 33.6204C52.2833 33.7386 52.4186 33.8408 52.571 33.9293C52.7233 34.0177 52.8779 34.0992 53.0371 34.1738C53.1951 34.2496 53.3509 34.3243 53.5032 34.4C53.6556 34.4758 53.7909 34.5597 53.9102 34.6515C54.0296 34.7434 54.1263 34.8513 54.199 34.973C54.2718 35.0948 54.3082 35.2417 54.3082 35.4117C54.3082 35.5759 54.2797 35.7229 54.2218 35.8526C54.1638 35.9824 54.0831 36.0903 53.9785 36.1787C53.875 36.2671 53.7511 36.3337 53.6078 36.3808C53.4646 36.4279 53.3065 36.4509 53.136 36.4509C52.9257 36.4509 52.7404 36.4256 52.5812 36.3762C52.422 36.3268 52.2856 36.2729 52.1719 36.2143C52.0582 36.1558 51.965 36.1018 51.8934 36.0524C51.8217 36.003 51.766 35.9778 51.7274 35.9778C51.7103 35.9778 51.6944 35.9812 51.6785 35.9881C51.6626 35.995 51.6512 36.0088 51.641 36.0283C51.6307 36.049 51.6228 36.0742 51.6182 36.1052C51.6125 36.1362 51.6091 36.1764 51.6091 36.2247C51.6091 36.2901 51.616 36.3441 51.6307 36.3889C51.6455 36.4336 51.6671 36.4715 51.6978 36.5037C51.7296 36.5358 51.7854 36.576 51.8683 36.6231C51.9513 36.6702 52.0537 36.7161 52.1742 36.762C52.2947 36.808 52.4334 36.847 52.5869 36.8792C52.7415 36.9113 52.9052 36.9274 53.0803 36.9274C53.3361 36.9274 53.5726 36.8918 53.7886 36.8206C54.0057 36.7494 54.1922 36.6472 54.3491 36.5117C54.506 36.3774 54.6288 36.2132 54.7163 36.0203C54.8039 35.8273 54.8471 35.608 54.8471 35.3646C54.8471 35.1487 54.8107 34.9616 54.7379 34.8042C54.6674 34.6458 54.5708 34.508 54.4491 34.3897Z" fill="black"/>
<path d="M57.6164 33.2552C57.6528 33.2552 57.6835 33.2368 57.7074 33.2023C57.7312 33.1667 57.7437 33.1139 57.7437 33.0427C57.7437 33.006 57.7415 32.9738 57.7358 32.9474C57.7301 32.9199 57.7221 32.898 57.7108 32.8797C57.6994 32.8613 57.6858 32.8475 57.671 32.8395C57.6551 32.8303 57.638 32.8268 57.6187 32.8268H56.5648V31.8807C56.5648 31.8634 56.5602 31.8485 56.5523 31.8336C56.5443 31.8198 56.5307 31.8072 56.5113 31.798C56.4931 31.7877 56.4681 31.7808 56.4352 31.7762C56.4033 31.7716 56.3613 31.7693 56.3112 31.7693C56.2635 31.7693 56.2226 31.7716 56.1907 31.7762C56.1589 31.7808 56.1327 31.7877 56.1123 31.798C56.0929 31.8083 56.0793 31.8198 56.0725 31.8336C56.0657 31.8485 56.0622 31.8634 56.0622 31.8807V32.8268H55.4927C55.4733 32.8268 55.4551 32.8314 55.4404 32.8395C55.4244 32.8475 55.4119 32.8613 55.4006 32.8797C55.3892 32.898 55.3801 32.921 55.3756 32.9474C55.3699 32.9738 55.3665 33.006 55.3665 33.0427C55.3665 33.1139 55.3778 33.1667 55.4006 33.2023C55.4233 33.2379 55.454 33.2552 55.4927 33.2552H56.0622V35.6527C56.0622 35.8686 56.0816 36.0558 56.1191 36.2154C56.1577 36.375 56.218 36.5059 56.3021 36.6093C56.3863 36.7126 56.4943 36.7907 56.6273 36.8412C56.7592 36.8917 56.9195 36.9181 57.1082 36.9181C57.1639 36.9181 57.2219 36.9147 57.281 36.9078C57.3401 36.9009 57.3958 36.8906 57.4493 36.878C57.5027 36.8653 57.5493 36.8492 57.5903 36.8309C57.6312 36.8125 57.6619 36.7918 57.6823 36.7712C57.7039 36.7494 57.7187 36.7206 57.729 36.6839C57.7392 36.6472 57.7437 36.5989 57.7437 36.5392C57.7437 36.5025 57.7415 36.4715 57.7369 36.4474C57.7324 36.4232 57.7267 36.4037 57.7199 36.3876C57.713 36.3716 57.704 36.3612 57.6926 36.3555C57.6812 36.3497 57.6687 36.3475 57.6539 36.3475C57.6323 36.3475 57.605 36.3543 57.5755 36.3693C57.5459 36.3831 57.5107 36.3991 57.4686 36.4164C57.4265 36.4336 57.3777 36.4496 57.3231 36.4634C57.2685 36.4784 57.2071 36.4852 57.14 36.4852C56.9206 36.4852 56.7694 36.4083 56.6864 36.2556C56.6034 36.1017 56.5614 35.879 56.5614 35.5861V33.2563H57.6164V33.2552Z" fill="black"/>
<path d="M60.9887 33.1265C60.8772 33.0071 60.7317 32.9152 60.5521 32.8521C60.3725 32.7878 60.1519 32.7556 59.8904 32.7556C59.7551 32.7556 59.621 32.7682 59.4857 32.7935C59.3504 32.8188 59.2253 32.8521 59.1082 32.8934C58.9922 32.9347 58.8876 32.9795 58.799 33.0278C58.7091 33.076 58.6466 33.1185 58.6114 33.1529C58.5761 33.1885 58.5545 33.2241 58.5466 33.2597C58.5386 33.2953 58.5341 33.3424 58.5341 33.4021C58.5341 33.4354 58.5363 33.4652 58.5409 33.4894C58.5454 33.5135 58.5523 33.5341 58.5625 33.5491C58.5727 33.5651 58.5841 33.5755 58.5977 33.5812C58.6114 33.587 58.6273 33.5893 58.6443 33.5893C58.6728 33.5893 58.7194 33.5686 58.7853 33.5273C58.8513 33.4859 58.9354 33.44 59.0366 33.3883C59.1378 33.3366 59.256 33.2907 59.3902 33.2494C59.5255 33.208 59.6767 33.1874 59.8461 33.1874C60.02 33.1874 60.1678 33.208 60.2895 33.2517C60.41 33.2942 60.5089 33.3585 60.5851 33.4434C60.6612 33.5284 60.7158 33.634 60.7499 33.7604C60.784 33.8867 60.8011 34.0325 60.8011 34.1967V34.5286H60.1928C59.9177 34.5286 59.6676 34.555 59.4425 34.6078C59.2174 34.6606 59.0252 34.7387 58.8649 34.8443C58.7046 34.95 58.5807 35.0809 58.4943 35.2382C58.4079 35.3955 58.3635 35.5815 58.3635 35.7939C58.3635 35.9673 58.3931 36.1235 58.4522 36.2624C58.5113 36.4014 58.5955 36.5197 58.7057 36.6184C58.8149 36.7172 58.949 36.7918 59.1082 36.8446C59.2674 36.8974 59.447 36.9238 59.646 36.9238C59.8677 36.9238 60.0825 36.8733 60.2895 36.77C60.4964 36.6678 60.6851 36.5231 60.8568 36.3359V36.7665C60.8568 36.7952 60.8659 36.8171 60.8841 36.832C60.9023 36.8481 60.9284 36.8595 60.9625 36.8664C60.9966 36.8733 61.0375 36.8768 61.0853 36.8768C61.1353 36.8768 61.1762 36.8733 61.2058 36.8664C61.2354 36.8595 61.2592 36.8481 61.2774 36.832C61.2956 36.8159 61.3047 36.7941 61.3047 36.7665V34.16C61.3047 33.9383 61.2809 33.7408 61.2331 33.5663C61.1853 33.3918 61.1001 33.2459 60.9887 33.1265ZM60.7977 35.8571C60.6032 36.073 60.4202 36.2326 60.2474 36.3359C60.0746 36.4393 59.8881 36.491 59.688 36.491C59.4345 36.491 59.239 36.4255 59.0991 36.2934C58.9604 36.1614 58.8899 35.9846 58.8899 35.7629C58.8899 35.6355 58.9149 35.5218 58.9638 35.4219C59.0127 35.322 59.0877 35.237 59.1901 35.1658C59.2912 35.0946 59.4174 35.0407 59.5698 35.0039C59.721 34.9672 59.8984 34.9488 60.1007 34.9488H60.7965V35.8571H60.7977Z" fill="black"/>
<path d="M64.7973 32.9416C64.7928 32.9256 64.7882 32.9129 64.7825 32.9037C64.7768 32.8934 64.7666 32.8819 64.7496 32.8693C64.7325 32.8567 64.7029 32.8417 64.6586 32.8268C64.6143 32.8107 64.5654 32.797 64.5108 32.7866C64.4562 32.7751 64.4051 32.7671 64.3573 32.7625C64.3096 32.7579 64.2675 32.7556 64.2311 32.7556C64.147 32.7556 64.0651 32.7659 63.9844 32.7855C63.9037 32.805 63.8218 32.8429 63.7377 32.898C63.6536 32.9531 63.5649 33.0312 63.4717 33.13C63.3784 33.2298 63.2772 33.3596 63.1681 33.5227V32.9129C63.1681 32.8957 63.1647 32.8808 63.1579 32.8658C63.1511 32.8521 63.1385 32.8394 63.1226 32.8303C63.1056 32.8199 63.0817 32.813 63.051 32.8084C63.0203 32.8038 62.9805 32.8015 62.9328 32.8015C62.885 32.8015 62.8464 32.8038 62.8168 32.8084C62.7872 32.813 62.7634 32.8199 62.7429 32.8303C62.7236 32.8406 62.7099 32.8521 62.7031 32.8658C62.6963 32.8808 62.6929 32.8957 62.6929 32.9129V36.7677C62.6929 36.7849 62.6963 36.801 62.7031 36.8148C62.7099 36.8297 62.7236 36.84 62.7429 36.8492C62.7634 36.8572 62.7884 36.8653 62.8213 36.871C62.8532 36.8768 62.8941 36.8791 62.9419 36.8791C62.9919 36.8791 63.0339 36.8768 63.0658 36.871C63.0988 36.8653 63.1238 36.8584 63.142 36.8492C63.1601 36.84 63.1738 36.8297 63.1817 36.8148C63.1897 36.801 63.1943 36.7849 63.1943 36.7677V34.1611C63.3011 33.9877 63.3989 33.8419 63.4876 33.7225C63.5763 33.603 63.6604 33.5077 63.74 33.4354C63.8207 33.3631 63.8969 33.3102 63.9696 33.2781C64.0424 33.2448 64.1174 33.2287 64.1936 33.2287C64.2584 33.2287 64.3175 33.2356 64.371 33.2482C64.4244 33.2609 64.4733 33.2746 64.5188 33.2884C64.5642 33.3033 64.6029 33.316 64.637 33.3286C64.67 33.3412 64.7007 33.3481 64.7257 33.3481C64.7427 33.3481 64.7564 33.3435 64.7655 33.3332C64.7757 33.3229 64.7837 33.3091 64.7905 33.2907C64.7973 33.2723 64.803 33.2482 64.8053 33.2184C64.8075 33.1885 64.8098 33.1529 64.8098 33.1104C64.8098 33.0679 64.8087 33.0335 64.8075 33.0059C64.8041 32.9784 64.8018 32.9566 64.7973 32.9416Z" fill="black"/>
<path d="M67.3803 33.2552C67.4167 33.2552 67.4474 33.2368 67.4701 33.2023C67.494 33.1667 67.5065 33.1139 67.5065 33.0427C67.5065 33.006 67.5031 32.9738 67.4974 32.9474C67.4917 32.9199 67.4838 32.898 67.4724 32.8797C67.461 32.8613 67.4485 32.8475 67.4326 32.8395C67.4167 32.8303 67.3996 32.8268 67.3803 32.8268H66.3264V31.8807C66.3264 31.8634 66.3219 31.8485 66.3139 31.8336C66.3059 31.8198 66.2923 31.8072 66.2741 31.798C66.2559 31.7877 66.2309 31.7808 66.1979 31.7762C66.1661 31.7716 66.124 31.7693 66.074 31.7693C66.0263 31.7693 65.9865 31.7716 65.9535 31.7762C65.9205 31.7808 65.8955 31.7877 65.875 31.798C65.8557 31.8083 65.8421 31.8198 65.8353 31.8336C65.8284 31.8485 65.825 31.8634 65.825 31.8807V32.8268H65.2554C65.2361 32.8268 65.2179 32.8314 65.2031 32.8395C65.1872 32.8475 65.1736 32.8613 65.1633 32.8797C65.152 32.898 65.1429 32.921 65.1383 32.9474C65.1326 32.9738 65.1304 33.006 65.1304 33.0427C65.1304 33.1139 65.1417 33.1667 65.1645 33.2023C65.1872 33.2379 65.2179 33.2552 65.2577 33.2552H65.8273V35.6527C65.8273 35.8686 65.8466 36.0558 65.8841 36.2154C65.9228 36.375 65.9831 36.5059 66.0672 36.6093C66.1513 36.7126 66.2605 36.7907 66.3923 36.8412C66.5242 36.8917 66.6845 36.9181 66.8733 36.9181C66.929 36.9181 66.9869 36.9147 67.0461 36.9078C67.1052 36.9009 67.1609 36.8906 67.2143 36.878C67.2678 36.8653 67.3155 36.8492 67.3553 36.8309C67.3962 36.8125 67.4269 36.7918 67.4474 36.7712C67.469 36.7494 67.4838 36.7206 67.494 36.6839C67.5042 36.6472 67.5088 36.5989 67.5088 36.5392C67.5088 36.5025 67.5065 36.4715 67.502 36.4474C67.4974 36.4232 67.4917 36.4037 67.4849 36.3876C67.4781 36.3716 67.469 36.3612 67.4576 36.3555C67.4463 36.3497 67.4338 36.3475 67.4201 36.3475C67.3974 36.3475 67.3712 36.3543 67.3417 36.3693C67.3121 36.3831 67.2769 36.3991 67.2348 36.4164C67.1927 36.4336 67.1438 36.4496 67.0893 36.4634C67.0347 36.4784 66.9733 36.4852 66.9051 36.4852C66.6857 36.4852 66.5345 36.4083 66.4515 36.2556C66.3685 36.1017 66.3275 35.879 66.3275 35.5861V33.2563H67.3803V33.2552Z" fill="black"/>
<path d="M72.9136 34.3897C72.7931 34.2726 72.6555 34.1692 72.502 34.0831C72.3485 33.997 72.1928 33.9155 72.0336 33.8408C71.8744 33.765 71.7187 33.6904 71.5652 33.6146C71.4117 33.5388 71.2753 33.455 71.1536 33.3609C71.032 33.2667 70.9353 33.1599 70.8626 33.037C70.7898 32.9153 70.7523 32.7683 70.7523 32.5984C70.7523 32.4824 70.7728 32.371 70.8137 32.2666C70.8546 32.1609 70.916 32.0702 70.9967 31.9921C71.0786 31.914 71.1809 31.852 71.3048 31.8072C71.4288 31.7625 71.5731 31.7395 71.7391 31.7395C71.9085 31.7395 72.0586 31.7602 72.1905 31.8015C72.3224 31.8428 72.4361 31.8888 72.5316 31.9404C72.6271 31.9921 72.7067 32.038 72.7703 32.0794C72.834 32.1207 72.8806 32.1414 72.9113 32.1414C72.9283 32.1414 72.9431 32.1356 72.9556 32.1242C72.9681 32.1127 72.9795 32.0966 72.9875 32.0748C72.9954 32.053 73.0023 32.0277 73.0068 31.9979C73.0113 31.968 73.0125 31.9347 73.0125 31.898C73.0125 31.8589 73.0113 31.8245 73.0079 31.7981C73.0057 31.7705 73.0011 31.7475 72.9954 31.728C72.9897 31.7085 72.9829 31.6924 72.9761 31.6786C72.9693 31.666 72.9522 31.6453 72.9261 31.6189C72.8988 31.5914 72.8442 31.5569 72.7612 31.5121C72.6782 31.4685 72.5839 31.4283 72.4781 31.3927C72.3724 31.3571 72.261 31.3284 72.1427 31.3054C72.0245 31.2825 71.9074 31.271 71.7926 31.271C71.5618 31.271 71.3503 31.302 71.1582 31.3652C70.966 31.4272 70.8001 31.5179 70.6625 31.635C70.5249 31.7533 70.418 31.8957 70.3419 32.0656C70.2657 32.2344 70.2282 32.425 70.2282 32.6386C70.2282 32.8579 70.2646 33.0462 70.3385 33.2047C70.4112 33.3643 70.5079 33.5021 70.6272 33.6204C70.7466 33.7386 70.8819 33.8408 71.0343 33.9293C71.1866 34.0177 71.3412 34.0992 71.5004 34.1738C71.6596 34.2496 71.8153 34.3243 71.9665 34.4C72.1189 34.4758 72.2542 34.5597 72.3735 34.6515C72.4929 34.7434 72.5895 34.8513 72.6623 34.973C72.7351 35.0948 72.7715 35.2417 72.7715 35.4117C72.7715 35.5759 72.743 35.7229 72.6851 35.8526C72.6271 35.9824 72.5463 36.0903 72.4418 36.1787C72.3383 36.2671 72.2144 36.3337 72.07 36.3808C71.9267 36.4279 71.7698 36.4509 71.5982 36.4509C71.3878 36.4509 71.2025 36.4256 71.0433 36.3762C70.8842 36.3268 70.7478 36.2729 70.6341 36.2143C70.5204 36.1558 70.4271 36.1018 70.3555 36.0524C70.2839 36.003 70.2282 35.9778 70.1895 35.9778C70.1725 35.9778 70.1566 35.9812 70.1406 35.9881C70.1247 35.995 70.1122 36.0088 70.1031 36.0283C70.0929 36.049 70.0849 36.0742 70.0804 36.1052C70.0747 36.1362 70.0713 36.1764 70.0713 36.2247C70.0713 36.2901 70.0781 36.3441 70.0929 36.3889C70.1077 36.4336 70.1293 36.4715 70.16 36.5037C70.1907 36.5358 70.2475 36.576 70.3305 36.6231C70.4135 36.6702 70.5158 36.7161 70.6363 36.762C70.7568 36.808 70.8944 36.847 71.049 36.8792C71.2037 36.9113 71.3674 36.9274 71.5425 36.9274C71.7983 36.9274 72.0347 36.8918 72.2507 36.8206C72.4679 36.7494 72.6544 36.6472 72.8112 36.5117C72.9681 36.3774 73.0909 36.2132 73.1785 36.0203C73.266 35.8273 73.3092 35.608 73.3092 35.3646C73.3092 35.1487 73.2728 34.9616 73.2001 34.8042C73.1319 34.6458 73.0341 34.508 72.9136 34.3897Z" fill="black"/>
<path d="M77.2954 33.3034C77.1464 33.1254 76.96 32.9899 76.736 32.8969C76.512 32.8028 76.2517 32.7568 75.9538 32.7568C75.6423 32.7568 75.3694 32.8097 75.1352 32.9142C74.9022 33.0198 74.7066 33.1668 74.5508 33.3551C74.3951 33.5434 74.278 33.7673 74.2007 34.0257C74.1234 34.284 74.0847 34.5665 74.0847 34.8731C74.0847 35.1912 74.1222 35.4771 74.1973 35.7297C74.2723 35.9823 74.3837 36.1971 74.5349 36.375C74.685 36.553 74.8726 36.6885 75.0954 36.7838C75.3194 36.8791 75.5798 36.9262 75.8776 36.9262C76.1869 36.9262 76.4586 36.8734 76.6917 36.7666C76.9247 36.6598 77.1203 36.5117 77.276 36.3211C77.4318 36.1316 77.5489 35.9066 77.6285 35.6482C77.7069 35.3898 77.7467 35.1074 77.7467 34.8008C77.7467 34.4861 77.7081 34.2014 77.633 33.9487C77.5569 33.6961 77.4443 33.4814 77.2954 33.3034ZM77.1396 35.4955C77.0884 35.6941 77.0111 35.8664 76.9054 36.011C76.7997 36.1557 76.6644 36.2694 76.4984 36.3521C76.3324 36.4348 76.1357 36.4749 75.9072 36.4749C75.6593 36.4749 75.4536 36.4313 75.2876 36.3429C75.1216 36.2545 74.9897 36.1362 74.8908 35.9846C74.793 35.8342 74.7225 35.6585 74.6805 35.4587C74.6384 35.2589 74.6168 35.0476 74.6168 34.826C74.6168 34.5964 74.6418 34.3816 74.693 34.183C74.743 33.9843 74.8214 33.8121 74.9272 33.6651C75.0329 33.5193 75.1682 33.4045 75.3342 33.3218C75.5002 33.2391 75.6969 33.1978 75.9254 33.1978C76.1732 33.1978 76.3801 33.2426 76.545 33.3321C76.711 33.4217 76.8429 33.5423 76.9406 33.6938C77.0396 33.8454 77.1089 34.0211 77.151 34.2197C77.193 34.4184 77.2146 34.6274 77.2146 34.8455C77.2146 35.0809 77.1908 35.2968 77.1396 35.4955Z" fill="black"/>
<path d="M84.0326 33.2288C83.9326 33.0841 83.8007 32.9693 83.6358 32.8843C83.471 32.7993 83.2697 32.7568 83.031 32.7568C82.9355 32.7568 82.8388 32.7706 82.7399 32.797C82.641 32.8246 82.5398 32.8682 82.4341 32.9291C82.3284 32.9899 82.217 33.0715 82.101 33.1714C81.985 33.2724 81.86 33.3964 81.7281 33.5446C81.686 33.4286 81.6303 33.3218 81.5632 33.2253C81.4961 33.1289 81.4143 33.0462 81.3188 32.9762C81.2233 32.9061 81.113 32.8533 80.9879 32.8142C80.8629 32.7764 80.7208 32.7568 80.5593 32.7568C80.3649 32.7568 80.1694 32.812 79.9727 32.9233C79.776 33.0336 79.5679 33.2127 79.3485 33.4596V32.9142C79.3485 32.8969 79.3451 32.882 79.3383 32.8671C79.3315 32.8533 79.319 32.8407 79.303 32.8315C79.286 32.8211 79.2621 32.8143 79.2314 32.8097C79.2007 32.8051 79.1609 32.8028 79.1132 32.8028C79.0654 32.8028 79.0268 32.8051 78.9972 32.8097C78.9677 32.8143 78.9426 32.8211 78.9233 32.8315C78.904 32.8418 78.8903 32.8533 78.8835 32.8671C78.8767 32.882 78.8733 32.8969 78.8733 32.9142V36.7689C78.8733 36.7861 78.8767 36.8022 78.8835 36.816C78.8903 36.8309 78.904 36.8412 78.9233 36.8504C78.9426 36.8585 78.9688 36.8665 79.0018 36.8722C79.0336 36.878 79.0745 36.8803 79.1223 36.8803C79.1734 36.8803 79.2144 36.878 79.2462 36.8722C79.2792 36.8665 79.3042 36.8596 79.3224 36.8504C79.3406 36.8412 79.3542 36.8309 79.3622 36.816C79.3701 36.8022 79.3747 36.7861 79.3747 36.7689V34.0039C79.5884 33.734 79.7862 33.5296 79.967 33.3907C80.1489 33.2517 80.3274 33.1817 80.5048 33.1817C80.648 33.1817 80.7719 33.2104 80.8777 33.269C80.9834 33.3275 81.0709 33.4091 81.1392 33.5158C81.2085 33.6226 81.2597 33.7501 81.2926 33.8994C81.3268 34.0486 81.3438 34.214 81.3438 34.3954V36.7678C81.3438 36.785 81.3472 36.8011 81.354 36.8148C81.3609 36.8298 81.3745 36.8401 81.3938 36.8493C81.4132 36.8573 81.4393 36.8654 81.4723 36.8711C81.5041 36.8768 81.545 36.8791 81.5928 36.8791C81.6405 36.8791 81.6803 36.8768 81.7133 36.8711C81.7451 36.8654 81.7713 36.8585 81.7895 36.8493C81.8077 36.8401 81.8213 36.8298 81.8293 36.8148C81.8372 36.8011 81.8418 36.785 81.8418 36.7678V34.0027C82.0589 33.7329 82.2567 33.5285 82.4386 33.3895C82.6206 33.2506 82.7991 33.1805 82.9764 33.1805C83.1197 33.1805 83.2436 33.2093 83.3493 33.2678C83.4551 33.3264 83.5415 33.4079 83.6108 33.5147C83.6802 33.6215 83.7302 33.7489 83.7632 33.8982C83.795 34.0475 83.812 34.2128 83.812 34.3943V36.7666C83.812 36.7838 83.8155 36.7999 83.8223 36.8137C83.8291 36.8286 83.8427 36.839 83.8621 36.8481C83.8814 36.8562 83.9075 36.8642 83.9405 36.87C83.9723 36.8757 84.0144 36.878 84.0656 36.878C84.1133 36.878 84.1531 36.8757 84.1861 36.87C84.2179 36.8642 84.2441 36.8573 84.2623 36.8481C84.2805 36.839 84.2941 36.8286 84.3032 36.8137C84.3111 36.7999 84.3157 36.7838 84.3157 36.7666V34.3472C84.3157 34.1313 84.2941 33.9269 84.2509 33.734C84.2043 33.5434 84.1327 33.3735 84.0326 33.2288Z" fill="black"/>
<path d="M88.4405 33.2907C88.3098 33.1277 88.1438 32.9979 87.9403 32.9003C87.7379 32.8038 87.4934 32.7556 87.2069 32.7556C86.9398 32.7556 86.6976 32.8027 86.4793 32.898C86.261 32.9933 86.0746 33.1311 85.92 33.3114C85.7653 33.4917 85.6471 33.711 85.5641 33.9693C85.4811 34.2277 85.4402 34.5205 85.4402 34.8466C85.4402 35.1877 85.48 35.4874 85.5607 35.7457C85.6414 36.0041 85.7585 36.22 85.9131 36.3956C86.0678 36.5702 86.2588 36.7022 86.4873 36.7918C86.7147 36.8814 86.9762 36.9261 87.2718 36.9261C87.4514 36.9261 87.6196 36.9124 87.7754 36.8837C87.9312 36.855 88.0687 36.8239 88.187 36.7872C88.3052 36.7516 88.4007 36.716 88.4735 36.6804C88.5462 36.6448 88.5906 36.6207 88.6042 36.6058C88.619 36.592 88.6292 36.5771 88.6383 36.5633C88.6463 36.5484 88.6531 36.5334 88.6565 36.5185C88.6611 36.5024 88.6645 36.4852 88.6667 36.4668C88.6702 36.4485 88.6713 36.4289 88.6713 36.4094C88.6713 36.3669 88.669 36.3313 88.6656 36.3026C88.6611 36.2739 88.6554 36.251 88.6463 36.2326C88.6383 36.2142 88.6269 36.2004 88.6122 36.1924C88.5985 36.1844 88.5826 36.1798 88.5656 36.1798C88.5371 36.1798 88.4905 36.1958 88.4246 36.2268C88.3586 36.2578 88.2745 36.2934 88.1711 36.3313C88.0687 36.3692 87.9471 36.4048 87.8061 36.4358C87.6651 36.4668 87.506 36.4829 87.3297 36.4829C87.0796 36.4829 86.8693 36.4462 86.6976 36.3727C86.5259 36.2992 86.3872 36.1935 86.2804 36.0546C86.1735 35.9168 86.0973 35.7515 86.0507 35.5586C86.0041 35.3656 85.9814 35.1498 85.9814 34.9109H88.5837C88.6349 34.9109 88.6861 34.8914 88.7395 34.8535C88.7929 34.8156 88.8202 34.7456 88.8202 34.6422V34.54C88.8202 34.3012 88.7895 34.075 88.7293 33.8591C88.6667 33.6432 88.5712 33.4538 88.4405 33.2907ZM85.9791 34.4941C85.987 34.323 86.0177 34.16 86.0712 34.0015C86.1246 33.8442 86.2008 33.7052 86.3008 33.5858C86.4009 33.4664 86.5225 33.3711 86.6681 33.2987C86.8124 33.2264 86.9807 33.1908 87.1717 33.1908C87.5435 33.1908 87.8254 33.3056 88.0198 33.5353C88.2143 33.7649 88.3063 34.0842 88.2984 34.4941H85.9791Z" fill="black"/>
<path d="M91.6433 33.2552C91.6796 33.2552 91.7103 33.2368 91.7342 33.2023C91.7581 33.1667 91.7706 33.1139 91.7706 33.0427C91.7706 33.006 91.7672 32.9738 91.7615 32.9474C91.7558 32.9199 91.7479 32.898 91.7365 32.8797C91.7251 32.8613 91.7126 32.8475 91.6967 32.8395C91.6808 32.8303 91.6637 32.8268 91.6444 32.8268H90.5905V31.8807C90.5905 31.8634 90.5859 31.8485 90.578 31.8336C90.57 31.8198 90.5564 31.8072 90.5382 31.798C90.52 31.7877 90.495 31.7808 90.462 31.7762C90.4302 31.7716 90.3881 31.7693 90.3381 31.7693C90.2903 31.7693 90.2505 31.7716 90.2176 31.7762C90.1846 31.7808 90.1596 31.7877 90.1391 31.798C90.1198 31.8083 90.1061 31.8198 90.0982 31.8336C90.0914 31.8485 90.088 31.8634 90.088 31.8807V32.8268H89.5184C89.499 32.8268 89.4808 32.8314 89.4661 32.8395C89.4502 32.8475 89.4365 32.8613 89.4263 32.8797C89.4149 32.898 89.4069 32.921 89.4013 32.9474C89.3956 32.9738 89.3933 33.006 89.3933 33.0427C89.3933 33.1139 89.4047 33.1667 89.4274 33.2023C89.4502 33.2379 89.4809 33.2552 89.5206 33.2552H90.0902V35.6527C90.0902 35.8686 90.1096 36.0558 90.1471 36.2154C90.1846 36.375 90.246 36.5059 90.3301 36.6093C90.4143 36.7126 90.5223 36.7907 90.6553 36.8412C90.7872 36.8917 90.9475 36.9181 91.1362 36.9181C91.1919 36.9181 91.251 36.9147 91.309 36.9078C91.3681 36.9009 91.4238 36.8906 91.4773 36.878C91.5307 36.8653 91.5785 36.8492 91.6182 36.8309C91.6592 36.8125 91.6899 36.7918 91.7115 36.7712C91.7319 36.7494 91.7479 36.7206 91.7581 36.6839C91.7683 36.6472 91.7729 36.5989 91.7729 36.5392C91.7729 36.5025 91.7706 36.4715 91.766 36.4474C91.7615 36.4232 91.7558 36.4037 91.749 36.3876C91.7422 36.3716 91.7331 36.3612 91.7217 36.3555C91.7103 36.3497 91.6978 36.3475 91.683 36.3475C91.6603 36.3475 91.6342 36.3543 91.6046 36.3693C91.575 36.3831 91.5387 36.3991 91.4966 36.4164C91.4545 36.4336 91.4056 36.4496 91.3511 36.4634C91.2965 36.4784 91.2351 36.4852 91.168 36.4852C90.9486 36.4852 90.7974 36.4083 90.7144 36.2556C90.6314 36.1017 90.5905 35.879 90.5905 35.5861V33.2563H91.6433V33.2552Z" fill="black"/>
<path d="M95.5679 33.2288C95.4633 33.0841 95.3234 32.9693 95.1529 32.8843C94.9812 32.7994 94.7698 32.7569 94.5196 32.7569C94.3116 32.7569 94.1035 32.812 93.8955 32.9211C93.6874 33.0302 93.4794 33.2013 93.2713 33.4344V31.0264C93.2713 31.0092 93.2668 30.9943 93.2588 30.9793C93.2509 30.9656 93.2372 30.9529 93.219 30.9437C93.2008 30.9334 93.1758 30.9265 93.1428 30.9219C93.111 30.9173 93.0689 30.915 93.0189 30.915C92.9712 30.915 92.9314 30.9173 92.8984 30.9219C92.8654 30.9265 92.8404 30.9334 92.82 30.9437C92.8006 30.9541 92.787 30.9656 92.779 30.9793C92.7722 30.9943 92.7688 31.0092 92.7688 31.0264V36.7689C92.7688 36.7862 92.7722 36.8022 92.779 36.816C92.7859 36.8309 92.7995 36.8413 92.82 36.8505C92.8393 36.8585 92.8654 36.8665 92.8984 36.8723C92.9302 36.878 92.9712 36.8803 93.0189 36.8803C93.0689 36.8803 93.111 36.878 93.1428 36.8723C93.1758 36.8665 93.2008 36.8597 93.219 36.8505C93.2372 36.8413 93.2509 36.8309 93.2588 36.816C93.2668 36.8022 93.2713 36.7862 93.2713 36.7689V34.0039C93.4851 33.7341 93.6886 33.5297 93.883 33.3907C94.0774 33.2518 94.2718 33.1817 94.4651 33.1817C94.6174 33.1817 94.7493 33.2104 94.8641 33.269C94.9778 33.3276 95.071 33.4091 95.1438 33.5159C95.2166 33.6227 95.2723 33.7501 95.3087 33.8994C95.345 34.0487 95.3632 34.2427 95.3632 34.4804V36.7678C95.3632 36.785 95.3678 36.8011 95.3757 36.8149C95.3837 36.8298 95.3973 36.8401 95.4155 36.8493C95.4337 36.8574 95.4587 36.8654 95.4917 36.8711C95.5235 36.8769 95.5656 36.8792 95.6156 36.8792C95.6634 36.8792 95.7032 36.8769 95.7361 36.8711C95.7691 36.8654 95.7941 36.8585 95.8123 36.8493C95.8305 36.8401 95.8442 36.8298 95.8521 36.8149C95.8601 36.8011 95.8646 36.785 95.8646 36.7678V34.4333C95.8646 34.1612 95.8407 33.9281 95.7953 33.7352C95.7487 33.5434 95.6725 33.3735 95.5679 33.2288Z" fill="black"/>
<path d="M97.5096 31.2698C97.3834 31.2698 97.2959 31.2939 97.2481 31.3421C97.2004 31.3903 97.1765 31.4822 97.1765 31.6188C97.1765 31.7555 97.2004 31.8474 97.2459 31.8933C97.2925 31.9404 97.3766 31.9633 97.5005 31.9633C97.6267 31.9633 97.7143 31.9392 97.762 31.891C97.8098 31.8428 97.8337 31.7509 97.8337 31.6143C97.8337 31.4776 97.8098 31.3857 97.7643 31.3398C97.7188 31.2927 97.6336 31.2698 97.5096 31.2698Z" fill="black"/>
<path d="M97.7052 32.8314C97.687 32.8211 97.662 32.8142 97.629 32.8096C97.5972 32.805 97.5551 32.8027 97.5051 32.8027C97.4573 32.8027 97.4175 32.805 97.3846 32.8096C97.3516 32.8142 97.3266 32.8211 97.3061 32.8314C97.2868 32.8418 97.2732 32.8533 97.2663 32.867C97.2595 32.882 97.2561 32.8969 97.2561 32.9141V36.7689C97.2561 36.7861 97.2595 36.8022 97.2663 36.8159C97.2732 36.8309 97.2868 36.8412 97.3061 36.8504C97.3255 36.8584 97.3516 36.8665 97.3846 36.8722C97.4164 36.878 97.4573 36.8803 97.5051 36.8803C97.5562 36.8803 97.5972 36.878 97.629 36.8722C97.6608 36.8665 97.687 36.8596 97.7052 36.8504C97.7234 36.8412 97.737 36.8309 97.7461 36.8159C97.7541 36.8022 97.7586 36.7861 97.7586 36.7689V32.9141C97.7586 32.8969 97.7541 32.882 97.7461 32.867C97.737 32.8533 97.7245 32.8406 97.7052 32.8314Z" fill="black"/>
<path d="M101.962 33.2288C101.856 33.0841 101.717 32.9693 101.547 32.8843C101.375 32.7993 101.164 32.7568 100.914 32.7568C100.705 32.7568 100.496 32.812 100.285 32.9233C100.074 33.0336 99.8585 33.2127 99.6391 33.4596V32.9142C99.6391 32.8969 99.6356 32.882 99.6288 32.8671C99.622 32.8533 99.6095 32.8407 99.5936 32.8315C99.5765 32.8211 99.5526 32.8143 99.5219 32.8097C99.4913 32.8051 99.4515 32.8028 99.4037 32.8028C99.356 32.8028 99.3173 32.8051 99.2877 32.8097C99.2582 32.8143 99.2332 32.8211 99.2138 32.8315C99.1945 32.8418 99.1809 32.8533 99.1741 32.8671C99.1672 32.882 99.1638 32.8969 99.1638 32.9142V36.7689C99.1638 36.7861 99.1672 36.8022 99.1741 36.816C99.1809 36.8309 99.1945 36.8412 99.2138 36.8504C99.2332 36.8585 99.2593 36.8665 99.2923 36.8722C99.3241 36.878 99.3651 36.8803 99.4128 36.8803C99.4628 36.8803 99.5049 36.878 99.5367 36.8722C99.5686 36.8665 99.5947 36.8596 99.6129 36.8504C99.6311 36.8412 99.6447 36.8309 99.6527 36.816C99.6618 36.8022 99.6652 36.7861 99.6652 36.7689V34.0039C99.8789 33.734 100.082 33.5296 100.277 33.3907C100.471 33.2517 100.666 33.1817 100.859 33.1817C101.011 33.1817 101.143 33.2104 101.258 33.269C101.372 33.3275 101.465 33.4091 101.538 33.5158C101.61 33.6226 101.666 33.7501 101.703 33.8994C101.739 34.0486 101.757 34.2427 101.757 34.4804V36.7678C101.757 36.785 101.762 36.8011 101.77 36.8148C101.778 36.8298 101.791 36.8401 101.809 36.8493C101.828 36.8573 101.853 36.8654 101.886 36.8711C101.917 36.8768 101.959 36.8791 102.01 36.8791C102.057 36.8791 102.097 36.8768 102.13 36.8711C102.163 36.8654 102.188 36.8585 102.206 36.8493C102.224 36.8401 102.238 36.8298 102.246 36.8148C102.254 36.8011 102.258 36.785 102.258 36.7678V34.4333C102.258 34.1612 102.235 33.9281 102.189 33.7352C102.143 33.5434 102.066 33.3735 101.962 33.2288Z" fill="black"/>
<path d="M106.573 32.8245H105.448C105.366 32.805 105.277 32.7878 105.18 32.7751C105.083 32.7625 104.98 32.7556 104.87 32.7556C104.662 32.7556 104.471 32.7878 104.296 32.8521C104.121 32.9164 103.972 33.0071 103.847 33.1265C103.722 33.2459 103.624 33.3918 103.553 33.5629C103.483 33.7351 103.448 33.928 103.448 34.1439C103.448 34.323 103.47 34.4757 103.516 34.6043C103.56 34.7318 103.624 34.8501 103.706 34.958C103.61 35.0659 103.528 35.1877 103.461 35.322C103.394 35.4564 103.36 35.6125 103.36 35.7882C103.36 35.9076 103.394 36.0202 103.461 36.1247C103.528 36.2303 103.634 36.3187 103.777 36.3933C103.688 36.4703 103.608 36.5449 103.539 36.6196C103.469 36.693 103.412 36.77 103.366 36.8504C103.319 36.9296 103.285 37.0134 103.262 37.1018C103.24 37.1902 103.228 37.2833 103.228 37.3832C103.228 37.5278 103.258 37.6633 103.319 37.7885C103.379 37.9137 103.477 38.0216 103.61 38.1146C103.743 38.2065 103.915 38.2788 104.125 38.3316C104.334 38.3845 104.588 38.4109 104.886 38.4109C105.199 38.4109 105.467 38.3764 105.692 38.3064C105.917 38.2363 106.101 38.1433 106.247 38.025C106.391 37.9068 106.498 37.7701 106.567 37.614C106.637 37.4578 106.671 37.2947 106.671 37.1236C106.671 36.9583 106.637 36.8159 106.57 36.693C106.503 36.5713 106.41 36.468 106.296 36.3842C106.18 36.3003 106.047 36.2372 105.893 36.1947C105.74 36.1522 105.576 36.1281 105.402 36.1224L104.369 36.0799C104.205 36.0741 104.073 36.0339 103.97 35.9604C103.867 35.887 103.816 35.7951 103.816 35.6883C103.816 35.5918 103.834 35.5069 103.871 35.4322C103.907 35.3588 103.954 35.2933 104.009 35.2359C104.097 35.3071 104.217 35.3668 104.372 35.415C104.527 35.4632 104.689 35.4874 104.861 35.4874C105.071 35.4874 105.264 35.4564 105.438 35.3932C105.612 35.3312 105.764 35.2405 105.89 35.1234C106.016 35.0051 106.114 34.8615 106.183 34.6905C106.252 34.5205 106.287 34.3253 106.287 34.1071C106.287 33.9475 106.263 33.7971 106.217 33.6536C106.171 33.51 106.089 33.3768 105.971 33.2551H106.573C106.613 33.2551 106.645 33.239 106.671 33.208C106.696 33.177 106.708 33.1208 106.708 33.0415C106.708 32.9703 106.698 32.9164 106.677 32.8796C106.655 32.8429 106.621 32.8245 106.573 32.8245ZM103.825 36.9537C103.863 36.8871 103.914 36.8182 103.979 36.747C104.043 36.6758 104.126 36.6012 104.228 36.5208L105.337 36.5587C105.591 36.5667 105.792 36.6207 105.942 36.7206C106.092 36.8205 106.168 36.964 106.168 37.1512C106.168 37.2591 106.147 37.3625 106.105 37.4624C106.063 37.5623 105.992 37.6496 105.894 37.7265C105.795 37.8034 105.667 37.8654 105.508 37.9114C105.349 37.9584 105.152 37.9814 104.915 37.9814C104.541 37.9814 104.249 37.9274 104.04 37.8195C103.831 37.7116 103.726 37.5531 103.726 37.343C103.726 37.2775 103.733 37.2132 103.748 37.1489C103.761 37.0858 103.788 37.0203 103.825 36.9537ZM105.712 34.4746C105.676 34.5894 105.62 34.6905 105.548 34.7766C105.475 34.8638 105.382 34.9327 105.267 34.9833C105.153 35.0338 105.02 35.0602 104.869 35.0602C104.582 35.0602 104.36 34.9787 104.2 34.8156C104.041 34.6526 103.962 34.4286 103.962 34.145C103.962 34.0141 103.98 33.8913 104.016 33.7741C104.053 33.6582 104.107 33.5548 104.181 33.4675C104.254 33.3791 104.347 33.3102 104.46 33.2586C104.572 33.208 104.703 33.1816 104.852 33.1816C105.144 33.1816 105.37 33.2643 105.528 33.4285C105.687 33.5927 105.767 33.8212 105.767 34.114C105.767 34.2403 105.749 34.3598 105.712 34.4746Z" fill="black"/>
<path d="M112.975 31.7911C112.991 31.7808 113.006 31.767 113.017 31.7486C113.029 31.7303 113.037 31.7062 113.042 31.6786C113.048 31.6499 113.05 31.6177 113.05 31.581C113.05 31.5408 113.048 31.5064 113.042 31.4765C113.037 31.4467 113.027 31.4214 113.017 31.4019C113.006 31.3824 112.992 31.3674 112.975 31.3571C112.958 31.3468 112.94 31.3422 112.921 31.3422H109.151C109.128 31.3422 109.109 31.3468 109.094 31.3571C109.078 31.3674 109.065 31.3824 109.054 31.4019C109.043 31.4214 109.035 31.4467 109.029 31.4765C109.023 31.5064 109.021 31.5408 109.021 31.581C109.021 31.6177 109.023 31.651 109.029 31.6786C109.035 31.7073 109.043 31.7303 109.054 31.7486C109.065 31.767 109.079 31.7808 109.094 31.7911C109.109 31.8015 109.128 31.8061 109.151 31.8061H110.779V36.7689C110.779 36.7861 110.783 36.8022 110.791 36.816C110.799 36.8309 110.813 36.8412 110.833 36.8504C110.853 36.8585 110.88 36.8665 110.914 36.8722C110.948 36.878 110.989 36.8803 111.036 36.8803C111.083 36.8803 111.124 36.878 111.158 36.8722C111.191 36.8665 111.219 36.8596 111.239 36.8504C111.258 36.8412 111.272 36.8309 111.281 36.816C111.289 36.8022 111.294 36.7861 111.294 36.7689V31.8061H112.922C112.94 31.8061 112.958 31.8015 112.975 31.7911Z" fill="black"/>
<path d="M115.978 33.3034C115.829 33.1254 115.642 32.9899 115.418 32.8969C115.194 32.8028 114.934 32.7568 114.636 32.7568C114.324 32.7568 114.051 32.8097 113.818 32.9142C113.585 33.0198 113.389 33.1668 113.233 33.3551C113.077 33.5434 112.96 33.7673 112.883 34.0257C112.806 34.284 112.767 34.5665 112.767 34.8731C112.767 35.1912 112.805 35.4771 112.88 35.7297C112.955 35.9823 113.066 36.1971 113.216 36.375C113.366 36.553 113.554 36.6885 113.777 36.7838C114.001 36.8791 114.261 36.9262 114.559 36.9262C114.868 36.9262 115.14 36.8734 115.373 36.7666C115.606 36.6598 115.802 36.5117 115.957 36.3211C116.113 36.1316 116.231 35.9066 116.31 35.6482C116.388 35.3898 116.428 35.1074 116.428 34.8008C116.428 34.4861 116.389 34.2014 116.314 33.9487C116.239 33.6961 116.127 33.4814 115.978 33.3034ZM115.822 35.4955C115.772 35.6941 115.694 35.8664 115.588 36.011C115.482 36.1557 115.347 36.2694 115.181 36.3521C115.015 36.4348 114.818 36.4749 114.591 36.4749C114.343 36.4749 114.136 36.4313 113.971 36.3429C113.805 36.2545 113.673 36.1362 113.574 35.9846C113.477 35.8342 113.406 35.6585 113.364 35.4587C113.322 35.2589 113.3 35.0476 113.3 34.826C113.3 34.5964 113.325 34.3816 113.376 34.183C113.426 33.9843 113.505 33.8121 113.611 33.6651C113.716 33.5193 113.852 33.4045 114.018 33.3218C114.184 33.2391 114.38 33.1978 114.609 33.1978C114.857 33.1978 115.063 33.2426 115.229 33.3321C115.394 33.4217 115.526 33.5423 115.625 33.6938C115.723 33.8454 115.794 34.0211 115.836 34.2197C115.878 34.4184 115.899 34.6274 115.899 34.8455C115.898 35.0809 115.873 35.2968 115.822 35.4955Z" fill="black"/>
<path d="M120.581 30.9667C120.563 30.9587 120.538 30.9518 120.505 30.946C120.473 30.9403 120.431 30.938 120.381 30.938C120.333 30.938 120.293 30.9403 120.26 30.946C120.228 30.9518 120.203 30.9587 120.182 30.9667C120.163 30.9747 120.149 30.9874 120.142 31.0011C120.135 31.0161 120.132 31.031 120.132 31.0482V33.37C119.947 33.1679 119.758 33.0164 119.567 32.9119C119.376 32.8085 119.165 32.7569 118.935 32.7569C118.668 32.7569 118.433 32.8062 118.231 32.9061C118.029 33.0049 117.858 33.1473 117.721 33.3321C117.583 33.517 117.478 33.7409 117.408 34.0027C117.337 34.2657 117.302 34.5596 117.302 34.8869C117.302 35.1648 117.331 35.4289 117.386 35.6769C117.442 35.9261 117.532 36.142 117.654 36.3268C117.776 36.5117 117.934 36.6575 118.128 36.7655C118.322 36.8734 118.556 36.9274 118.833 36.9274C119.088 36.9274 119.325 36.8642 119.541 36.7379C119.757 36.6116 119.967 36.4371 120.17 36.2155V36.7689C120.17 36.7884 120.174 36.8057 120.184 36.8194C120.195 36.8344 120.208 36.8459 120.226 36.8539C120.245 36.8619 120.268 36.8688 120.298 36.8734C120.328 36.878 120.365 36.8803 120.409 36.8803C120.451 36.8803 120.487 36.878 120.515 36.8734C120.544 36.8688 120.566 36.8631 120.585 36.8539C120.603 36.8459 120.615 36.8344 120.622 36.8194C120.629 36.8057 120.632 36.7884 120.632 36.7689V31.0482C120.632 31.031 120.628 31.0161 120.62 31.0011C120.613 30.9874 120.599 30.9759 120.581 30.9667ZM120.132 35.67C120.008 35.8239 119.892 35.9514 119.784 36.0558C119.675 36.1592 119.572 36.2442 119.469 36.3096C119.368 36.3751 119.27 36.4221 119.174 36.4497C119.078 36.4784 118.979 36.4922 118.878 36.4922C118.676 36.4922 118.507 36.4451 118.372 36.3498C118.237 36.2545 118.129 36.1282 118.047 35.9709C117.965 35.8136 117.908 35.6333 117.874 35.4323C117.841 35.2302 117.824 35.0235 117.824 34.8111C117.824 34.6125 117.843 34.4161 117.883 34.2232C117.922 34.0303 117.986 33.8569 118.073 33.7042C118.161 33.5503 118.272 33.4274 118.411 33.3333C118.548 33.2403 118.714 33.1932 118.909 33.1932C119.122 33.1932 119.327 33.2609 119.523 33.3976C119.718 33.5342 119.922 33.7317 120.132 33.9901V35.67Z" fill="black"/>
<path d="M124.407 33.1265C124.295 33.0071 124.15 32.9152 123.97 32.8521C123.79 32.7878 123.57 32.7556 123.308 32.7556C123.173 32.7556 123.039 32.7682 122.904 32.7935C122.768 32.8188 122.642 32.8521 122.526 32.8934C122.41 32.9347 122.306 32.9795 122.216 33.0278C122.126 33.076 122.063 33.1185 122.028 33.1529C121.993 33.1885 121.971 33.2241 121.963 33.2597C121.955 33.2953 121.951 33.3424 121.951 33.4021C121.951 33.4354 121.953 33.4652 121.958 33.4894C121.962 33.5135 121.969 33.5341 121.979 33.5491C121.99 33.5651 122.001 33.5755 122.015 33.5812C122.028 33.587 122.044 33.5893 122.061 33.5893C122.09 33.5893 122.136 33.5686 122.202 33.5273C122.268 33.4859 122.352 33.44 122.453 33.3883C122.555 33.3366 122.673 33.2907 122.808 33.2494C122.943 33.208 123.095 33.1874 123.264 33.1874C123.438 33.1874 123.586 33.208 123.707 33.2517C123.828 33.2942 123.927 33.3585 124.003 33.4434C124.079 33.5284 124.134 33.634 124.168 33.7604C124.202 33.8867 124.219 34.0325 124.219 34.1967V34.5286H123.611C123.336 34.5286 123.086 34.555 122.86 34.6078C122.635 34.6606 122.443 34.7387 122.283 34.8443C122.123 34.95 121.999 35.0809 121.912 35.2382C121.825 35.3955 121.781 35.5815 121.781 35.7939C121.781 35.9673 121.811 36.1235 121.87 36.2624C121.929 36.4014 122.013 36.5197 122.124 36.6184C122.233 36.7172 122.368 36.7918 122.526 36.8446C122.685 36.8974 122.865 36.9238 123.064 36.9238C123.287 36.9238 123.501 36.8733 123.707 36.77C123.914 36.6678 124.103 36.5231 124.275 36.3359V36.7665C124.275 36.7952 124.284 36.8171 124.302 36.832C124.32 36.8481 124.346 36.8595 124.38 36.8664C124.415 36.8733 124.456 36.8768 124.502 36.8768C124.552 36.8768 124.593 36.8733 124.623 36.8664C124.652 36.8595 124.676 36.8481 124.694 36.832C124.712 36.8159 124.722 36.7941 124.722 36.7665V34.16C124.722 33.9383 124.698 33.7408 124.65 33.5663C124.596 33.3929 124.517 33.2459 124.407 33.1265ZM124.214 35.8571C124.02 36.073 123.837 36.2326 123.663 36.3359C123.49 36.4393 123.304 36.491 123.105 36.491C122.851 36.491 122.656 36.4255 122.516 36.2934C122.377 36.1614 122.307 35.9846 122.307 35.7629C122.307 35.6355 122.332 35.5218 122.381 35.4219C122.43 35.322 122.505 35.237 122.607 35.1658C122.708 35.0946 122.834 35.0407 122.987 35.0039C123.139 34.9672 123.316 34.9488 123.519 34.9488H124.214V35.8571Z" fill="black"/>
<path d="M128.771 32.8119C128.736 32.8061 128.692 32.8038 128.638 32.8038C128.583 32.8038 128.534 32.8061 128.495 32.8107C128.457 32.8153 128.425 32.8234 128.4 32.836C128.376 32.8486 128.356 32.875 128.343 32.9152L127.171 36.2808H127.155L125.961 32.9152C125.953 32.8957 125.943 32.8785 125.934 32.8647C125.923 32.8509 125.909 32.8394 125.887 32.8302C125.865 32.8222 125.837 32.8153 125.801 32.8107C125.764 32.8061 125.714 32.8038 125.653 32.8038C125.594 32.8038 125.546 32.8061 125.512 32.8107C125.477 32.8153 125.452 32.8245 125.436 32.8383C125.42 32.8521 125.412 32.8716 125.412 32.8957C125.412 32.9198 125.419 32.952 125.432 32.9922L126.821 36.7527C126.826 36.7723 126.838 36.7929 126.855 36.8125C126.872 36.832 126.891 36.8469 126.914 36.8549L126.374 38.2225C126.359 38.257 126.354 38.2857 126.357 38.3098C126.359 38.3339 126.37 38.3534 126.388 38.3695C126.407 38.3856 126.433 38.3959 126.467 38.4017C126.5 38.4074 126.543 38.4097 126.593 38.4097C126.691 38.4097 126.763 38.3994 126.808 38.3776C126.852 38.3557 126.883 38.3305 126.897 38.2983L127.428 36.8538L128.853 32.991C128.867 32.9543 128.875 32.9233 128.875 32.8991C128.875 32.875 128.867 32.8555 128.85 32.8417C128.833 32.8268 128.807 32.8176 128.771 32.8119Z" fill="black"/>
<path d="M129.521 36.0662C129.383 36.0662 129.287 36.0926 129.234 36.1465C129.181 36.2005 129.153 36.3119 129.153 36.4795C129.153 36.6437 129.179 36.7528 129.232 36.8057C129.284 36.8585 129.376 36.8849 129.508 36.8849C129.646 36.8849 129.741 36.8573 129.795 36.8034C129.848 36.7494 129.875 36.638 129.875 36.4715C129.875 36.3073 129.849 36.1982 129.797 36.1454C129.745 36.0926 129.652 36.0662 129.521 36.0662Z" fill="black"/>
</g>
<defs>
<clipPath id="clip0_193_447">
<rect width="134" height="47" fill="white"/>
</clipPath>
</defs>
</svg>
