<svg width="95" height="53" viewBox="0 0 95 53" fill="none" xmlns="http://www.w3.org/2000/svg">
<path d="M9.48726 52.2947H7.65252V46.2102H0V44.6562H17.1164V46.1867H9.48726V52.2947Z" fill="#E90E2B"/>
<path d="M32.7444 46.1538H21.722C21.3194 46.1538 21.1229 46.3645 21.1229 46.7951V50.4879C21.1229 51.6892 20.4988 52.2899 19.2507 52.2899H18.6703V50.7922H18.9933C19.0747 50.7894 19.1548 50.7699 19.2284 50.7349C19.302 50.6998 19.3676 50.6501 19.4212 50.5886C19.4747 50.5272 19.5151 50.4553 19.5397 50.3776C19.5643 50.2999 19.5727 50.218 19.5643 50.1369V46.5189C19.5643 45.2708 20.1759 44.6467 21.399 44.6467H34.2422V52.2899H32.7351L32.7444 46.1538Z" fill="#E90E2B"/>
<path d="M49.2383 44.6562H50.7735V50.7923H52.2947V52.3041H36.0816V44.6562H37.6168V50.7923H49.2243L49.2383 44.6562Z" fill="#E90E2B"/>
<path d="M58.8801 8.30313C58.8801 8.30313 58.2154 7.3998 59.086 6.95516C59.9566 6.51052 62.8304 4.40432 70.1365 4.19838C70.3073 4.17332 70.4815 4.20281 70.6345 4.28266C70.7875 4.3625 70.9113 4.48862 70.9884 4.64302C71.1943 5.17191 72.43 8.38737 72.43 8.38737H71.8683C71.8683 8.38737 71.1147 5.80845 70.8433 5.74293C70.5718 5.6774 64.4966 5.76165 58.8801 8.30313Z" fill="#094B9F"/>
<path d="M74.1055 4.3623C74.1055 4.3623 79.942 4.85844 84.2434 7.81181L82.198 7.98029C79.8622 6.75777 77.3256 5.96509 74.7093 5.64007L74.1055 4.3623Z" fill="#094B9F"/>
<path d="M60.1812 2.87848L61.2624 2.54618C61.0316 2.20643 60.9078 1.80545 60.9066 1.39478L59.7974 1.68965C59.5714 1.52024 59.2931 1.43573 59.0111 1.45094C58.2762 1.53051 58.0375 2.38703 58.0375 2.38703L57.9346 4.7647C58.9081 4.39963 60.1484 4.01583 60.1484 4.01583L60.1812 2.87848Z" fill="#094B9F"/>
<path d="M62.2593 0.360389C62.5644 0.397802 62.8453 0.54553 63.049 0.775727C63.2527 1.00593 63.3651 1.3027 63.3651 1.61007C63.3651 1.91745 63.2527 2.21421 63.049 2.44441C62.8453 2.67461 62.5644 2.82233 62.2593 2.85975C62.1154 2.85747 61.9736 2.82505 61.843 2.76459C61.7124 2.70413 61.5959 2.61696 61.5011 2.50871C61.6337 2.6929 61.808 2.84317 62.0097 2.94728C62.2114 3.05138 62.4348 3.10638 62.6618 3.10781C63.0739 3.10781 63.4692 2.94409 63.7606 2.65268C64.052 2.36126 64.2157 1.96602 64.2157 1.5539C64.2157 1.14178 64.052 0.746532 63.7606 0.455118C63.4692 0.163704 63.0739 0 62.6618 0C62.3065 0.00631237 61.965 0.138768 61.6983 0.373702C61.4317 0.608635 61.2572 0.930733 61.2062 1.28244C61.2515 1.03225 61.3803 0.804819 61.5716 0.637334C61.7629 0.469848 62.0053 0.372216 62.2593 0.360389Z" fill="#094B9F"/>
<path d="M63.2469 1.61948C63.227 1.44007 63.1557 1.27023 63.0415 1.13041C62.9274 0.990593 62.7752 0.886769 62.6034 0.83144C62.4316 0.776111 62.2474 0.771633 62.0731 0.818556C61.8988 0.86548 61.7418 0.961805 61.621 1.09591C61.5002 1.23002 61.4207 1.39619 61.3922 1.57443C61.3636 1.75267 61.3872 1.93536 61.4601 2.10049C61.533 2.26563 61.6521 2.40617 61.803 2.50518C61.9539 2.60419 62.1303 2.65744 62.3108 2.65854C62.5719 2.64282 62.8165 2.52507 62.9916 2.33069C63.1667 2.1363 63.2584 1.88086 63.2469 1.61948Z" fill="#094B9F"/>
<path d="M94.3672 37.1114C94.3672 34.8601 93.2064 34.9958 93.2064 34.9958C93.2064 34.9958 92.7946 23.0513 92.5886 18.2024C92.3827 13.3534 90.3373 12.1974 89.1766 11.514C87.8458 10.7569 86.7754 9.61474 86.1062 8.2377C85.1701 6.45913 79.8251 3.86617 71.976 2.77562C64.1268 1.68508 47.7406 9.25804 47.7406 9.25804V9.28613L0.220032 30.8162V32.8334L49.2711 15.3473L50.5114 20.2758L0.224702 34.4108V36.4327L52.1777 26.7957L53.5818 32.3888L0.224702 38.0896V40.1068L55.3697 39.4984L55.5195 40.1068V41.745L64.5996 52.9407L93.7494 52.1216C92.6588 50.4834 92.5886 47.619 92.5886 47.619L93.3422 38.8104C93.3422 38.8104 94.3672 39.3673 94.3672 37.1114ZM88.3996 17.6454L88.966 34.495L78.7813 34.2469L78.5005 16.9855L88.3996 17.6454ZM76.0198 8.93509C76.0198 8.93509 82.5397 8.34068 83.7847 8.83212C81.216 9.25327 78.5988 9.28798 76.0198 8.93509ZM80.7003 10.943C80.7003 10.943 81.1075 14.6874 84.3838 15.703C84.3791 15.689 80.1059 16.157 80.6956 10.943H80.7003ZM86.8176 11.7714C86.8176 12.2297 86.6818 12.6776 86.4272 13.0586C86.1726 13.4396 85.8108 13.7366 85.3874 13.9119C84.9641 14.0873 84.4982 14.1331 84.0488 14.0437C83.5994 13.9544 83.1866 13.7337 82.8626 13.4097C82.5386 13.0857 82.3179 12.6729 82.2285 12.2234C82.1391 11.774 82.185 11.3082 82.3604 10.8848C82.5357 10.4615 82.8327 10.0996 83.2137 9.84507C83.5947 9.5905 84.0426 9.45462 84.5008 9.45462C85.1145 9.45586 85.7026 9.7005 86.136 10.1349C86.5695 10.5692 86.813 11.1578 86.813 11.7714H86.8176ZM74.3677 4.09083C77.2235 4.41899 79.9976 5.25596 82.5584 6.5621C83.3635 7.00675 84.4727 7.41862 84.454 7.85858C84.4353 8.29854 80.6675 8.16749 75.7343 8.59342L73.8903 4.51675C73.8903 4.51675 73.5111 4.10487 74.363 4.09083H74.3677ZM58.9549 6.71655C62.7274 4.53078 68.2737 4.0721 69.7434 3.90828C71.213 3.74447 71.4003 4.46994 71.4003 4.46994C71.4003 4.46994 72.5938 7.38586 72.8512 8.2143C73.1086 9.04274 71.9619 8.8134 71.9619 8.8134C67.4032 8.8836 61.9457 10.8775 60.8692 11.2706C60.6062 11.3983 60.3036 11.4178 60.0262 11.3251C59.7489 11.2323 59.5189 11.0347 59.3855 10.7745L58.8052 9.37037C58.8052 9.37037 59.0766 9.98819 58.4963 8.46705C57.9159 6.9459 58.9503 6.71655 58.9503 6.71655H58.9549ZM57.27 18.4177C58.7824 18.3135 60.2836 18.0849 61.7585 17.7343C61.7164 18.3194 61.8381 21.357 61.8381 21.357C61.3139 21.357 57.1577 22.0029 57.1577 22.0029C57.1062 20.5847 57.2653 18.4083 57.2653 18.4083L57.27 18.4177ZM66.8743 18.7593C66.6309 16.494 58.2248 17.3271 58.2248 17.3271C58.2248 17.3271 66.9257 15.7732 67.2347 18.7593C67.6091 21.6238 58.1733 22.7518 58.1733 22.7518C58.1733 22.7518 67.1083 20.9685 66.8696 18.75L66.8743 18.7593ZM92.5793 38.2721C91.3858 38.3423 71.9104 37.1535 60.0829 38.4874C60.0829 38.4874 59.2545 38.7682 59.2545 37.0271C59.2545 36.3625 59.3434 35.8804 60.0829 35.7821C60.0829 35.7821 70.1552 34.4154 93.1596 35.5762C93.1596 35.5762 93.7587 35.5762 93.7587 36.8727C93.7587 38.1692 93.7494 38.2066 92.5793 38.2721Z" fill="#094B9F"/>
<path d="M78.9357 17.7061L88.0111 18.3192L88.5306 33.7553L79.1931 33.5306L78.9357 17.7061Z" fill="#094B9F"/>
<path d="M57.7006 18.6937C57.7006 18.6937 57.5695 20.4395 57.621 21.5721C57.621 21.5721 60.9535 21.0573 61.3654 21.0573C61.3654 21.0573 61.2671 18.6141 61.2999 18.1414C60.1172 18.4232 58.9134 18.6079 57.7006 18.6937Z" fill="#094B9F"/>
</svg>
